<?xml version="1.0" encoding="UTF-8"?><svg id="Layer_2" xmlns="http://www.w3.org/2000/svg" xmlns:xlink="http://www.w3.org/1999/xlink" viewBox="0 0 357.39 64.25"><defs><style>.cls-1{fill:none;}.cls-2{fill:#58595b;}.cls-3{fill:url(#linear-gradient);}.cls-4{clip-path:url(#clippath);}</style><clipPath id="clippath"><path class="cls-1" d="M157.21,19.37v33.25c0,2.33,1.95,4.21,4.13,4.21,2.33,0,4.12-1.88,4.12-4.21V19.37c0-2.33-1.86-4.2-4.12-4.2s-4.13,1.87-4.13,4.2M8.07,43.38c0-3.74,3.42-5.85,8.15-5.85,3.5,0,6,.48,9.41,1.33v8.63c-.77.61-3.65,2.4-9.02,2.4s-8.54-2.33-8.54-6.52M5.58,16.8c-2.09.94-2.72,2.49-2.72,3.82,0,2.41,2.25,4.2,5.68,3.1,2.18-.78,5.29-1.71,8.47-1.71,6.06,0,8.62,2.26,8.62,7.54v2.55c-3.58-.85-6.22-1.31-9.87-1.31-10.51,0-15.44,5.73-15.76,12.21v1.42c.33,7.25,5.61,12.71,15.91,12.71,8.08,0,13.99-2.88,16.17-4.35,1.17-.79,1.47-1.63,1.47-3.03v-20.21c0-10.49-6.14-15.07-16.08-15.07-4.74,0-9.64,1.24-11.9,2.32M85.99,43.38c0-3.74,3.41-5.85,8.15-5.85,3.5,0,5.99.48,9.42,1.33v8.63c-.78.61-3.66,2.4-9.02,2.4s-8.55-2.33-8.55-6.52M83.5,16.8c-2.09.94-2.73,2.49-2.73,3.82,0,2.41,2.27,4.2,5.69,3.1,2.17-.78,5.28-1.71,8.47-1.71,6.05,0,8.63,2.26,8.63,7.54v2.55c-3.58-.85-6.23-1.31-9.88-1.31-10.87,0-15.77,6.14-15.77,12.89,0,7.62,5.28,13.45,15.92,13.45,8.08,0,13.99-2.88,16.17-4.35,1.17-.79,1.48-1.63,1.48-3.03v-20.21c0-10.49-6.13-15.07-16.09-15.07-4.74,0-9.64,1.24-11.89,2.32M118.61,18.73c-1.17.78-1.64,1.57-1.64,3.19v30.53c0,2.34,1.95,4.21,4.14,4.21,2.32,0,4.12-1.87,4.12-4.21v-27.88c1.77-1.09,5.43-2.18,9.24-2.18,4.82,0,9.02,2.65,9.02,8.86v21.21c0,2.34,1.93,4.21,4.12,4.21,2.41,0,4.12-1.87,4.12-4.21v-21.59c0-10.49-5.76-16.39-17.02-16.39-8.15,0-13.83,2.56-16.08,4.26M46.67,40.1c-.22-2.41-.15-6.98,0-9.08.33-5.67,3.12-8.63,9.02-8.63,4.05,0,7.93,1.4,9.55,2.42v21.58c-1.55,1.18-5.59,2.8-8.93,2.8-5.99,0-9.17-3.12-9.64-9.09M65.25,5.07v11.64c-2.55-1.16-6.44-2.24-10.17-2.24-10.02,0-15.77,5.97-16.63,15.61-.23,2.8-.23,8.31,0,11.03.86,9.55,7.23,16.01,17.71,16.01,7.54,0,13.84-3.35,15.86-4.84,1.24-.84,1.48-1.71,1.48-3.1V5.07c0-2.32-1.79-4.2-4.12-4.2s-4.12,1.88-4.12,4.2M156.66,5.07c0,2.57,1.95,4.75,4.67,4.75,2.56,0,4.59-2.18,4.59-4.75s-2.03-4.58-4.59-4.58c-2.72,0-4.67,2.02-4.67,4.58"/></clipPath><linearGradient id="linear-gradient" x1="-666.86" y1="304.89" x2="-666.04" y2="304.89" gradientTransform="translate(261198.83 92924.35) rotate(-5) scale(378.17 -378.17)" gradientUnits="userSpaceOnUse"><stop offset="0" stop-color="#00b16b"/><stop offset=".35" stop-color="#006db7"/><stop offset=".65" stop-color="#8e278f"/><stop offset=".9" stop-color="#f04d23"/><stop offset="1" stop-color="#f04d23"/></linearGradient></defs><g id="Layer_1-2"><path class="cls-2" d="M231.84,57.02c-1.61,0-3.1-.28-4.47-.84-1.37-.56-2.58-1.33-3.62-2.31-1.04-.98-1.87-2.14-2.51-3.48-.63-1.33-1-2.78-1.11-4.33-.21-2.1-.21-4.17,0-6.22.1-1.53.47-2.96,1.11-4.3.64-1.33,1.47-2.49,2.51-3.48,1.04-.98,2.24-1.76,3.62-2.33,1.37-.57,2.86-.86,4.47-.86s3.07.29,4.45.86c1.39.57,2.61,1.35,3.66,2.33,1.05.99,1.89,2.15,2.53,3.48.63,1.34,1,2.77,1.11,4.3.21,2.07.21,4.15,0,6.22-.1,1.55-.47,3-1.11,4.33-.64,1.33-1.48,2.5-2.53,3.48-1.05.99-2.27,1.76-3.66,2.31-1.39.56-2.87.84-4.45.84ZM231.84,53.05c1.04,0,2-.18,2.9-.54s1.67-.87,2.33-1.52,1.2-1.42,1.61-2.32c.41-.9.66-1.88.74-2.94.16-1.84.16-3.7,0-5.57-.08-1.04-.32-2.01-.74-2.9-.42-.9-.96-1.67-1.63-2.34-.67-.66-1.45-1.18-2.33-1.54-.88-.36-1.84-.55-2.88-.55s-2,.18-2.88.55c-.88.36-1.65.88-2.31,1.54s-1.2,1.44-1.61,2.34c-.42.9-.66,1.86-.74,2.9-.16,1.87-.16,3.73,0,5.57.08,1.07.32,2.05.74,2.94.41.9.95,1.67,1.61,2.32s1.43,1.16,2.31,1.52c.88.36,1.84.54,2.88.54Z"/><path class="cls-2" d="M265.62,54.65c0,.6-.19,1.09-.58,1.5-.39.4-.88.6-1.48.6-.54,0-1.02-.2-1.44-.6-.42-.4-.62-.9-.62-1.5v-10.61c0-.78-.12-1.45-.37-2-.25-.56-.58-1.02-.99-1.38s-.89-.63-1.44-.8c-.54-.17-1.12-.25-1.71-.25-.96,0-1.86.11-2.7.33-.84.22-1.48.47-1.92.76v13.96c0,.6-.19,1.09-.58,1.5-.39.4-.88.6-1.48.6-.54,0-1.02-.2-1.44-.6-.42-.4-.62-.9-.62-1.5v-15.28c0-.41.06-.73.2-.95.13-.22.34-.43.62-.64.28-.21.67-.43,1.17-.68s1.08-.48,1.75-.7c.67-.22,1.45-.4,2.31-.54s1.81-.21,2.82-.21c2.83,0,4.95.71,6.38,2.12,1.42,1.41,2.14,3.44,2.14,6.08v10.81Z"/><path class="cls-2" d="M287.43,45.43c0,.73-.2,1.32-.6,1.79-.4.47-1.03.7-1.89.7h-11v.47c0,1.55.47,2.75,1.42,3.58.95.83,2.18,1.24,3.71,1.24.7,0,1.43-.08,2.2-.25.76-.17,1.52-.4,2.27-.68.41-.16.8-.21,1.15-.17.35.04.65.14.89.31.25.17.43.38.56.64.13.26.19.53.19.82,0,.31-.07.62-.19.91-.13.3-.42.58-.86.84-.34.21-.75.4-1.22.56-.48.17-1,.31-1.56.43-.56.12-1.14.21-1.75.27-.61.06-1.2.1-1.77.1-1.35,0-2.56-.21-3.64-.62-1.08-.41-2-.99-2.78-1.73-.78-.74-1.39-1.62-1.85-2.64-.45-1.02-.72-2.14-.8-3.36-.03-.36-.05-.76-.06-1.21-.01-.44-.02-.88-.02-1.3s0-.84.02-1.24c.01-.4.03-.76.06-1.07.1-1.24.39-2.37.86-3.38s1.09-1.87,1.87-2.59c.78-.71,1.69-1.26,2.74-1.63,1.05-.38,2.18-.56,3.4-.56,1.3,0,2.48.21,3.54.62,1.06.42,1.97,1,2.72,1.77.75.77,1.33,1.69,1.75,2.76.41,1.08.62,2.26.62,3.56v1.09ZM282.95,44.66c.26,0,.41-.16.47-.47.1-1.48-.27-2.66-1.11-3.56-.84-.89-2.02-1.34-3.52-1.34-1.66,0-2.9.49-3.71,1.46-.82.97-1.2,2.27-1.15,3.91h9.02Z"/><path class="cls-2" d="M314.37,54.49c0,.52-.18,1.01-.54,1.48-.36.47-.87.7-1.52.7-.44,0-.84-.12-1.19-.35-.35-.23-.6-.57-.76-1.01l-2.57-7.27h-11.67l-2.57,7.31c-.16.42-.41.74-.78.97-.36.23-.75.35-1.17.35-.65,0-1.15-.22-1.5-.66-.35-.44-.52-.92-.52-1.44,0-.29.04-.54.12-.78l7.78-21.62c.39-1.14.99-1.98,1.79-2.53.8-.54,1.71-.82,2.72-.82s1.88.27,2.68.82c.8.54,1.41,1.39,1.83,2.53l7.74,21.62c.08.23.12.47.12.7ZM297.45,44.23h9.02l-3.69-10.54c-.13-.39-.39-.58-.78-.58-.42,0-.69.19-.82.58l-3.73,10.54Z"/><path class="cls-2" d="M335.14,49.09c-.21,2.44-1.04,4.36-2.51,5.77-1.47,1.41-3.49,2.12-6.09,2.12-.88,0-1.76-.12-2.62-.37-.87-.25-1.61-.51-2.24-.8v6.34c0,.6-.2,1.09-.6,1.5s-.89.6-1.46.6-1.09-.2-1.48-.6c-.39-.4-.58-.9-.58-1.5v-22.82c0-.26.04-.47.12-.64.08-.17.25-.34.51-.52.26-.18.65-.42,1.19-.72.53-.3,1.15-.58,1.87-.84.71-.26,1.5-.49,2.37-.68s1.79-.29,2.78-.29c1.3,0,2.46.19,3.5.56,1.04.38,1.92.91,2.66,1.61.74.7,1.33,1.54,1.77,2.53.44.99.71,2.07.82,3.27.03.34.04.75.06,1.22.01.48.02.98.02,1.5s0,1.02-.02,1.52c-.01.49-.03.91-.06,1.24ZM331.02,44.15c-.13-1.48-.58-2.61-1.34-3.38s-1.89-1.17-3.36-1.17c-.44,0-.89.04-1.34.14-.45.09-.89.21-1.32.35-.43.14-.82.3-1.17.47-.35.17-.62.33-.8.49v10.69c.36.26.97.54,1.83.84s1.76.45,2.72.45c1.58,0,2.75-.38,3.5-1.13s1.18-1.83,1.28-3.23c.03-.26.04-.58.04-.97v-2.47c0-.4-.01-.76-.04-1.07Z"/><path class="cls-2" d="M357.31,49.09c-.21,2.44-1.04,4.36-2.51,5.77-1.47,1.41-3.49,2.12-6.09,2.12-.88,0-1.76-.12-2.62-.37-.87-.25-1.61-.51-2.24-.8v6.34c0,.6-.2,1.09-.6,1.5s-.89.6-1.46.6-1.09-.2-1.48-.6c-.39-.4-.58-.9-.58-1.5v-22.82c0-.26.04-.47.12-.64.08-.17.25-.34.51-.52.26-.18.65-.42,1.19-.72.53-.3,1.15-.58,1.87-.84.71-.26,1.5-.49,2.37-.68s1.79-.29,2.78-.29c1.3,0,2.46.19,3.5.56,1.04.38,1.92.91,2.66,1.61.74.7,1.33,1.54,1.77,2.53.44.99.71,2.07.82,3.27.03.34.04.75.06,1.22.01.48.02.98.02,1.5s0,1.02-.02,1.52c-.01.49-.03.91-.06,1.24ZM353.19,44.15c-.13-1.48-.58-2.61-1.34-3.38s-1.89-1.17-3.36-1.17c-.44,0-.89.04-1.34.14-.45.09-.89.21-1.32.35-.43.14-.82.3-1.17.47-.35.17-.62.33-.8.49v10.69c.36.26.97.54,1.83.84s1.76.45,2.72.45c1.58,0,2.75-.38,3.5-1.13s1.18-1.83,1.28-3.23c.03-.26.04-.58.04-.97v-2.47c0-.4-.01-.76-.04-1.07Z"/><path class="cls-2" d="M193.26,57.7c-.54,0-.97-.44-.97-.97V.97c0-.54.44-.97.97-.97s.97.44.97.97v55.75c0,.54-.44.97-.97.97Z"/><g class="cls-4"><polygon class="cls-3" points="-4.92 .92 164.66 -13.92 170.83 56.7 1.26 71.53 -4.92 .92"/></g></g></svg>