<svg width="153" height="50" viewBox="0 0 153 50" fill="none" xmlns="http://www.w3.org/2000/svg">
<path d="M78.3209 23.2294C77.4672 23.2294 76.719 23.0366 76.0764 22.6511C75.4339 22.2563 74.9336 21.6918 74.5755 20.9574C74.2175 20.223 74.0385 19.3418 74.0385 18.3136C74.0385 17.5058 74.1395 16.7852 74.3415 16.1518C74.5526 15.5184 74.8463 14.9814 75.2227 14.5408C75.5991 14.1001 76.0489 13.7651 76.5721 13.5356C77.0954 13.3061 77.6783 13.1913 78.3209 13.1913C78.7982 13.1913 79.2434 13.2694 79.6565 13.4254C80.0696 13.5723 80.423 13.788 80.7168 14.0726L80.8545 13.1776H81.3364L81.901 16.2895L81.3502 16.4134C81.1482 15.8259 80.905 15.3486 80.6204 14.9814C80.345 14.6142 80.0191 14.348 79.6428 14.1828C79.2664 14.0083 78.8212 13.9211 78.3071 13.9211C77.8481 13.9211 77.4259 14.0083 77.0403 14.1828C76.6548 14.348 76.3197 14.6096 76.0351 14.9676C75.7506 15.3164 75.5257 15.7571 75.3604 16.2895C75.2044 16.8219 75.1263 17.4553 75.1263 18.1897C75.1263 18.8507 75.1998 19.4473 75.3466 19.9798C75.4935 20.503 75.7092 20.9528 75.9938 21.3292C76.2784 21.6964 76.6226 21.9809 77.0265 22.1829C77.4304 22.3757 77.894 22.4721 78.4173 22.4721C78.7477 22.4721 79.0644 22.4308 79.3674 22.3481C79.6795 22.2655 79.9595 22.1508 80.2073 22.0039C80.4552 21.857 80.6571 21.6964 80.8132 21.522V19.7319C80.8132 19.5116 80.7811 19.3601 80.7168 19.2775C80.6617 19.1949 80.5424 19.1398 80.3588 19.1123L79.5051 18.9884V18.4789H82.9888V18.9884L82.2177 19.1123C82.0616 19.1398 81.9515 19.2041 81.8872 19.3051C81.8321 19.3968 81.8046 19.5621 81.8046 19.8008V23.0779H81.3364L81.0473 22.3344C80.7811 22.5271 80.5011 22.6924 80.2073 22.8301C79.9228 22.9586 79.6244 23.055 79.3123 23.1192C79.0002 23.1927 78.6697 23.2294 78.3209 23.2294ZM87.1373 23.2294C86.4305 23.2294 85.8889 23.0366 85.5125 22.6511C85.1361 22.2563 84.9479 21.6734 84.9479 20.9023V17.6114C84.9479 17.3085 84.925 17.0973 84.8791 16.978C84.8332 16.8586 84.7001 16.7852 84.4798 16.7577L83.8464 16.6613L83.9152 16.1518L85.7604 15.9866L85.9256 16.083V20.6407C85.9256 21.063 85.9715 21.4072 86.0633 21.6734C86.1551 21.9396 86.3066 22.137 86.5177 22.2655C86.738 22.3849 87.0226 22.4445 87.3714 22.4445C87.7937 22.4445 88.1563 22.3619 88.4592 22.1967C88.7713 22.0223 89.01 21.7836 89.1752 21.4807C89.3496 21.1777 89.4368 20.8243 89.4368 20.4204V17.6114C89.4368 17.3085 89.4139 17.0973 89.368 16.978C89.3221 16.8586 89.189 16.7852 88.9687 16.7577L88.3353 16.6613L88.4041 16.1518L90.2493 15.9866L90.4145 16.083V21.8111C90.4145 22.0498 90.442 22.2104 90.4971 22.2931C90.5614 22.3757 90.6807 22.4308 90.8551 22.4583L91.5436 22.5547V23.0504L89.6159 23.133L89.4782 21.9764H89.4506C89.2395 22.2793 89.01 22.5226 88.7621 22.7062C88.5235 22.8897 88.271 23.0229 88.0048 23.1055C87.7386 23.1881 87.4494 23.2294 87.1373 23.2294ZM92.6599 23.0366V22.5409L93.3897 22.417C93.5458 22.3986 93.6467 22.3435 93.6926 22.2518C93.7477 22.16 93.7752 21.9855 93.7752 21.7285V13.99C93.7752 13.6962 93.7431 13.5034 93.6789 13.4117C93.6146 13.3107 93.4723 13.2418 93.252 13.2051L92.5773 13.0949L92.6461 12.5579L94.6014 12.4891L94.7529 12.6406V21.7836C94.7529 21.9764 94.7758 22.1232 94.8217 22.2242C94.8676 22.316 94.9778 22.3803 95.1522 22.417L95.8682 22.5409V23.0366H92.6599ZM96.9751 23.0366V22.5409L97.6636 22.4308C97.838 22.4032 97.9527 22.3481 98.0078 22.2655C98.0629 22.1737 98.0904 21.9947 98.0904 21.7285V16.7852H97.0301V16.2344L98.0904 16.0967V15.3945C98.0904 14.8621 98.1455 14.3985 98.2556 14.0037C98.375 13.609 98.5356 13.2877 98.7376 13.0399C98.9395 12.7828 99.1828 12.5901 99.4674 12.4615C99.7519 12.333 100.064 12.2688 100.404 12.2688C100.743 12.2688 101.046 12.3193 101.313 12.4202C101.579 12.512 101.79 12.6497 101.946 12.8333C102.102 13.0169 102.18 13.2464 102.18 13.5218C102.18 13.7513 102.116 13.9441 101.987 14.1001C101.859 14.247 101.684 14.3204 101.464 14.3204C101.28 14.3204 101.129 14.2791 101.01 14.1965C100.899 14.1139 100.844 13.9992 100.844 13.8523C100.844 13.7605 100.863 13.6641 100.899 13.5631C100.945 13.453 101.033 13.2969 101.161 13.0949C101.078 13.0307 100.968 12.9848 100.831 12.9573C100.693 12.9205 100.551 12.9022 100.404 12.9022C100.11 12.9022 99.8621 12.9756 99.6601 13.1225C99.4674 13.2602 99.3205 13.4759 99.2195 13.7697C99.1185 14.0634 99.0681 14.4398 99.0681 14.8988V16.083H101.106V16.7852H99.0681V21.7836C99.0681 21.9947 99.0956 22.1462 99.1507 22.238C99.2149 22.3298 99.3297 22.3849 99.4949 22.4032L100.665 22.5547V23.0366H96.9751ZM74.1349 37.0366V36.5409L74.9336 36.417C75.108 36.3894 75.2227 36.3298 75.2778 36.238C75.3329 36.1462 75.3604 35.9718 75.3604 35.7147V28.6785C75.3604 28.4398 75.3283 28.2791 75.264 28.1965C75.2089 28.1047 75.0896 28.0451 74.906 28.0175L74.1349 27.9074V27.3841H77.5085C78.2337 27.3841 78.8441 27.4621 79.3398 27.6182C79.8447 27.7651 80.2257 28.0037 80.4827 28.3342C80.7489 28.6555 80.882 29.0915 80.882 29.6423C80.882 30.0003 80.7994 30.3308 80.6342 30.6337C80.4689 30.9367 80.2349 31.1937 79.9319 31.4048C79.629 31.616 79.2664 31.772 78.8441 31.873V31.9281C79.7254 32.0107 80.3771 32.2586 80.7994 32.6716C81.2217 33.0756 81.4328 33.6263 81.4328 34.324C81.4328 34.939 81.2722 35.4485 80.9509 35.8524C80.6296 36.2563 80.1798 36.5547 79.6015 36.7475C79.0231 36.9402 78.3392 37.0366 77.5498 37.0366H74.1349ZM77.4534 36.4032C78.0593 36.4032 78.5779 36.3298 79.0094 36.1829C79.4408 36.036 79.7713 35.8111 80.0008 35.5082C80.2303 35.1961 80.345 34.7922 80.345 34.2965C80.345 33.8834 80.2486 33.53 80.0559 33.2362C79.8631 32.9333 79.5647 32.7038 79.1608 32.5477C78.7569 32.3917 78.2383 32.3136 77.6049 32.3136C77.0174 32.3136 76.6089 32.3274 76.3794 32.3549V36.3344C76.4803 36.3435 76.6272 36.3573 76.82 36.3757C77.0128 36.394 77.2239 36.4032 77.4534 36.4032ZM77.2882 31.694C77.8022 31.694 78.2429 31.616 78.61 31.4599C78.9864 31.3039 79.2756 31.079 79.4775 30.7852C79.6887 30.4823 79.7942 30.1197 79.7942 29.6974C79.7942 29.2843 79.7116 28.9584 79.5464 28.7198C79.3811 28.4719 79.1241 28.2929 78.7753 28.1828C78.4265 28.0726 77.9766 28.0175 77.4259 28.0175H76.3794V31.6665C76.4712 31.6756 76.5859 31.6848 76.7236 31.694C76.8613 31.694 77.0495 31.694 77.2882 31.694ZM85.8477 37.2294C85.2051 37.2294 84.6497 37.0871 84.1816 36.8025C83.7226 36.5088 83.3646 36.0911 83.1076 35.5495C82.8597 34.9987 82.7358 34.347 82.7358 33.5942C82.7358 32.8507 82.8597 32.2035 83.1076 31.6527C83.3554 31.1019 83.7088 30.6705 84.1678 30.3584C84.636 30.0462 85.1868 29.8902 85.8202 29.8902C86.3342 29.8902 86.7749 29.9912 87.1421 30.1931C87.5092 30.3951 87.7892 30.6796 87.982 31.0468C88.1748 31.4048 88.2712 31.8225 88.2712 32.2999C88.2712 32.4926 88.262 32.6992 88.2436 32.9195C88.2253 33.1306 88.1931 33.351 88.1472 33.5804H83.7685C83.7777 34.223 83.8787 34.7555 84.0714 35.1777C84.2642 35.6 84.5304 35.9121 84.8701 36.1141C85.2097 36.316 85.6044 36.417 86.0543 36.417C86.4031 36.417 86.7381 36.3481 87.0594 36.2104C87.3899 36.0727 87.6928 35.8754 87.9682 35.6183L88.3538 36.0177C88.0417 36.4032 87.6607 36.7016 87.2109 36.9127C86.7703 37.1238 86.3159 37.2294 85.8477 37.2294ZM83.7685 32.9333H87.266C87.2843 32.8139 87.2935 32.6992 87.2935 32.589C87.3027 32.4789 87.3073 32.3549 87.3073 32.2173C87.3073 31.694 87.1742 31.2809 86.908 30.978C86.6509 30.6659 86.27 30.5098 85.7651 30.5098C85.3704 30.5098 85.0353 30.6016 84.7599 30.7852C84.4845 30.9688 84.2596 31.2442 84.0852 31.6114C83.92 31.9694 83.8144 32.41 83.7685 32.9333ZM92.1581 37.0366L89.9412 31.3911C89.8861 31.2258 89.8356 31.1019 89.7897 31.0193C89.7438 30.9275 89.6887 30.8586 89.6245 30.8127C89.5602 30.7577 89.4684 30.721 89.3491 30.7026L88.8809 30.6062L88.9911 30.083H91.8964V30.5787L91.2493 30.6613C91.0657 30.6888 90.9509 30.7531 90.905 30.8541C90.8683 30.9459 90.8959 31.1111 90.9877 31.3498L92.7089 35.9901H92.7639L94.4438 31.4324C94.5264 31.2029 94.5448 31.0331 94.4989 30.9229C94.453 30.8036 94.3291 30.7255 94.1271 30.6888L93.5488 30.5787L93.659 30.083H96.3165V30.5787L95.8346 30.6751C95.6785 30.7026 95.5592 30.7623 95.4765 30.8541C95.4031 30.9459 95.3113 31.1386 95.2012 31.4324L93.0393 37.0366H92.1581ZM99.9132 37.2294C99.2706 37.2294 98.7152 37.0871 98.247 36.8025C97.7881 36.5088 97.43 36.0911 97.173 35.5495C96.9252 34.9987 96.8012 34.347 96.8012 33.5942C96.8012 32.8507 96.9252 32.2035 97.173 31.6527C97.4209 31.1019 97.7743 30.6705 98.2333 30.3584C98.7014 30.0462 99.2522 29.8902 99.8856 29.8902C100.4 29.8902 100.84 29.9912 101.208 30.1931C101.575 30.3951 101.855 30.6796 102.047 31.0468C102.24 31.4048 102.337 31.8225 102.337 32.2999C102.337 32.4926 102.327 32.6992 102.309 32.9195C102.291 33.1306 102.259 33.351 102.213 33.5804H97.834C97.8431 34.223 97.9441 34.7555 98.1369 35.1777C98.3297 35.6 98.5959 35.9121 98.9355 36.1141C99.2752 36.316 99.6699 36.417 100.12 36.417C100.469 36.417 100.804 36.3481 101.125 36.2104C101.455 36.0727 101.758 35.8754 102.034 35.6183L102.419 36.0177C102.107 36.4032 101.726 36.7016 101.276 36.9127C100.836 37.1238 100.381 37.2294 99.9132 37.2294ZM97.834 32.9333H101.331C101.35 32.8139 101.359 32.6992 101.359 32.589C101.368 32.4789 101.373 32.3549 101.373 32.2173C101.373 31.694 101.24 31.2809 100.973 30.978C100.716 30.6659 100.335 30.5098 99.8305 30.5098C99.4358 30.5098 99.1008 30.6016 98.8254 30.7852C98.55 30.9688 98.3251 31.2442 98.1507 31.6114C97.9854 31.9694 97.8799 32.41 97.834 32.9333ZM103.634 37.0366V36.5409L104.295 36.4308C104.442 36.4032 104.538 36.3481 104.584 36.2655C104.63 36.1737 104.653 36.0131 104.653 35.7836V31.6252C104.653 31.3039 104.626 31.0881 104.571 30.978C104.515 30.8678 104.387 30.799 104.185 30.7714L103.51 30.6751L103.579 30.1518L105.3 29.9866L105.452 30.083L105.548 31.2947H105.576C105.842 30.8449 106.14 30.5006 106.471 30.262C106.801 30.0141 107.173 29.8902 107.586 29.8902C107.99 29.8902 108.311 30.0003 108.55 30.2207C108.789 30.4318 108.908 30.721 108.908 31.0881C108.908 31.2993 108.876 31.4737 108.812 31.6114C108.747 31.7491 108.656 31.8501 108.536 31.9143C108.417 31.9786 108.27 32.0107 108.096 32.0107C107.894 32.0107 107.733 31.9648 107.614 31.873C107.494 31.7812 107.435 31.6527 107.435 31.4875C107.435 31.4232 107.444 31.3544 107.462 31.2809C107.481 31.2075 107.513 31.1249 107.559 31.0331C107.604 30.9321 107.664 30.8219 107.738 30.7026C107.499 30.5924 107.256 30.5787 107.008 30.6613C106.76 30.7347 106.53 30.877 106.319 31.0881C106.117 31.2901 105.952 31.5379 105.824 31.8317C105.695 32.1255 105.631 32.4284 105.631 32.7405V35.8111C105.631 36.0131 105.654 36.16 105.7 36.2518C105.746 36.3344 105.837 36.3849 105.975 36.4032L107.09 36.5547V37.0366H103.634ZM111.802 37.2294C111.215 37.2294 110.742 37.0688 110.384 36.7475C110.035 36.4262 109.861 35.9764 109.861 35.398C109.861 34.884 109.985 34.4709 110.233 34.1588C110.48 33.8467 110.898 33.6126 111.486 33.4565C112.073 33.3005 112.872 33.1995 113.881 33.1536V32.1209C113.881 31.7353 113.817 31.4278 113.689 31.1983C113.569 30.9596 113.395 30.7852 113.165 30.6751C112.936 30.5557 112.647 30.496 112.298 30.496C112.023 30.496 111.756 30.5419 111.499 30.6337C111.242 30.7164 111.05 30.8265 110.921 30.9642C111.013 31.1111 111.086 31.235 111.141 31.336C111.196 31.4278 111.233 31.5058 111.251 31.5701C111.27 31.6343 111.279 31.694 111.279 31.7491C111.279 31.9051 111.215 32.0382 111.086 32.1484C110.958 32.2494 110.797 32.2999 110.604 32.2999C110.402 32.2999 110.237 32.2448 110.109 32.1346C109.989 32.0153 109.93 31.8455 109.93 31.6252C109.93 31.2947 110.049 31.0009 110.288 30.7439C110.535 30.4777 110.848 30.2711 111.224 30.1243C111.609 29.9682 112.013 29.8902 112.436 29.8902C113.014 29.8902 113.478 29.982 113.826 30.1656C114.184 30.3492 114.446 30.62 114.611 30.978C114.777 31.3268 114.859 31.7629 114.859 32.2861V35.7423C114.859 35.9901 114.914 36.1737 115.024 36.2931C115.135 36.4124 115.3 36.4721 115.52 36.4721C115.621 36.4721 115.727 36.4629 115.837 36.4445C115.956 36.417 116.08 36.3803 116.209 36.3344L116.346 36.7475C116.19 36.8943 116.002 37.0091 115.782 37.0917C115.571 37.1835 115.364 37.2294 115.162 37.2294C114.813 37.2294 114.533 37.1284 114.322 36.9265C114.12 36.7245 114.001 36.417 113.964 36.0039C113.799 36.2793 113.606 36.5088 113.386 36.6924C113.165 36.8668 112.922 36.9999 112.656 37.0917C112.399 37.1835 112.114 37.2294 111.802 37.2294ZM112.147 36.4721C112.449 36.4721 112.729 36.4078 112.986 36.2793C113.253 36.1416 113.468 35.9534 113.634 35.7147C113.799 35.4761 113.881 35.2053 113.881 34.9023V33.7732C113.175 33.7732 112.596 33.8283 112.147 33.9385C111.706 34.0394 111.38 34.2001 111.169 34.4204C110.967 34.6407 110.866 34.9207 110.866 35.2603C110.866 35.6734 110.981 35.9809 111.21 36.1829C111.44 36.3757 111.752 36.4721 112.147 36.4721ZM119.711 40.2036C119.27 40.2036 118.866 40.1669 118.499 40.0935C118.132 40.0292 117.811 39.9237 117.535 39.7768C117.269 39.6391 117.062 39.4601 116.916 39.2398C116.769 39.0194 116.695 38.7578 116.695 38.4549C116.695 38.2254 116.741 38.0143 116.833 37.8215C116.925 37.6287 117.058 37.4451 117.232 37.2707C117.416 37.1055 117.636 36.9494 117.893 36.8025V36.7612C117.682 36.6511 117.512 36.5088 117.384 36.3344C117.264 36.16 117.205 35.9626 117.205 35.7423C117.205 35.5036 117.278 35.2741 117.425 35.0538C117.572 34.8335 117.788 34.5719 118.072 34.2689V34.2276C117.723 34.0165 117.466 33.7549 117.301 33.4427C117.136 33.1306 117.053 32.7589 117.053 32.3274C117.053 31.8409 117.159 31.414 117.37 31.0468C117.59 30.6796 117.902 30.3951 118.306 30.1931C118.71 29.9912 119.188 29.8902 119.738 29.8902C119.94 29.8902 120.138 29.9085 120.33 29.9453C120.532 29.982 120.721 30.0325 120.895 30.0967C121.069 30.161 121.221 30.2344 121.349 30.317C121.505 29.8489 121.707 29.5138 121.955 29.3119C122.203 29.1099 122.465 29.0089 122.74 29.0089C122.915 29.0089 123.061 29.0411 123.181 29.1053C123.3 29.1604 123.392 29.2384 123.456 29.3394C123.52 29.4312 123.552 29.5368 123.552 29.6561C123.552 29.8397 123.488 30.0049 123.36 30.1518C123.231 30.2895 123.08 30.3584 122.905 30.3584C122.804 30.3584 122.708 30.3308 122.616 30.2757C122.534 30.2207 122.451 30.1334 122.368 30.0141L122.217 29.7525C122.116 29.8718 122.029 30.0049 121.955 30.1518C121.891 30.2987 121.836 30.4685 121.79 30.6613C121.974 30.8632 122.116 31.1019 122.217 31.3773C122.327 31.6435 122.382 31.9235 122.382 32.2173C122.382 32.7221 122.272 33.1536 122.052 33.5116C121.831 33.8696 121.519 34.145 121.115 34.3378C120.721 34.5305 120.257 34.6269 119.725 34.6269C119.504 34.6269 119.307 34.6132 119.132 34.5856C118.958 34.5581 118.802 34.526 118.664 34.4892C118.517 34.6453 118.384 34.8014 118.265 34.9574C118.155 35.1135 118.1 35.2787 118.1 35.4531C118.1 35.5816 118.132 35.6964 118.196 35.7974C118.27 35.8983 118.38 35.9764 118.527 36.0314C118.683 36.0865 118.875 36.1141 119.105 36.1141H121.005C121.712 36.1141 122.254 36.2472 122.63 36.5134C123.006 36.7704 123.194 37.1789 123.194 37.7389C123.194 38.0877 123.13 38.3952 123.002 38.6614C122.882 38.9368 122.708 39.1709 122.478 39.3637C122.258 39.5565 122.001 39.7125 121.707 39.8319C121.414 39.9604 121.097 40.0522 120.757 40.1072C120.418 40.1715 120.069 40.2036 119.711 40.2036ZM119.766 39.5014C120.243 39.5014 120.665 39.4417 121.033 39.3224C121.4 39.203 121.684 39.0286 121.886 38.7991C122.098 38.5696 122.203 38.2851 122.203 37.9454C122.203 37.6333 122.098 37.3992 121.886 37.2432C121.675 37.0963 121.349 37.0229 120.909 37.0229H118.444C118.224 37.1697 118.035 37.3487 117.879 37.5599C117.733 37.771 117.659 38.0097 117.659 38.2759C117.659 38.689 117.829 38.9965 118.169 39.1985C118.517 39.4004 119.05 39.5014 119.766 39.5014ZM119.725 34.0073C120.257 34.0073 120.665 33.8558 120.95 33.5529C121.244 33.25 121.391 32.8185 121.391 32.2586C121.391 31.7078 121.239 31.2809 120.936 30.978C120.643 30.6659 120.216 30.5098 119.656 30.5098C119.132 30.5098 118.729 30.6613 118.444 30.9642C118.169 31.258 118.031 31.6894 118.031 32.2586C118.031 32.791 118.182 33.2178 118.485 33.5391C118.797 33.8512 119.21 34.0073 119.725 34.0073ZM127.116 37.2294C126.474 37.2294 125.918 37.0871 125.45 36.8025C124.991 36.5088 124.633 36.0911 124.376 35.5495C124.128 34.9987 124.004 34.347 124.004 33.5942C124.004 32.8507 124.128 32.2035 124.376 31.6527C124.624 31.1019 124.977 30.6705 125.436 30.3584C125.905 30.0462 126.455 29.8902 127.089 29.8902C127.603 29.8902 128.043 29.9912 128.411 30.1931C128.778 30.3951 129.058 30.6796 129.251 31.0468C129.443 31.4048 129.54 31.8225 129.54 32.2999C129.54 32.4926 129.531 32.6992 129.512 32.9195C129.494 33.1306 129.462 33.351 129.416 33.5804H125.037C125.046 34.223 125.147 34.7555 125.34 35.1777C125.533 35.6 125.799 35.9121 126.139 36.1141C126.478 36.316 126.873 36.417 127.323 36.417C127.672 36.417 128.007 36.3481 128.328 36.2104C128.658 36.0727 128.961 35.8754 129.237 35.6183L129.622 36.0177C129.31 36.4032 128.929 36.7016 128.479 36.9127C128.039 37.1238 127.584 37.2294 127.116 37.2294ZM125.037 32.9333H128.535C128.553 32.8139 128.562 32.6992 128.562 32.589C128.571 32.4789 128.576 32.3549 128.576 32.2173C128.576 31.694 128.443 31.2809 128.177 30.978C127.919 30.6659 127.539 30.5098 127.034 30.5098C126.639 30.5098 126.304 30.6016 126.028 30.7852C125.753 30.9688 125.528 31.2442 125.354 31.6114C125.188 31.9694 125.083 32.41 125.037 32.9333ZM130.893 37.2294L130.714 34.9161L131.279 34.8748C131.398 35.2512 131.549 35.5633 131.733 35.8111C131.926 36.059 132.155 36.2426 132.421 36.3619C132.688 36.4812 132.981 36.5409 133.303 36.5409C133.771 36.5409 134.124 36.4216 134.363 36.1829C134.611 35.9442 134.735 35.6275 134.735 35.2328C134.735 34.9941 134.684 34.7968 134.583 34.6407C134.482 34.4847 134.303 34.347 134.046 34.2276C133.789 34.0991 133.436 33.9798 132.986 33.8696C132.665 33.787 132.376 33.6906 132.118 33.5804C131.861 33.4611 131.641 33.328 131.458 33.1811C131.283 33.0251 131.145 32.8415 131.044 32.6303C130.953 32.4192 130.907 32.1622 130.907 31.8592C130.907 31.4737 130.994 31.134 131.168 30.8403C131.343 30.5374 131.595 30.3033 131.926 30.138C132.265 29.9728 132.66 29.8902 133.11 29.8902C133.422 29.8902 133.716 29.9407 133.991 30.0417C134.267 30.1334 134.501 30.262 134.693 30.4272L134.804 29.8902H135.272L135.423 32.0245L134.804 31.9694C134.712 31.5104 134.514 31.157 134.211 30.9091C133.909 30.6613 133.546 30.5374 133.124 30.5374C132.711 30.5374 132.389 30.6337 132.16 30.8265C131.93 31.0101 131.816 31.2855 131.816 31.6527C131.816 31.9097 131.875 32.1209 131.995 32.2861C132.123 32.4422 132.307 32.5753 132.545 32.6854C132.793 32.7864 133.096 32.8874 133.454 32.9884C133.803 33.0801 134.115 33.1857 134.39 33.3051C134.666 33.4244 134.895 33.5621 135.079 33.7181C135.272 33.8742 135.419 34.0624 135.52 34.2827C135.621 34.4938 135.671 34.7509 135.671 35.0538C135.671 35.4577 135.575 35.8249 135.382 36.1554C135.189 36.4858 134.918 36.7475 134.569 36.9402C134.221 37.133 133.803 37.2294 133.316 37.2294C132.958 37.2294 132.623 37.1789 132.311 37.0779C132.008 36.9861 131.738 36.853 131.499 36.6786L131.375 37.2294H130.893Z" fill="white"/>
<path d="M138.823 35.9697V35.6699L139.315 35.6413C139.396 35.6365 139.456 35.6127 139.494 35.5699C139.532 35.5223 139.551 35.4247 139.551 35.2772V31.643C139.551 31.524 139.534 31.4407 139.501 31.3931C139.473 31.3455 139.404 31.317 139.294 31.3074L138.823 31.2789V30.9719H142.214L142.486 32.1571L142.186 32.2356C142.105 32.0071 142.026 31.8334 141.95 31.7144C141.879 31.5954 141.8 31.5097 141.714 31.4574C141.629 31.4003 141.526 31.3669 141.407 31.3574C141.288 31.3479 141.146 31.3431 140.979 31.3431H140.072V33.3351H140.929C141.096 33.3351 141.217 33.3232 141.293 33.2994C141.374 33.2756 141.436 33.2209 141.479 33.1352C141.522 33.0495 141.562 32.9186 141.6 32.7425L141.879 32.7068V34.2776L141.607 34.3204C141.579 34.1158 141.538 33.9706 141.486 33.8849C141.438 33.7945 141.369 33.7397 141.279 33.7207C141.189 33.6969 141.06 33.685 140.893 33.685H140.072V35.2914C140.072 35.4152 140.094 35.5033 140.137 35.5556C140.179 35.6032 140.251 35.6318 140.351 35.6413L141.022 35.677V35.9697H138.823ZM143.165 35.9697V35.6841L146.464 31.3503H144.479C144.36 31.3503 144.255 31.3598 144.165 31.3788C144.079 31.3931 144.001 31.4336 143.929 31.5002C143.858 31.5621 143.791 31.6573 143.729 31.7858C143.667 31.9143 143.605 32.0904 143.544 32.3141L143.237 32.3427L143.329 30.9719H147.163V31.2717L143.893 35.5985H145.75C145.912 35.5985 146.052 35.5866 146.171 35.5628C146.29 35.5342 146.392 35.4842 146.478 35.4128C146.564 35.3414 146.64 35.2391 146.707 35.1058C146.778 34.9678 146.847 34.7893 146.914 34.5703H147.228L147.078 35.9697H143.165ZM148.194 35.9697V35.6699L148.686 35.6413C148.772 35.6365 148.832 35.6104 148.865 35.5628C148.903 35.5152 148.922 35.42 148.922 35.2772V31.643C148.922 31.5288 148.908 31.4478 148.879 31.4003C148.851 31.3479 148.779 31.317 148.665 31.3074L148.194 31.2789V30.9719H151.621L151.878 32.1357L151.571 32.2285C151.495 32.0143 151.421 31.8477 151.35 31.7287C151.283 31.6049 151.207 31.5169 151.121 31.4645C151.04 31.4074 150.94 31.3741 150.821 31.3646C150.707 31.3503 150.559 31.3431 150.379 31.3431H149.443V33.2495H150.307C150.469 33.2495 150.59 33.2376 150.671 33.2138C150.752 33.19 150.812 33.1376 150.85 33.0567C150.888 32.971 150.928 32.8401 150.971 32.664L151.25 32.6283V34.1848L150.971 34.2276C150.938 34.0325 150.897 33.892 150.85 33.8064C150.802 33.7159 150.733 33.6588 150.643 33.635C150.552 33.6112 150.419 33.5993 150.243 33.5993H149.443V35.5985H150.636C150.817 35.5985 150.964 35.5842 151.078 35.5556C151.197 35.5271 151.295 35.4795 151.371 35.4128C151.452 35.3462 151.519 35.2534 151.571 35.1344C151.628 35.0154 151.678 34.8607 151.721 34.6703H152.035L151.871 35.9697H148.194Z" fill="white"/>
<g filter="url(#filter0_d_343_659)">
<path d="M14.0687 4.96525C16.183 5.35611 19.2426 6.84824 19.2426 6.84824C21.58 8.02899 24.1067 9.75708 22.623 12.659C22.3477 13.196 21.7383 13.4129 21.9896 14.2494C22.7952 14.1909 23.6764 15.4233 24.2616 15.5954C24.8468 15.7675 25.642 15.5506 26.2858 15.6367C28.4304 15.9224 30.9571 16.3872 33.0088 17.1755C34.9847 17.9397 35.0949 18.5972 37.6457 18.3906C40.6062 18.1497 43.6458 17.3648 46.596 17.0137C47.2397 16.9379 48.0762 17.1514 48.6408 16.993C49.3705 16.7865 49.312 14.635 49.6872 13.9086C50.0866 13.1341 51.9386 12.3045 52.7923 12.1943C55.5325 11.8432 59.4052 12.3767 62.0179 13.2993C64.6307 14.2219 69.1368 16.5076 66.7341 19.771C62.2004 22.463 55.8836 20.5731 51.467 18.2908C46.9574 18.6936 42.4444 19.2237 37.9349 19.8846L37.8178 20.463C38.286 21.5576 37.4116 23.4165 36.4478 24.0913V24.4045C36.5063 24.6179 38.5063 26.2875 38.8402 26.4975C39.2327 26.7419 42.8196 26.8211 43.842 27.0035C45.3567 27.2755 47.8387 28.0053 49.1778 28.7247C50.1244 27.7058 53.7699 30.9141 52.4618 31.8711L52.2759 33.1999C52.1176 33.6439 52.1038 33.5957 51.9317 33.8883C47.6218 37.3962 37.3221 35.1414 34.3754 30.4459C34.0863 30.2015 34.1379 29.7265 34.3754 29.4132C33.4253 28.5939 34.2928 27.1137 35.4081 27.0035L35.6422 26.7006C36.8574 27.6335 33.4804 24.8933 32.699 24.6283C28.2135 24.3873 22.5508 23.9432 19.9139 19.7745C19.6006 19.234 19.6454 18.3218 19.9139 17.709C20.0653 17.4577 20.8674 16.3665 20.9466 16.3321C20.9397 15.4233 19.3734 14.4663 18.5163 14.0291C13.7107 13.7847 7.21484 13.1857 4.77417 8.40765V7.37493C4.92219 5.98076 6.10283 5.17868 8.02025 4.96525C8.02025 4.96525 11.746 4.53587 14.0687 4.96525Z" fill="white"/>
</g>
<path d="M4.77417 8.40527C5.40069 8.53264 5.40413 9.24178 5.80345 9.61356C7.59006 11.2831 12.165 12.9837 14.585 13.2246C15.869 13.352 17.3114 12.9768 18.5576 13.383C19.6591 13.741 20.6161 15.5311 21.9862 15.6343C22.2272 16.7772 21.4182 16.1231 20.9535 16.3228C20.2925 16.0199 19.2942 14.8219 18.6746 14.6429C17.6832 14.3538 15.1634 14.4674 13.8965 14.2574C10.5436 13.7031 6.757 12.3021 4.77417 9.438V8.40527Z" fill="#969696"/>
<path d="M19.9212 19.7676C20.799 21.2616 22.1312 22.3563 23.9178 23.0482L23.7078 23.5542C24.3998 24.6386 23.3636 26.0121 22.3137 26.5388L24.954 28.6077C27.7871 28.6938 30.5376 29.1826 33.2054 30.0742C33.4705 29.3065 33.6047 28.9416 34.3793 29.4098C34.3931 29.754 34.3621 30.1017 34.3793 30.4425C35.2089 32.1844 36.7718 33.2308 38.5412 33.8815L38.8544 34.5734C37.2262 34.2877 38.1212 35.1379 37.6599 35.9607C37.3501 36.5149 36.5101 36.7593 35.9559 36.9865C35.5669 37.1449 35.7631 37.3686 35.7563 37.6681C37.1504 37.8609 38.5618 40.1122 39.7667 40.3704C40.882 40.6114 42.3244 40.305 43.5017 40.422C45.6704 40.6355 49.7152 42.1467 51.4261 43.5133C54.2936 45.806 51.8013 47.9781 49.0095 48.3396C45.6256 48.7802 39.5429 47.5444 36.7959 45.4032C35.6805 44.5323 34.6581 43.5409 35.1022 42.0055C35.3191 41.2551 37.0127 40.9797 36.7855 40.2499C35.381 39.1415 34.0006 37.5579 32.1417 37.3204C29.4085 36.9727 28.1967 37.2688 25.3258 36.2189C24.1553 35.7886 20.9608 34.267 20.4272 33.1999C19.8936 32.1327 20.293 31.1688 21.1157 30.4287C21.5839 30.0088 22.503 29.9433 22.3309 29.0621C21.0778 28.8108 19.9453 26.9829 18.6647 26.7006C17.6423 26.4768 16.348 26.7557 15.2739 26.649C14.4305 26.5663 12.792 26.1326 11.9073 25.8847C9.97951 25.3477 5.24965 23.4165 5.44587 20.9655C5.64208 20.1497 6.4717 19.5679 7.1774 19.2409C9.10514 18.3424 13.773 18.6213 15.9005 19.1411C17.1191 19.4371 18.2723 20.2633 19.5769 20.1118C19.632 19.4888 19.4978 18.8037 19.5666 18.1979C19.6286 17.6608 19.904 17.7297 19.9212 17.7021C19.9591 18.3837 19.8661 19.0894 19.9212 19.7676Z" fill="#C4C4C4"/>
<path d="M49.1814 28.7166L50.7718 26.6925C52.0214 25.9042 53.1884 26.0763 54.5171 25.9661C55.6325 25.8698 55.5085 25.8904 56.5826 25.9661C59.6016 26.183 62.8787 26.6684 65.4881 28.4206C68.9718 30.7614 67.5329 33.3983 63.8151 33.8837C60.9338 34.2589 56.9819 33.4121 54.2452 32.4344C53.6462 32.221 53.2297 31.7528 52.6272 31.8148C52.913 32.5515 52.3587 32.9818 52.283 33.1918C52.2348 32.5102 52.4448 31.7563 52.1212 31.116C51.8217 30.5239 49.8389 29.0678 49.1848 28.7166H49.1814Z" fill="#C4C4C4"/>
<path d="M66.7379 19.7658C65.9117 20.8881 64.8962 21.37 63.4814 21.5008C59.2231 21.9001 55.0234 20.9535 51.371 18.7813L37.8217 20.4543C37.7769 20.351 36.8578 20.1307 37.1332 19.4216L50.025 17.6866C51.6773 17.3321 52.6447 18.4061 53.9906 18.9156C57.0027 20.055 60.2421 20.6161 63.4676 20.4543L66.7379 19.7658Z" fill="#969696"/>
<path d="M51.9354 33.8813C51.8906 33.9605 51.9767 34.2738 51.7736 34.5664C51.3192 35.217 49.7942 35.8504 49.0128 35.9502C45.684 36.3771 41.9593 35.7712 38.8577 34.5733C38.4102 34.4012 37.7802 34.1912 37.2398 33.9536C35.7664 33.3099 34.4721 32.1085 34.3826 30.4424C38.2966 34.26 43.6805 35.2583 49.0128 34.9175L51.9388 33.8848L51.9354 33.8813Z" fill="#969696"/>
<path d="M19.9212 19.7686C21.842 21.5448 24.4892 22.877 27.0401 23.4932C28.9162 23.9476 31.4911 23.5655 32.7889 23.9408C33.6873 24.1989 35.4981 26.2437 36.4447 26.8255C36.5549 27.7962 35.8389 27.2248 35.412 26.9976C34.7855 26.6637 33.3982 25.39 33.1366 25.3143C32.4102 25.1008 31.2536 25.3728 30.4171 25.2798C28.5995 25.0733 25.4359 24.2815 23.7044 23.5586C23.6872 23.5518 23.6596 23.3624 23.4668 23.2764C21.6079 22.4467 20.1105 22.1094 19.9177 19.772L19.9212 19.7686Z" fill="#969696"/>
<defs>
<filter id="filter0_d_343_659" x="-4.76837e-07" y="0.000243664" width="81.7395" height="49.9209" filterUnits="userSpaceOnUse" color-interpolation-filters="sRGB">
<feFlood flood-opacity="0" result="BackgroundImageFix"/>
<feColorMatrix in="SourceAlpha" type="matrix" values="0 0 0 0 0 0 0 0 0 0 0 0 0 0 0 0 0 0 127 0" result="hardAlpha"/>
<feOffset dx="4.77417" dy="4.77417"/>
<feGaussianBlur stdDeviation="4.77417"/>
<feComposite in2="hardAlpha" operator="out"/>
<feColorMatrix type="matrix" values="0 0 0 0 0 0 0 0 0 0 0 0 0 0 0 0 0 0 0.23 0"/>
<feBlend mode="normal" in2="BackgroundImageFix" result="effect1_dropShadow_343_659"/>
<feBlend mode="normal" in="SourceGraphic" in2="effect1_dropShadow_343_659" result="shape"/>
</filter>
</defs>
</svg>
