<svg viewBox="0 0 106 30" aria-label="Christian Dior Couture" role="img" style="fill:#FFFFFF" xmlns="http://www.w3.org/2000/svg"><path d="M8.97806 27.4239C8.97806 28.0373 9.25693 28.2261 9.67223 28.2261H13.3467C22.396 28.2261 25.6702 21.3611 25.6702 14.4831C25.6702 7.60515 22.1873 0.932951 14.5475 0.932951H9.54784C9.04025 0.932951 8.99411 1.36438 8.99411 1.55325L8.97806 27.4239ZM0.333041 0.394165H14.1753C26.0936 0.394165 30.7361 7.33079 30.7361 14.6611C30.7361 21.9913 24.7544 28.7659 13.3949 28.7659H0.343072C0.111348 28.7659 0.0100314 28.6178 0.0100314 28.4856C0.0100314 28.3365 0.151473 28.2122 0.383198 28.2122H2.82583C3.57417 28.2122 4.08075 27.7699 4.08075 26.9269V2.25705C4.08075 1.64769 3.77279 0.963767 2.77567 0.963767H0.294922C0.113354 0.963767 0 0.829568 0 0.690398C0 0.551228 0.0471474 0.395159 0.333041 0.395159"></path><path d="M31.9407 0.394165C31.7152 0.394165 31.5241 0.468733 31.5241 0.661617C31.5241 0.832627 31.6283 0.932051 31.8365 0.932051H34.2851C34.8522 0.932051 35.4001 1.31285 35.4001 2.38265V26.9514C35.4001 27.4555 35.0069 28.231 34.3124 28.231H31.8709C31.5959 28.231 31.5615 28.4478 31.5615 28.5352C31.5615 28.6227 31.5454 28.7659 31.8638 28.7659H43.7132C43.8871 28.7659 44.1338 28.7411 44.1338 28.569C44.1338 28.397 44.0893 28.23 43.7779 28.23H41.4922C41.1626 28.23 40.2689 28.0272 40.2689 27.0528V2.11122C40.2689 1.40233 40.7147 0.933045 41.5468 0.933045H43.782C43.9822 0.933045 44.0792 0.832627 44.0792 0.669571C44.0792 0.528388 43.966 0.395159 43.7193 0.395159H31.9407V0.394165Z"></path><path d="M60.2899 29.5539C69.7115 29.5539 75.658 22.9376 75.658 14.777C75.658 6.61634 69.7665 0 60.2899 0C50.8134 0 44.9219 6.61634 44.9219 14.777C44.9219 22.9376 51.0585 29.5539 60.2899 29.5539ZM50.136 14.777C50.136 6.93831 53.666 0.583327 60.2899 0.583327C66.9138 0.583327 70.4449 6.93831 70.4449 14.777C70.4449 22.6156 67.1049 28.9706 60.2899 28.9706C53.4749 28.9706 50.136 22.6156 50.136 14.777Z"></path><path d="M86.5271 0.936091H88.2953C91.3242 0.936091 96.2567 2.13214 96.2567 7.90601C96.2567 13.1971 91.8825 14.9911 87.8495 14.9911H85.2683V2.12412C85.2683 1.4099 85.7071 0.937093 86.5271 0.937093M105.573 28.8027C101.896 29.1944 99.8708 23.113 98.0021 20.2281C96.6199 18.0944 93.6646 15.9127 90.7381 15.497C95.5254 15.2215 100.913 13.6699 100.913 8.1965C100.913 3.75291 98.2041 0.394165 88.2336 0.394165H76.7396C76.5904 0.394165 76.4461 0.470295 76.4461 0.663626C76.4461 0.83592 76.5864 0.937093 76.7396 0.937093H79.3805C79.9378 0.937093 80.4781 1.32075 80.4781 2.39859V27.1519C80.4781 27.6588 80.091 28.4411 79.4074 28.4411H76.7884C76.5775 28.4411 76.4839 28.6204 76.4839 28.7106C76.4839 28.8007 76.5595 28.981 76.7805 28.981H88.9769C89.147 28.981 89.2893 28.8909 89.2893 28.7186C89.2893 28.5463 89.1799 28.4411 88.9391 28.4411H86.4723C86.1479 28.4411 85.2683 28.2358 85.2683 27.2541V15.5551H86.528C92.5591 15.5551 93.0019 22.1393 96.005 25.9118C98.5772 29.1443 101.929 29.554 103.827 29.554C104.637 29.554 105.205 29.527 105.706 29.4008C106.085 29.3046 106.155 28.7406 105.572 28.8037"></path></svg>