<svg id="Layer_1" xmlns="http://www.w3.org/2000/svg" version="1.1" viewBox="0 0 924.11 177.94">
  <defs></defs>
  <path class="st1" d="M77.15 75.62c-.41 0-1.11.04-1.11.32 0 10.35-3.96 27.72-30.47 27.72H29.86c-.77 0-.91-.17-.91-.48l-.1-48.34h5.33c10.52 0 17.06 6.26 17.06 16.33 0 .62 2.07.62 2.07 0V35.99c0-.27-.65-.31-1.03-.31s-1.03.04-1.03.31c0 10.23-6.38 16.34-17.06 16.34l-5.24.1V6.73c0-.31.15-.48.91-.48h15.28c21.38 0 23.69 17.38 23.69 24.85 0 .4.98.42 1.18.42s1.18-.02 1.18-.42V4.28c0-.19-.18-.52-.53-.52H.31C.05 3.76 0 4.44 0 5s.05 1.25.31 1.25h11.97c.64 0 .77.19.77.48v96.45c0 .3-.13.48-.77.48H.31c-.26 0-.31.69-.31 1.25s.05 1.25.31 1.25h77.42c.34 0 .53-.19.53-.53V75.94c0-.27-.69-.32-1.1-.32ZM119.4 103.66h-7.93c-.77 0-.91-.17-.91-.48V.53c0-.19-.18-.53-.53-.53H89.27c-.39 0-.42.96-.42 1.26s.03 1.25.42 1.25h7.93c.77 0 .91.17.91.48v100.2c0 .31-.15.48-.91.48h-7.93c-.39 0-.42.96-.42 1.25s.03 1.25.42 1.25h30.13c.26 0 .31-.68.31-1.25s-.05-1.25-.31-1.25ZM145.06 17.93c4.51 0 8.17-3.79 8.17-8.45s-3.67-8.6-8.17-8.6-8.03 3.86-8.03 8.6 3.53 8.45 8.03 8.45ZM160.2 103.66h-8.07c-.64 0-.77-.18-.77-.48v-58.1c0-.35-.19-.53-.53-.53h-20.9c-.26 0-.31.68-.31 1.25s.05 1.25.31 1.25h7.93c.88 0 .91.15.91.48v55.65c0 .34-.04.48-.91.48h-7.93c-.26 0-.31.69-.31 1.25s.05 1.25.31 1.25h30.28c.26 0 .31-.68.31-1.25s-.05-1.25-.31-1.25ZM221.76 85.42c-.41 0-1.11.04-1.11.31 0 12.73-5.7 17.92-19.66 17.92h-14.85c-.51 0-.64-.08-.64-.28l36.49-57.7c.13-.52.13-.85 0-1.01h-.19s-.03-.02-.05-.02h-8.35l-37.21-.09c-.34 0-.53.19-.53.53V63.1c0 .52 2.36.52 2.36 0 0-11.85 4.58-16.05 17.49-16.05h11.54c.67 0 .73.13.64.28l-36.19 57.66c-.23.3-.29.61-.17.85.09.19.3.31.54.31h50.46c.49 0 .53-.2.53-.53v-19.9c0-.27-.7-.31-1.11-.31ZM292.28 100.45c-.07-.04-.12-.05-.14-.02-.03 0-.08-.03-.11-.02-.6 1.5-2.32 3.11-4.67 3.11-2.05 0-3.22-1.76-3.22-4.81V69.44c0-17.38-7.79-26.19-23.16-26.19-11.45 0-17.54 6.59-17.54 11.34 0 3.27 1.81 6.58 5.86 6.58 4.75 0 6.44-2.84 6.44-5.28 0-1.07-.3-1.78-.63-2.52-.33-.77-.67-1.56-.67-2.81 0-3.27 2.07-4.8 6.53-4.8 5.3 0 10.72 1.53 10.72 12.87v10.96c0 2.76-7.64 3.44-15.03 4.1l-1.46.14c-7.03.71-18.83 4.07-18.83 18.4 0 9.54 7.31 15.23 19.56 15.23 7.07 0 12.26-3.63 14.92-7.88.58-.88 1.08-1.79 1.45-2.75 1.18 6.45 5.6 10.62 11.31 10.62 5.4 0 9.13-2.93 9.89-5.67.05-.09.02-.2-.08-.36-.21-.34-.74-.85-1.15-.98Zm-20.59-27.08v16.98c0 6.64-5.41 14.03-13.17 14.03-6.54 0-9.85-4.09-9.85-12.16 0-13.06 4.39-15.04 9.29-16.06 1.16-.19 2.48-.34 3.86-.49 3.49-.38 7.44-.81 9.87-2.31Zm.67 23.32c.18 1.05.5 2.05.87 3.02-.37-.91-.7-1.87-.92-2.91.01-.04.04-.07.05-.1ZM335.37 43.25c-4.6 0-8.48 1.43-11.71 4.38-.55.48-1.09.98-1.6 1.53V.53c0-.13 0-.53-.53-.53h-20.76c-.26 0-.31.68-.31 1.26s.05 1.25.31 1.25h8.08c.6 0 .91.16.91.48v100.2c0 .11 0 .48-.91.48h-8.08c-.26 0-.31.69-.31 1.25s.05 1.25.31 1.25h20.76c.49 0 .53-.2.53-.53l-.1-2.87v-2.04c3.76 4.03 9.77 6.74 14.99 6.74 17.13 0 28.64-16.37 28.64-31.66s-12.93-32.54-30.23-32.54Zm0 2.5c2.68 0 7.65.39 10.75 3.01 4.47 3.77 6.74 12.87 6.74 27.03s-2.14 22.28-6.74 26.16c-2.6 2.19-5.08 3-9.16 3-5.37 0-12.33-2.87-14.9-9.13V53.33c2.19-4.98 8.35-7.58 13.31-7.58Zm-13.34 3.44-.07.07V28.67l.07 20.52Zm-.07 51.39c.58.63 1.26 1.23 1.97 1.81-.7-.54-1.36-1.11-1.97-1.73v-.09ZM405.13 43.25c-16.63 0-29.65 14.1-29.65 32.11s13.02 32.1 29.65 32.1c9.65 0 18.56-5.06 24.45-13.89l-.06-.32c-.23-.37-1-.97-1.4-.92-5.49 8.15-13.65 12.64-22.99 12.64-4.49 0-7.81-1-10.46-3.15-4.5-3.8-5.88-9.98-5.88-26.45 0-1.09-.01-2.2-.22-3.09v-.13h41.8c.34 0 .53-.19.53-.53 0-8.88-6.49-28.35-25.76-28.35Zm-16.58 26.48c0-.19.02-.37.03-.56 0 .19-.02.37-.03.56Zm.1 0c.59-12.22 2.11-17.48 6.02-20.83 2.66-2.15 5.98-3.15 10.47-3.15 3.59 0 6.3 1.03 8.3 3.14 3.42 3.29 4.69 8.48 5.1 20.4v.34l-27.75.09h-2.14Zm29.89 0h-1.41 1.41Zm-29.99 2.31h6.15l-6.15.02v-.02ZM471.93 93.64c-1.63 6.09-4.89 9.73-8.7 9.73-2.5 0-3.94-1.49-3.94-4.09V47.53c0-.3.13-.48.77-.48h11.97c.26 0 .31-.68.31-1.25s-.05-1.25-.31-1.25h-11.97c-.64 0-.77-.18-.77-.47V19.86c0-.25-1.19-.27-1.43-.27-.82 0-.92.14-.92.23-1.81 5.26-5.23 8.3-10.24 9.12v15.14c0 .33-.04.47-.91.47h-9.95c-.26 0-.31.68-.31 1.25s.05 1.25.31 1.25h9.95c.87 0 .91.15.91.48v45.7c0 9.44 4.16 14.22 12.35 14.22 7.47 0 12.35-4.29 14.51-12.78 0-.34-1.09-1.13-1.63-1.03ZM550.16 103.66h-7.93c-.7 0-.77-.13-.77-.48V67.43c0-15.14-8.98-24.18-24.03-24.18-4.68 0-10.17 1.75-13.7 6.29-1.08 1.35-1.98 2.96-2.64 4.83V.53c0-.13 0-.53-.53-.53H479.8c-.26 0-.31.68-.31 1.26s.06 1.25.31 1.25h8.07c.6 0 .91.16.91.48v100.2c0 .11 0 .48-.91.48h-8.07c-.26 0-.31.69-.31 1.25s.06 1.25.31 1.25h30.13c.26 0 .31-.68.31-1.25s-.05-1.25-.31-1.25H502c-.91 0-.91-.36-.91-.48v-43.8c3.18-9.56 8.07-13.63 16.34-13.63 4.37 0 11.3 3.97 11.3 14.61v42.82c0 .34-.19.48-.63.48h-7.93c-.39 0-.42.96-.42 1.25s.03 1.25.42 1.25h29.99c.26 0 .31-.68.31-1.25s-.05-1.25-.31-1.25Zm-49.07-49.27c-.03.08-.07.13-.09.21V28.1l.09 26.29ZM659.29 103.66h-11.97c-.53 0-.89-.26-.91-.36L609.94 1.8c-.12-.37-1.24-.39-1.58-.39s-1.46.03-1.58.39l-33.02 95.87c-1.72 5.62-2.01 5.98-3.22 5.98h-9.85c-.08 0-.2 0-.2 1.25s.12 1.25.2 1.25h26.96c.26 0 .31-.68.31-1.25s-.05-1.25-.31-1.25h-11.96c-.16 0-.21-.05-.24-.09-.27-.37.24-2.1 1.49-5.84l8.7-25.31 32.92-.06 10.7 31.08c-.04.09-.24.22-.52.22h-12.4c-.26 0-.31.69-.31 1.25s.05 1.25.31 1.25h42.96c.26 0 .31-.68.31-1.25s-.05-1.25-.31-1.25Zm-41.23-33.64h-8.16l8.15-.03v.03Zm-31.72 0 4.02-11.72-3.99 11.72h-.03Zm.11 0 15.9-46.27 12.03 35.35 3.65 10.83-22.64.09h-8.94Zm42.88 33.41s-.03.08-.06.12c.02-.04.05-.08.06-.12ZM698.95 43.25c-6.44 0-10.45 2.24-13.05 7.45-.57 1.09-1.1 2.27-1.56 3.65v-9.27c0-.34-.03-.53-.53-.53h-20.76c-.26 0-.32.68-.32 1.25s.06 1.25.32 1.25h7.93c.77 0 .91.17.91.48v55.65c0 .31-.15.48-.91.48h-7.93c-.26 0-.32.69-.32 1.25s.06 1.25.32 1.25h30.13c.26 0 .31-.68.31-1.25s-.06-1.25-.31-1.25h-8.07c-.64 0-.77-.18-.77-.48V60.53c2.3-9.32 5.56-13.48 10.57-13.48 2.25 0 3.65 1.4 3.65 3.65 0 1.11-.36 1.78-.75 2.48-.45.83-.98 1.77-.98 3.58 0 2.98 2.77 5.15 6.59 5.15 3.21 0 6.44-2.48 6.44-8.02s-3.37-10.63-10.91-10.63Zm-14.62 11.12c-.03.08-.06.14-.09.23v-4.68l.09 4.46ZM782.56 103.66h-7.93c-.77 0-.91-.17-.91-.48V.53c0-.18-.17-.53-.38-.53h-20.76c-.26 0-.31.68-.31 1.26s.05 1.25.31 1.25h7.93c.64 0 .77.19.77.48l.1 26.12v20.02c-3.53-3.94-7.91-5.87-13.41-5.87-17.3 0-30.23 17.18-30.23 32.54s11.57 31.66 28.79 31.66c7.18 0 11.99-3.57 13.89-6.44.39-.55.69-1.07.86-1.53v6.15c0 .34.19.53.53.53h20.76c.4 0 .42-1.04.42-1.25s-.02-1.25-.42-1.25Zm-51.95-27.87c0-14.4 2.25-23.24 6.89-27.03 2.95-2.48 7.32-3.01 10.46-3.01 5.18 0 11.42 2.6 13.31 7.54v39.65c0 5.98-4.56 12.01-14.75 12.01-4.03 0-6.39-.79-9.02-3-4.7-3.84-6.89-12.16-6.89-26.16Zm30.76-26.62v.09c-.54-.61-1.12-1.16-1.71-1.69.59.49 1.16 1.01 1.71 1.6Zm0 50.11v3.1l-.09-2.91c.02-.06.07-.13.09-.19ZM818.44 43.25c-16.63 0-29.65 14.1-29.65 32.11s13.02 32.1 29.65 32.1c9.65 0 18.56-5.06 24.45-13.89l-.06-.32c-.23-.38-1.03-.96-1.4-.92-5.49 8.15-13.65 12.64-22.99 12.64-4.48 0-7.81-1-10.46-3.15-4.5-3.8-5.88-9.98-5.88-26.45 0-1.09-.01-2.2-.22-3.09v-.13h41.8c.34 0 .53-.19.53-.53 0-8.88-6.49-28.35-25.76-28.35Zm-16.58 26.48c0-.2.02-.38.03-.58 0 .19-.02.38-.03.58Zm.1 0c.59-12.22 2.11-17.48 6.02-20.83 2.65-2.15 5.98-3.15 10.46-3.15 3.59 0 6.3 1.03 8.3 3.14 3.42 3.29 4.7 8.48 5.1 20.4v.34l-27.75.09h-2.14Zm29.89 0h-1.41 1.41Zm-29.99 2.31h6.15l-6.15.02v-.02ZM923.69 103.66h-7.93c-.7 0-.77-.13-.77-.48V67.43c0-15.14-8.93-24.18-23.89-24.18-5.81 0-10.65 2.24-13.74 6.16 0 .01-.02.02-.03.03-.39.49-.73 1.02-1.06 1.57-.64 1.02-1.21 2.12-1.65 3.37v-9.29c0-.34-.03-.53-.53-.53h-20.76c-.26 0-.31.68-.31 1.25s.05 1.25.31 1.25h8.07c.91 0 .91.36.91.48v55.65c0 .11 0 .48-.91.48h-8.07c-.26 0-.31.69-.31 1.25s.05 1.25.31 1.25h30.13c.26 0 .31-.68.31-1.25s-.05-1.25-.31-1.25h-7.93c-.91 0-.91-.36-.91-.48v-43.8c3.18-9.56 8.11-13.63 16.48-13.63 4.37 0 11.3 3.97 11.3 14.61v42.82c0 .3-.13.48-.77.48h-7.93c-.16 0-.22.24-.26.44-.03.23-.05.51-.05.81 0 .57.05 1.25.31 1.25h29.99c.4 0 .42-1.04.42-1.25s-.02-1.25-.42-1.25ZM874.61 54.4c-.02.07-.06.13-.09.2v-4.65l.09 4.45ZM294 160.62c-1.13-1.22-2.68-3.19-2.68-3.19s.29 2.35.29 4.11v15.74h-4.12v-28.83h.59l15.74 16.91c1.09 1.18 2.64 3.2 2.64 3.2s-.29-2.52-.29-4.12v-15.7h4.11v28.83h-.54L294 160.61ZM339.5 148.75h18.13v3.89h-13.68v11.09h12.13v3.81h-12.13v5.84h14.27v3.9H339.5v-28.54ZM383.81 148.75h4.66l5.04 15.19c.54 1.59 1.09 4.08 1.09 4.08s.72-2.43 1.39-4.08l6.55-15.48h.54l6.59 15.48c.67 1.59 1.35 4.08 1.35 4.08s.58-2.49 1.13-4.08l5.04-15.19h4.31l-9.86 28.83h-.55l-7.09-17c-.59-1.38-1.17-3.48-1.17-3.48s-.68 2.09-1.26 3.48l-7.26 17h-.55l-9.95-28.83ZM471.93 168.26l-10.84-19.51H466l6.47 11.75c.88 1.59 1.72 4.1 1.72 4.1s.89-2.51 1.72-4.1l6.25-11.75h4.58l-10.37 19.26v9.27h-4.45v-9.02ZM509.86 163.01c0-8.52 6.55-14.64 14.74-14.64s14.69 6.12 14.69 14.64-6.55 14.65-14.69 14.65-14.74-6.13-14.74-14.65Zm24.9 0c0-6.09-4.2-10.67-10.16-10.67s-10.2 4.58-10.2 10.67 4.24 10.66 10.2 10.66 10.16-4.57 10.16-10.66ZM586.96 177.28h-5.12l-5.13-7.51c-.79.09-1.59.17-2.39.17h-2.68v7.34h-4.45v-28.54h7.14c7.89 0 12.3 4.11 12.3 10.65 0 4.41-1.97 7.44-5.71 9.07l6.05 8.81Zm-12.8-11.16c5.67 0 7.93-2.48 7.93-6.72s-2.35-6.76-7.93-6.76h-2.52v13.48h2.52ZM621.21 160.83l9.24-12.09h5.03l-10.11 13.34 11.25 15.19h-5.37l-8.82-11.92-3.06 3.74v8.18h-4.45v-28.54h4.45v11.75c0 1.3-.18 3.02-.34 4.19.63-1.3 1.47-2.89 2.18-3.85Z"></path>
  <path class="st0" d="M4554.12 59.41c-.33 0-.89.03-.89.26 0 8.29-3.17 22.21-24.41 22.21h-12.59c-.61 0-.73-.13-.73-.38l-.08-38.73h4.27c8.43 0 13.67 5.01 13.67 13.09 0 .5 1.66.5 1.66 0V27.68c0-.21-.52-.25-.83-.25s-.83.04-.83.25c0 8.2-5.11 13.09-13.67 13.09l-4.2.08V4.22c0-.25.12-.39.73-.39h12.24c17.13 0 18.98 13.92 18.98 19.91 0 .32.79.33.94.33s.94-.01.94-.33V2.25c0-.15-.14-.42-.42-.42h-56.36c-.21 0-.25.54-.25 1s.04 1 .25 1h9.59c.51 0 .62.15.62.39v77.27c0 .24-.1.38-.62.38h-9.59c-.21 0-.25.55-.25 1s.04 1 .25 1h62.02c.27 0 .42-.15.42-.42V59.66c0-.22-.55-.26-.88-.26ZM4587.96 81.87h-6.35c-.62 0-.73-.13-.73-.38V-.75c0-.15-.14-.42-.42-.42h-16.63c-.31 0-.34.77-.34 1.01s.02 1 .34 1h6.35c.61 0 .73.14.73.38v80.27c0 .25-.12.38-.73.38h-6.35c-.31 0-.34.77-.34 1s.02 1 .34 1h24.14c.21 0 .25-.54.25-1s-.04-1-.25-1ZM4608.52 13.19c3.61 0 6.55-3.04 6.55-6.77s-2.94-6.89-6.55-6.89-6.43 3.09-6.43 6.89 2.83 6.77 6.43 6.77ZM4620.65 81.87h-6.47c-.51 0-.62-.15-.62-.38V34.95c0-.28-.15-.43-.42-.43h-16.75c-.21 0-.25.55-.25 1s.04 1.01.25 1.01h6.35c.7 0 .73.12.73.38v44.58c0 .27-.03.38-.73.38h-6.35c-.21 0-.25.55-.25 1s.04 1 .25 1h24.26c.21 0 .25-.54.25-1s-.04-1-.25-1ZM4669.97 67.26c-.33 0-.89.03-.89.25 0 10.2-4.56 14.36-15.75 14.36h-11.9c-.41 0-.51-.06-.51-.22l29.23-46.23c.1-.42.1-.68 0-.81h-.15s-.02-.02-.04-.02h-6.69l-29.81-.08c-.27 0-.42.15-.42.43v14.44c0 .41 1.89.41 1.89 0 0-9.49 3.67-12.86 14.01-12.86h9.24c.53 0 .59.1.51.23l-28.99 46.2c-.18.24-.23.49-.14.68.08.16.24.25.43.25h40.42c.39 0 .42-.16.42-.42V67.52c0-.22-.56-.25-.89-.25ZM4726.46 79.3c-.06-.03-.1-.04-.11-.02-.03 0-.06-.02-.09-.02-.48 1.2-1.86 2.49-3.74 2.49-1.64 0-2.58-1.41-2.58-3.85V54.45c0-13.92-6.24-20.98-18.56-20.98-9.17 0-14.05 5.28-14.05 9.09 0 2.62 1.45 5.27 4.7 5.27 3.81 0 5.16-2.28 5.16-4.23 0-.85-.24-1.42-.5-2.02-.26-.62-.53-1.25-.53-2.25 0-2.62 1.66-3.85 5.23-3.85 4.25 0 8.59 1.23 8.59 10.31v8.78c0 2.21-6.12 2.76-12.04 3.29l-1.17.11c-5.64.57-15.09 3.26-15.09 14.74 0 7.64 5.86 12.2 15.67 12.2 5.67 0 9.82-2.9 11.95-6.31.46-.71.87-1.44 1.16-2.2.94 5.17 4.49 8.51 9.06 8.51 4.33 0 7.31-2.35 7.92-4.55.04-.07.02-.16-.06-.28-.16-.27-.6-.68-.92-.78Zm-16.49-21.7v13.6c0 5.32-4.33 11.24-10.55 11.24-5.24 0-7.89-3.28-7.89-9.74 0-10.46 3.52-12.05 7.44-12.86.93-.16 1.98-.27 3.09-.39 2.8-.31 5.96-.65 7.91-1.85Zm.54 18.69c.15.84.4 1.64.69 2.42-.3-.73-.56-1.5-.73-2.33.01-.03.03-.05.04-.08ZM4760.99 33.47c-3.68 0-6.79 1.15-9.38 3.51-.44.38-.87.79-1.28 1.23V-.75c0-.1 0-.42-.42-.42h-16.63c-.21 0-.25.54-.25 1.01s.04 1 .25 1h6.47c.48 0 .73.13.73.38v80.27c0 .09 0 .38-.73.38h-6.47c-.21 0-.25.55-.25 1s.04 1 .25 1h16.63c.39 0 .42-.16.42-.42l-.08-2.3v-1.63c3.01 3.23 7.83 5.4 12.01 5.4 13.72 0 22.94-13.12 22.94-25.37s-10.36-26.07-24.22-26.07Zm0 2.01c2.15 0 6.13.32 8.61 2.41 3.58 3.02 5.4 10.31 5.4 21.66s-1.72 17.85-5.4 20.96c-2.08 1.76-4.07 2.41-7.34 2.41-4.31 0-9.88-2.3-11.94-7.31V41.57c1.75-3.99 6.69-6.07 10.66-6.07Zm-10.69 2.75-.06.06v-16.5l.06 16.44Zm-.05 41.17c.47.51 1.01.99 1.58 1.45-.56-.44-1.09-.89-1.58-1.38v-.07ZM4816.87 33.47c-13.32 0-23.76 11.3-23.76 25.72s10.43 25.72 23.76 25.72c7.73 0 14.87-4.05 19.59-11.13l-.05-.26c-.18-.3-.8-.78-1.12-.74-4.4 6.53-10.94 10.13-18.42 10.13-3.59 0-6.26-.8-8.38-2.52-3.61-3.05-4.71-8-4.71-21.19 0-.87 0-1.77-.18-2.48v-.1h33.49c.27 0 .42-.16.42-.43 0-7.11-5.2-22.72-20.64-22.72Zm-13.28 21.22c0-.16.02-.3.02-.45 0 .15-.01.3-.02.45Zm.08 0c.47-9.79 1.69-14 4.82-16.69 2.13-1.72 4.79-2.52 8.38-2.52 2.87 0 5.05.82 6.65 2.52 2.74 2.63 3.76 6.79 4.08 16.34v.27l-22.23.08h-1.71Zm23.94 0h-1.13 1.13Zm-24.02 1.85h4.92-4.92ZM4870.39 73.84c-1.31 4.88-3.92 7.8-6.97 7.8-2.01 0-3.16-1.19-3.16-3.28V36.9c0-.24.1-.38.62-.38h9.59c.2 0 .25-.55.25-1.01s-.04-1-.25-1h-9.59c-.51 0-.62-.15-.62-.38v-19.4c0-.2-.95-.22-1.15-.22-.65 0-.74.11-.74.19-1.45 4.22-4.19 6.65-8.2 7.31v12.13c0 .26-.03.38-.73.38h-7.97c-.21 0-.25.55-.25 1s.04 1.01.25 1.01h7.97c.7 0 .73.12.73.38v36.61c0 7.57 3.33 11.4 9.9 11.4 5.98 0 9.9-3.44 11.63-10.24 0-.27-.88-.91-1.31-.83ZM4933.07 81.87h-6.35c-.56 0-.62-.1-.62-.38V52.85c0-12.13-7.19-19.37-19.25-19.37-3.75 0-8.15 1.4-10.97 5.04-.87 1.09-1.59 2.37-2.12 3.87V-.75c0-.1 0-.42-.42-.42h-16.63c-.21 0-.25.54-.25 1.01s.04 1 .25 1h6.47c.48 0 .73.13.73.38v80.27c0 .09 0 .38-.73.38h-6.47c-.21 0-.25.55-.25 1s.04 1 .25 1h24.14c.21 0 .25-.54.25-1s-.04-1-.25-1h-6.35c-.73 0-.73-.29-.73-.38V46.4c2.54-7.66 6.46-10.92 13.09-10.92 3.5 0 9.05 3.18 9.05 11.7v34.3c0 .27-.15.38-.5.38h-6.36c-.31 0-.33.77-.33 1s.02 1 .33 1h24.03c.21 0 .25-.54.25-1s-.04-1-.25-1Zm-39.32-39.47c-.02.06-.05.11-.07.17V21.34l.07 21.06ZM5020.49 81.87h-9.59c-.43 0-.72-.21-.73-.29L4980.95.27c-.1-.29-.99-.32-1.27-.32s-1.17.02-1.27.32l-26.45 76.81c-1.38 4.5-1.61 4.79-2.58 4.79h-7.89c-.07 0-.16 0-.16 1s.1 1 .16 1h21.6c.21 0 .25-.54.25-1s-.04-1-.25-1h-9.59c-.12 0-.17-.04-.19-.07-.21-.3.19-1.68 1.19-4.68l6.97-20.28 26.37-.05 8.57 24.9c-.03.07-.19.18-.41.18h-9.93c-.21 0-.25.55-.25 1s.04 1 .25 1h34.42c.21 0 .25-.54.25-1s-.04-1-.25-1Zm-33.03-26.95h-6.53l6.53-.03v.03Zm-25.41 0 3.22-9.39-3.2 9.39h-.03Zm.08 0 12.74-37.07 9.64 28.32 2.93 8.68-18.14.07h-7.16Zm34.36 26.76s-.02.06-.05.1c.02-.03.04-.06.05-.1ZM5052.26 33.47c-5.16 0-8.38 1.8-10.45 5.97-.46.87-.88 1.82-1.25 2.93v-7.42c0-.27-.03-.43-.42-.43h-16.63c-.21 0-.25.55-.25 1s.05 1.01.25 1.01h6.35c.61 0 .73.13.73.38v44.58c0 .25-.12.38-.73.38h-6.35c-.21 0-.25.55-.25 1s.05 1 .25 1h24.14c.21 0 .25-.54.25-1s-.04-1-.25-1h-6.47c-.51 0-.62-.15-.62-.38V47.32c1.84-7.47 4.45-10.8 8.47-10.8 1.8 0 2.92 1.12 2.92 2.92 0 .89-.29 1.42-.6 1.98-.36.66-.78 1.42-.78 2.87 0 2.39 2.22 4.12 5.28 4.12 2.57 0 5.16-1.99 5.16-6.43s-2.7-8.51-8.74-8.51Zm-11.71 8.91c-.02.06-.05.11-.07.18v-3.75l.07 3.57ZM5119.25 81.87h-6.35c-.62 0-.73-.13-.73-.38V-.75c0-.14-.13-.42-.31-.42h-16.63c-.2 0-.25.54-.25 1.01s.04 1 .25 1h6.36c.51 0 .62.15.62.38l.08 20.93v16.04c-2.83-3.16-6.34-4.7-10.74-4.7-13.86 0-24.22 13.76-24.22 26.07s9.27 25.37 23.06 25.37c5.76 0 9.61-2.86 11.13-5.16.31-.44.55-.86.69-1.23v4.92c0 .27.15.42.42.42h16.63c.32 0 .34-.83.34-1s-.02-1-.34-1Zm-41.62-22.33c0-11.54 1.8-18.62 5.52-21.66 2.36-1.99 5.86-2.41 8.38-2.41 4.15 0 9.15 2.08 10.67 6.04v31.76c0 4.79-3.65 9.62-11.82 9.62-3.23 0-5.12-.63-7.23-2.41-3.76-3.08-5.52-9.74-5.52-20.96Zm24.64-21.33v.07c-.43-.49-.9-.93-1.37-1.35.47.39.93.81 1.37 1.28Zm0 40.15v2.48l-.07-2.33s.05-.11.07-.15ZM5147.99 33.47c-13.32 0-23.76 11.3-23.76 25.72s10.43 25.72 23.76 25.72c7.73 0 14.87-4.05 19.59-11.13l-.05-.26c-.19-.3-.83-.77-1.12-.74-4.4 6.53-10.94 10.13-18.42 10.13-3.59 0-6.26-.8-8.38-2.52-3.61-3.05-4.71-8-4.71-21.19 0-.87 0-1.77-.18-2.48v-.1h33.49c.27 0 .42-.16.42-.43 0-7.11-5.2-22.72-20.64-22.72Zm-13.28 21.22c0-.16.02-.31.03-.46 0 .16-.02.3-.02.46Zm.08 0c.47-9.79 1.69-14 4.82-16.69 2.12-1.72 4.79-2.52 8.38-2.52 2.88 0 5.05.82 6.65 2.52 2.74 2.63 3.76 6.8 4.09 16.34v.27l-22.23.08h-1.71Zm23.94 0h-1.13 1.13Zm-24.02 1.85h4.93-4.92ZM5232.31 81.87h-6.36c-.56 0-.61-.1-.61-.38V52.85c0-12.13-7.15-19.37-19.14-19.37-4.66 0-8.54 1.79-11.01 4.93 0 0-.02.02-.02.03-.31.4-.58.82-.85 1.26-.51.81-.97 1.69-1.32 2.7v-7.45c0-.27-.03-.43-.42-.43h-16.63c-.21 0-.25.55-.25 1s.04 1.01.25 1.01h6.47c.73 0 .73.29.73.38v44.58c0 .09 0 .38-.73.38h-6.47c-.21 0-.25.55-.25 1s.04 1 .25 1h24.14c.21 0 .25-.54.25-1s-.04-1-.25-1h-6.35c-.73 0-.73-.29-.73-.38V46.4c2.55-7.66 6.5-10.92 13.2-10.92 3.5 0 9.05 3.18 9.05 11.7v34.3c0 .24-.11.38-.62.38h-6.36c-.13 0-.18.19-.21.35-.03.18-.04.41-.04.65 0 .46.04 1 .25 1h24.03c.32 0 .34-.83.34-1s-.02-1-.34-1Zm-39.32-39.47c-.02.06-.05.1-.07.16v-3.73l.07 3.57ZM4727.85 127.5c-.91-.98-2.15-2.55-2.15-2.55s.24 1.89.24 3.29v12.61h-3.3v-23.09h.47l12.61 13.54c.87.94 2.12 2.56 2.12 2.56s-.23-2.02-.23-3.3v-12.57h3.29v23.1h-.43l-12.61-13.59ZM4764.29 117.99h14.52v3.12h-10.96v8.88h9.72v3.05h-9.72v4.68h11.43v3.13h-14.99v-22.86ZM4799.79 117.99h3.73l4.04 12.17c.44 1.27.87 3.27.87 3.27s.57-1.95 1.11-3.27l5.24-12.4h.44l5.28 12.4c.54 1.27 1.08 3.27 1.08 3.27s.47-1.99.9-3.27l4.04-12.17h3.46l-7.9 23.1h-.44l-5.68-13.62c-.47-1.11-.94-2.79-.94-2.79s-.54 1.68-1.01 2.79l-5.82 13.62h-.44l-7.97-23.1ZM4870.39 133.62l-8.68-15.63h3.94l5.18 9.42c.71 1.27 1.38 3.29 1.38 3.29s.71-2.01 1.38-3.29l5.01-9.42h3.67l-8.31 15.43v7.43h-3.56v-7.23ZM4900.78 129.42c0-6.83 5.25-11.73 11.81-11.73s11.77 4.9 11.77 11.73-5.25 11.74-11.77 11.74-11.81-4.91-11.81-11.74Zm19.94 0c0-4.88-3.36-8.55-8.14-8.55s-8.17 3.67-8.17 8.55 3.4 8.54 8.17 8.54 8.14-3.66 8.14-8.54ZM4962.55 140.85h-4.1l-4.11-6.02c-.64.07-1.27.13-1.91.13h-2.15v5.88h-3.57v-22.86h5.72c6.32 0 9.85 3.29 9.85 8.54 0 3.53-1.58 5.96-4.57 7.27l4.84 7.06Zm-10.26-8.94c4.54 0 6.36-1.98 6.36-5.38s-1.88-5.42-6.36-5.42h-2.02v10.8h2.02ZM4989.98 127.67l7.4-9.68h4.03l-8.1 10.69 9.01 12.17h-4.3l-7.06-9.55-2.45 3v6.55h-3.57v-22.86h3.57v9.42c0 1.04-.14 2.42-.27 3.36.5-1.04 1.17-2.31 1.75-3.09Z"></path>
</svg>