<svg preserveAspectRatio="xMidYMid meet" data-bbox="0 0 310.477 21.969" viewBox="0 0 310.477 21.969" height="29.293" width="413.973" xmlns="http://www.w3.org/2000/svg" data-type="color" role="presentation" aria-hidden="true" aria-label="">
    <g>
        <defs>
            <clipPath id="0ac4d4d2-848d-459d-b0be-7730bee1fa90_comp-lodrvvin_r_comp-lodpginy">
                <path d="M232 15h5v6.969h-5Zm0 0"></path>
            </clipPath>
            <clipPath id="1eca2258-a7cc-4924-ac78-2f1682122bc3_comp-lodrvvin_r_comp-lodpginy">
                <path d="M306 15h4.48v4H306Zm0 0"></path>
            </clipPath>
        </defs>
        <path d="M0 18.54h3.613V.335H0Zm0 0" fill="#1c1c1b" data-color="1"></path>
        <path d="m26.39.336-.05 18.203h-3.406l-5.176-6.996a46.586 46.586 0 0 1-1.246-1.715 79.617 79.617 0 0 0-1.172-1.637c-.363-.496-.676-.91-.883-1.222l-.34-.496h-.023v12.066h-3.617V.363h3.406l5.281 7.098c.309.418.676.91 1.09 1.457a52.69 52.69 0 0 1 1.172 1.586c.363.52.676.96.933 1.328l.391.52h.027V.336" fill="#1c1c1b" data-color="1"></path>
        <path d="M46.516.336v3.383h-5.723v14.82H37.18V3.72h-5.668V.336" fill="#1c1c1b" data-color="1"></path>
        <path d="M64.66 15.16v3.38H51.637V.335h12.87v3.383H55.25v3.875h7.305v3.168H55.25v4.398" fill="#1c1c1b" data-color="1"></path>
        <path d="m74.8 9.102 3.2.05c.492 0 .934-.078 1.3-.234.364-.156.677-.363.91-.625.235-.258.415-.547.548-.855.129-.313.18-.653.18-.989a2.63 2.63 0 0 0-.18-1.015 3.083 3.083 0 0 0-.547-.86 2.612 2.612 0 0 0-.91-.62c-.367-.157-.781-.235-1.274-.235h-3.226Zm6.555 9.464-3.59-6.191h-2.964v6.191h-3.614V.391h6.372c1.117 0 2.132.129 3.015.414.883.289 1.637.703 2.235 1.25a5.893 5.893 0 0 1 1.406 1.949c.336.754.492 1.586.492 2.496 0 1.246-.285 2.313-.883 3.2-.597.882-1.457 1.558-2.574 2l4.16 6.866" fill="#1c1c1b" data-color="1"></path>
        <path d="M97.523 9.152v.024c1.067 0 1.899-.23 2.473-.727.57-.492.856-1.168.856-2.027 0-.86-.286-1.535-.883-2-.598-.469-1.403-.703-2.446-.703H94.72v5.433Zm.079-8.789c1.093 0 2.082.13 2.941.418.855.285 1.586.676 2.184 1.196a5.05 5.05 0 0 1 1.378 1.898c.31.754.465 1.61.465 2.574 0 .961-.156 1.82-.465 2.574a5.132 5.132 0 0 1-1.378 1.922c-.598.52-1.329.91-2.184 1.196-.86.285-1.848.418-2.941.418h-2.883v5.98h-3.617V.363" fill="#1c1c1b" data-color="1"></path>
        <path d="m119.04 11.855-1.845-4.55c-.105-.258-.21-.543-.312-.832-.106-.285-.184-.57-.262-.832-.074-.258-.152-.465-.207-.621l-.078-.262h-.023l-.083.234c-.05.156-.128.363-.207.625-.078.258-.156.52-.257.805-.106.285-.207.57-.313.832l-1.797 4.601Zm1.198 3.25h-7.879l-1.351 3.461h-3.903L114.594.391H118l7.488 18.175h-3.898" fill="#1c1c1b" data-color="1"></path>
        <path d="m134.07 9.102 3.196.05c.496 0 .937-.078 1.3-.234.364-.156.676-.363.91-.625.235-.258.419-.547.547-.855.13-.313.18-.653.18-.989 0-.363-.05-.703-.18-1.015a2.997 2.997 0 0 0-.546-.86 2.612 2.612 0 0 0-.91-.62c-.364-.157-.782-.235-1.274-.235h-3.223Zm6.551 9.464-3.59-6.191h-2.96v6.191h-3.618V.391h6.371c1.117 0 2.13.129 3.016.414.887.289 1.64.703 2.234 1.25a5.785 5.785 0 0 1 1.406 1.949c.34.754.497 1.586.497 2.496 0 1.246-.29 2.313-.887 3.2-.598.882-1.453 1.558-2.574 2l4.16 6.866" fill="#1c1c1b" data-color="1"></path>
        <path d="M153.984 3.719v4.445h7.047v3.25h-7.047v7.125h-3.613V.336h12.61v3.383" fill="#1c1c1b" data-color="1"></path>
        <path d="m183.965.336-.028 10.324c0 1.324-.183 2.496-.546 3.535-.364 1.043-.883 1.899-1.563 2.602-.676.703-1.508 1.223-2.469 1.586-.96.336-2.05.52-3.25.52-1.195 0-2.289-.184-3.25-.52-.96-.363-1.793-.883-2.468-1.586-.676-.703-1.196-1.559-1.563-2.602-.36-1.039-.543-2.234-.543-3.562V.336h3.613v10.246c0 1.691.364 2.938 1.067 3.746.7.805 1.77 1.195 3.172 1.195 1.379 0 2.418-.39 3.12-1.195.704-.808 1.063-2.055 1.063-3.746V.336" fill="#1c1c1b" data-color="1"></path>
        <path d="m208.219.336-.13 18.203h-3.562v-5.668c0-.96 0-1.848.028-2.625.023-.781.05-1.457.05-2.031 0-.57-.027-1.012 0-1.324l.028-.47h-.028l-.207.364c-.128.235-.285.52-.468.832-.184.313-.364.625-.547.938-.18.312-.309.52-.39.648l-2.833 4.89h-1.87l-2.837-4.89c-.078-.129-.207-.336-.39-.648-.18-.313-.364-.625-.543-.938-.184-.312-.34-.597-.47-.832l-.21-.363h-.024l.024.469c.027.312.027.754.055 1.324.027.574.05 1.25.078 2.031.023.777.023 1.637.023 2.598v5.695h-3.559V.336h3.403l3.773 6.242c.336.57.621 1.04.832 1.402.207.368.39.653.52.86.129.207.207.363.262.441l.074.133h.027l.078-.133c.055-.078.13-.234.258-.441.133-.207.316-.492.524-.86.207-.363.492-.832.832-1.402l3.792-6.242" fill="#1c1c1b" data-color="1"></path>
        <path d="M224.34 5.875h-.207a3.419 3.419 0 0 0-.52-1.168 3.788 3.788 0 0 0-.832-.86 3.153 3.153 0 0 0-1.066-.519 4.476 4.476 0 0 0-1.172-.156c-.832 0-1.48.183-1.977.547-.492.363-.726.804-.726 1.351 0 .364.129.676.363.938.234.258.547.492.961.699.418.211.887.39 1.406.574l1.637.543c.648.211 1.328.496 2.004.809.676.308 1.3.676 1.844 1.117.547.441.988.96 1.328 1.559.336.601.52 1.3.52 2.109 0 .805-.157 1.559-.497 2.234a5.326 5.326 0 0 1-1.402 1.743 6.274 6.274 0 0 1-2.184 1.144c-.86.285-1.793.414-2.836.414-1.922 0-3.507-.465-4.785-1.453-1.27-.988-2.156-2.316-2.648-3.98l3.48-.934c.106.414.262.805.496 1.195a4 4 0 0 0 .86 1.012c.336.289.754.52 1.218.703.47.184.993.262 1.563.262.988 0 1.742-.211 2.234-.625.496-.418.754-.938.754-1.535 0-.47-.129-.856-.414-1.168-.289-.313-.652-.575-1.12-.809a10.034 10.034 0 0 0-1.61-.621 45.701 45.701 0 0 1-1.871-.625 17.94 17.94 0 0 1-1.664-.676 6.84 6.84 0 0 1-1.563-.965 5.03 5.03 0 0 1-1.168-1.402c-.312-.547-.469-1.223-.469-2.027 0-.703.157-1.38.493-2.004a5.782 5.782 0 0 1 1.406-1.688A6.84 6.84 0 0 1 218.28.441c.809-.285 1.692-.418 2.653-.418a8.1 8.1 0 0 1 2.418.368 6.757 6.757 0 0 1 3.562 2.574 6.05 6.05 0 0 1 .91 1.95" fill="#1c1c1b" data-color="1"></path>
        <g clip-path="url(#0ac4d4d2-848d-459d-b0be-7730bee1fa90_comp-lodrvvin_r_comp-lodpginy)">
            <path d="m234.66 18.695-.414.024c-.34-.024-.648-.18-.937-.442-.286-.285-.442-.675-.442-1.168 0-.496.184-.91.547-1.25.363-.336.805-.52 1.3-.52.493 0 .911.184 1.247.548.34.363.52.86.52 1.453 0 .418-.079.832-.208 1.226a6.406 6.406 0 0 1-.546 1.247c-.235.417-.52.804-.832 1.171-.31.364-.649.7-1.012.985h-1.356a3.38 3.38 0 0 0 .625-.621c.207-.262.418-.547.602-.832a4.24 4.24 0 0 0 .414-.91c.102-.313.156-.575.156-.81" fill="#1c1c1b" data-color="1"></path>
        </g>
        <path d="M251.953 18.54h3.613V.335h-3.613Zm0 0" fill="#1c1c1b" data-color="1"></path>
        <path d="m278.34.336-.05 18.203h-3.407l-5.172-6.996a46.591 46.591 0 0 1-1.25-1.715 57.91 57.91 0 0 0-1.172-1.637c-.363-.496-.676-.91-.883-1.222l-.336-.496h-.027v12.066h-3.613V.363h3.406l5.277 7.098c.313.418.676.91 1.09 1.457.418.547.809 1.066 1.172 1.586.363.52.676.96.938 1.328l.39.52h.024V.336" fill="#1c1c1b" data-color="1"></path>
        <path d="m298.102 5.746-.079.102a5.112 5.112 0 0 0-1.976-1.61 6.04 6.04 0 0 0-2.602-.597 6.18 6.18 0 0 0-2.34.441c-.699.285-1.3.703-1.793 1.223a5.263 5.263 0 0 0-1.144 1.87 6.998 6.998 0 0 0-.39 2.368c0 .883.156 1.687.44 2.418.29.726.677 1.351 1.173 1.844a5.29 5.29 0 0 0 1.793 1.172c.703.285 1.457.414 2.261.414a5.798 5.798 0 0 0 2.887-.754c.883-.492 1.563-1.14 2.004-1.95l3.64.961a9.576 9.576 0 0 1-1.433 2.188 9.144 9.144 0 0 1-1.95 1.664 8.682 8.682 0 0 1-2.39 1.066c-.86.258-1.77.387-2.73.387-1.301 0-2.524-.234-3.668-.676a9.351 9.351 0 0 1-2.989-1.949c-.859-.832-1.535-1.848-2.027-3.015-.496-1.172-.73-2.446-.73-3.825 0-1.375.261-2.648.753-3.82.497-1.172 1.172-2.184 2.032-3.016a9.323 9.323 0 0 1 3.015-1.949A9.563 9.563 0 0 1 293.523 0c.91 0 1.77.105 2.602.336a9.42 9.42 0 0 1 2.29.965 8.92 8.92 0 0 1 1.92 1.508 8.913 8.913 0 0 1 1.458 1.976" fill="#1c1c1b" data-color="1"></path>
        <g clip-path="url(#1eca2258-a7cc-4924-ac78-2f1682122bc3_comp-lodrvvin_r_comp-lodpginy)">
            <path d="M307.46 18.332a1.707 1.707 0 0 1-.519-1.25c0-.492.18-.91.52-1.246.34-.34.754-.524 1.25-.524.492 0 .906.184 1.246.524.34.336.52.754.52 1.246 0 .496-.18.91-.52 1.25-.34.309-.754.492-1.246.492a1.81 1.81 0 0 1-1.25-.492" fill="#1c1c1b" data-color="1"></path>
        </g>
    </g>
</svg>