<svg width="215" height="21" viewBox="0 0 215 21" fill="none" xmlns="http://www.w3.org/2000/svg">
<g clip-path="url(#clip0_975_63463)">
<path d="M16.3112 19.4503L17.0883 19.4832C17.8223 19.4832 18.1418 19.3596 18.2627 19.2854C18.4267 19.1864 18.539 19.005 18.5908 18.7659C18.6253 18.5845 18.6857 18.0321 18.6857 16.4821V9.28419C18.6857 7.79184 18.6253 7.25592 18.5908 7.07453C18.5562 6.90963 18.4872 6.68701 18.2972 6.57983C18.2022 6.53036 17.8914 6.44791 16.9674 6.44791H16.4666L16.2939 5.35133L23.8234 5.25239L24.0133 6.43966H23.3053C22.2605 6.43966 22.036 6.54685 22.0101 6.55509C21.8633 6.63754 21.7597 6.7942 21.6906 7.0333C21.6561 7.18996 21.5956 7.71764 21.5956 9.27594V11.9226L29.0301 11.8401L28.9437 9.28419C28.9437 8.25356 28.9092 7.40433 28.8488 7.04979C28.8229 6.89314 28.7451 6.67877 28.5638 6.57158C28.5034 6.5386 28.253 6.43966 27.2427 6.43966H26.6037L26.4397 5.34308L34.0468 5.24414L34.2282 6.43142H33.6065C32.6653 6.43142 32.3631 6.52211 32.2767 6.55509C32.1472 6.6293 32.035 6.78595 31.9659 7.0333C31.9054 7.2889 31.8709 8.04744 31.8709 9.2677V16.4656C31.8709 17.5787 31.8968 18.3537 31.94 18.7082C31.9918 18.9638 32.104 19.1534 32.2767 19.2689C32.3717 19.3348 32.6653 19.475 33.5029 19.475H34.0468L34.2023 20.6293H26.6037L26.4397 19.442L27.3463 19.475C28.0803 19.475 28.3998 19.3513 28.5206 19.2771C28.6847 19.1782 28.7883 19.0133 28.8488 18.7659C28.9092 18.4032 28.9437 17.5209 28.9437 16.4656V13.1758L21.5266 13.25L21.5956 16.4573C21.5956 17.7188 21.6215 18.3784 21.682 18.6752C21.7165 18.9556 21.8288 19.137 22.0015 19.2606C22.0878 19.3266 22.3728 19.4668 23.1931 19.4668H23.8234L23.9961 20.5386L16.458 20.6293L16.2939 19.4338L16.3112 19.4503Z" fill="white"/>
<path d="M45.0905 20.9011C42.5605 20.9011 40.4537 20.1591 38.839 18.6997C37.1984 17.2156 36.3608 15.2451 36.3608 12.8623C36.3608 10.4794 37.207 8.57485 38.8735 7.14847C40.5228 5.71384 42.6037 4.98828 45.0473 4.98828C47.4909 4.98828 49.6237 5.7056 51.2902 7.11549C52.974 8.53363 53.8374 10.4959 53.8374 12.9282C53.8374 15.3605 53.0258 17.2156 51.4197 18.6915C49.805 20.1756 47.7327 20.8929 45.0905 20.8929V20.9011ZM45.0732 6.2003C43.3204 6.2003 42.0166 6.74446 41.0667 7.86578C40.1428 8.9871 39.6679 10.6938 39.6679 12.9282C39.6679 15.1626 40.1342 16.927 41.0667 18.0401C42.0079 19.1532 43.3808 19.6974 45.2632 19.6974C46.8692 19.6974 48.1644 19.1367 49.097 18.0401C50.0554 16.927 50.539 15.2121 50.539 12.9529C50.539 10.6938 50.0641 9.04482 49.1315 7.89876C48.2163 6.7692 46.852 6.2003 45.0732 6.2003Z" fill="white"/>
<path d="M56.1166 20.6373L55.9612 19.45L56.7556 19.483C57.5413 19.483 57.8349 19.3511 57.9299 19.2934C58.1112 19.1862 58.2148 19.0213 58.2839 18.7575C58.2839 18.7162 58.3789 18.205 58.3789 16.4818V9.28395C58.3789 8.33578 58.3357 7.46181 58.2753 7.04956C58.2062 6.81045 58.1199 6.6538 57.9903 6.58784C57.8954 6.53837 57.5759 6.44767 56.6347 6.44767H56.1166L55.9698 5.25215L58.7847 5.18619C60.0886 5.15321 61.1334 5.13672 61.9018 5.13672C63.5597 5.13672 64.7945 5.26039 65.6752 5.50774C66.6164 5.76334 67.359 6.20857 67.9547 6.86817C68.5678 7.54426 68.8787 8.38525 68.8787 9.37465C68.8787 10.2486 68.6714 10.9989 68.2483 11.675C67.8425 12.3428 67.2553 12.8623 66.4869 13.2086C65.7443 13.5466 64.5268 13.7033 62.6531 13.7033H61.2111L61.2888 16.4653C61.2888 17.6444 61.3406 18.3947 61.3838 18.708C61.4356 18.9883 61.5305 19.1615 61.6946 19.2686C61.7896 19.3346 62.1004 19.4748 62.9207 19.4748H63.6547L63.8187 20.6291H56.1252L56.1166 20.6373ZM62.0659 12.5077C62.938 12.5077 63.5942 12.4335 64.0864 12.2769C64.5441 12.1367 64.9326 11.8234 65.2694 11.3287C65.5888 10.867 65.7443 10.2569 65.7443 9.51481C65.7443 8.40174 65.468 7.58548 64.924 7.09078C64.3627 6.57959 63.4474 6.33224 62.1177 6.33224C61.7551 6.33224 61.4528 6.34049 61.2024 6.34873L61.2715 12.4995L62.0573 12.516L62.0659 12.5077Z" fill="white"/>
<path d="M71.1582 20.6377L70.9941 19.4505L71.8058 19.4834C72.5829 19.4834 72.8765 19.3515 72.9715 19.2938C73.1528 19.1866 73.2651 19.0217 73.3255 18.7661C73.3773 18.4693 73.3946 17.6943 73.3946 16.4823V9.28438C73.3946 8.10535 73.3687 7.35506 73.3169 7.04999C73.2564 6.81913 73.1614 6.65423 73.0233 6.58003C72.8506 6.48933 72.393 6.43986 71.6763 6.43986H71.1582L71.0028 5.24434L73.8522 5.17838C75.1474 5.1454 76.1749 5.12891 76.9348 5.12891C78.5581 5.12891 79.7842 5.25258 80.6909 5.49993C81.6148 5.75553 82.3833 6.209 82.9791 6.86036C83.5835 7.54469 83.8943 8.38568 83.8943 9.36683C83.8943 10.2408 83.6871 10.9911 83.264 11.6672C82.8668 12.3268 82.2797 12.8462 81.5112 13.1925C80.7427 13.5388 79.5597 13.6955 77.6515 13.6955H76.244L76.3304 16.4575C76.3304 17.6531 76.3476 18.3869 76.3994 18.7002C76.4599 18.964 76.5635 19.1454 76.7362 19.2691C76.8225 19.3268 77.1161 19.4752 77.9451 19.4752H78.6876L78.8344 20.6295H71.1582V20.6377ZM77.0902 12.5082C77.9537 12.5082 78.6186 12.434 79.1194 12.2773C79.577 12.1372 79.9569 11.8403 80.3196 11.3291C80.6304 10.8592 80.7945 10.249 80.7945 9.51524C80.7945 8.40217 80.5096 7.58592 79.9569 7.09122C79.4043 6.58827 78.4718 6.33268 77.1766 6.33268C76.8053 6.33268 76.5031 6.34092 76.2613 6.34917L76.3304 12.4999L77.0902 12.5164V12.5082Z" fill="white"/>
<path d="M86.183 20.638L86.0276 19.4425L86.7356 19.4837C87.7373 19.4837 87.9359 19.3188 87.9531 19.294C88.1431 19.1291 88.2553 18.9395 88.3071 18.7086C88.3589 18.4531 88.3762 17.744 88.3762 16.4743V9.27638C88.3762 8.08085 88.3503 7.41301 88.2899 7.0997C88.2208 6.73692 88.0999 6.62973 88.0136 6.58026C87.9013 6.50606 87.5991 6.43185 86.7184 6.43185H86.4939L86.3298 5.33527L97.978 5.23633L98.4702 9.45777L97.3995 9.62267L97.3304 9.41654C96.9677 8.27049 96.6914 7.62738 96.3892 7.28109C96.0956 6.91006 95.733 6.67096 95.3271 6.57202C94.8781 6.48132 94.1096 6.43185 93.0648 6.43185H91.1911L91.2775 11.9972L92.5727 11.923C93.2894 11.923 93.7643 11.8735 94.0147 11.7746C94.2219 11.6839 94.3601 11.5602 94.4032 11.4283C94.4723 11.2469 94.55 10.8759 94.55 10.0596V9.84528L95.6639 9.68863L95.7589 15.287L94.6536 15.4519L94.6364 15.1798C94.5673 14.347 94.4723 13.8111 94.3514 13.5885C94.2651 13.3989 94.1183 13.2834 93.9283 13.2175C93.6779 13.1433 93.2462 13.1103 92.6504 13.1103H91.1998L91.2861 16.2434C91.2861 18.5602 91.5106 19.0549 91.5797 19.1539C91.6142 19.2033 91.8819 19.4672 93.203 19.4672H94.3601C95.1113 19.4672 95.7416 19.3765 96.2338 19.1951C96.6655 19.022 97.1231 18.6509 97.5722 18.082C98.0212 17.4801 98.3752 16.6556 98.6256 15.6415L98.6688 15.4684L99.7913 15.3529V15.4684L99.7654 15.9383L99.5322 20.6132H86.2003L86.183 20.638Z" fill="white"/>
<path d="M101.898 19.4489L102.787 19.4819C103.59 19.4819 103.866 19.3417 103.927 19.2923C104.125 19.1851 104.229 19.0202 104.29 18.7563C104.35 18.4183 104.385 17.5608 104.385 16.4725V9.2746C104.385 8.22749 104.35 7.39475 104.29 7.04846C104.255 6.8918 104.186 6.66919 104.005 6.57025C103.91 6.52078 103.607 6.43833 102.649 6.43833H102.148L102.001 5.25105L104.574 5.15211C105.896 5.08615 107.079 5.04492 108.097 5.04492C109.617 5.04492 110.817 5.18509 111.776 5.46542C112.769 5.74575 113.572 6.20747 114.168 6.83409C114.789 7.46895 115.1 8.26047 115.1 9.18391C115.1 10.2558 114.694 11.138 113.865 11.88C113.235 12.4654 112.363 12.8777 111.258 13.1085C111.914 13.6692 112.76 14.6174 113.77 15.9366C114.953 17.4454 115.825 18.3771 116.43 18.7811C117.034 19.2181 117.76 19.4489 118.606 19.4737H118.822L118.968 20.628H114.358L114.288 20.5867C113.477 20.0591 112.328 18.7646 110.766 16.6374C110.36 16.0602 109.902 15.4748 109.272 14.7328C108.633 13.999 108.374 13.7599 108.261 13.6857C108.132 13.595 107.899 13.5455 107.545 13.5455H107.191L107.268 16.4642C107.268 17.5031 107.294 18.3359 107.346 18.7069C107.389 18.9625 107.502 19.1521 107.666 19.2758C107.847 19.3995 108.305 19.4737 108.892 19.4737H109.859L110.023 20.5455L102.019 20.6362L101.872 19.4489H101.898ZM107.303 12.3665H107.545C107.925 12.35 108.322 12.3335 108.693 12.317C109.22 12.3005 109.712 12.2263 110.196 12.0944C110.636 11.9625 110.938 11.8058 111.128 11.6162C111.396 11.3771 111.577 11.0967 111.698 10.7587C111.854 10.3712 111.94 9.89298 111.94 9.3653C111.94 8.40888 111.698 7.66683 111.197 7.08968C110.731 6.55376 109.6 6.27343 107.925 6.27343C107.726 6.27343 107.493 6.28167 107.225 6.30641L107.303 12.3747V12.3665Z" fill="white"/>
<path d="M126.826 20.9003C125.186 20.9003 123.787 20.3561 122.673 19.276C122.544 19.5316 122.449 19.8449 122.371 20.2159L122.336 20.3973L121.222 20.5127L121.127 15.2112L122.241 15.071L122.293 15.2937C122.993 18.3113 124.374 19.713 126.619 19.713C127.612 19.713 128.381 19.4574 128.881 18.9462C129.425 18.4103 129.693 17.8414 129.693 17.1983C129.693 16.5551 129.46 16.0275 128.994 15.574C128.51 15.1123 127.603 14.6176 126.239 14.0734C124.814 13.4633 123.968 13.0593 123.398 12.7212C122.716 12.3007 122.181 11.7483 121.792 11.097C121.421 10.4538 121.24 9.75302 121.24 9.01097C121.24 7.86492 121.654 6.90025 122.474 6.14996C123.321 5.39142 124.383 5.00391 125.617 5.00391C126.326 5.00391 126.99 5.11934 127.586 5.34195C128.122 5.53159 128.674 5.89437 129.218 6.4138C129.348 6.14996 129.451 5.86963 129.469 5.5893L129.486 5.39142L130.582 5.23477L130.677 9.69531L129.641 9.83547L129.581 9.62935C129.244 8.49154 128.76 7.67528 128.061 7.05691C127.388 6.47152 126.628 6.19119 125.764 6.19119C124.953 6.19119 124.374 6.38907 124.003 6.79307C123.64 7.17234 123.45 7.62581 123.45 8.10402C123.45 8.68942 123.683 9.19236 124.15 9.59637C124.624 10.0334 125.531 10.5363 126.93 11.1547C128.234 11.6906 129.218 12.1606 129.857 12.5398C130.513 12.9109 131.04 13.422 131.42 14.0734C131.817 14.7248 132.024 15.4915 132.024 16.349C132.024 17.693 131.541 18.806 130.591 19.6553C129.65 20.4963 128.389 20.925 126.835 20.925L126.826 20.9003Z" fill="white"/>
<path d="M168.643 20.6367L168.471 19.4576L169.671 19.4906C170.379 19.4906 170.716 19.3834 170.88 19.2927C171.027 19.1938 171.139 19.0042 171.199 18.7733C171.26 18.4847 171.294 17.7509 171.294 16.4812V6.36459L169.369 6.4388C168.505 6.4388 167.771 6.4388 167.46 6.54598C167.201 6.62019 166.951 6.8428 166.683 7.22207C166.424 7.65081 166.208 8.33515 166.07 9.19263L166.036 9.38226L164.939 9.50594L164.922 5.35046L180.482 5.25977L180.654 9.34928L179.618 9.50594L179.566 9.28332C179.281 8.162 179.065 7.56836 178.815 7.23856C178.565 6.85929 178.306 6.63668 178.021 6.56247C177.736 6.48002 177.218 6.4388 176.32 6.4388H174.118L174.204 16.473C174.204 17.5531 174.221 18.3363 174.282 18.6826C174.325 18.9465 174.437 19.1443 174.619 19.2763C174.722 19.3505 175.016 19.4741 175.81 19.4741H176.786L176.941 20.6284H168.652L168.643 20.6367Z" fill="white"/>
<path d="M191.241 20.9011C188.711 20.9011 186.604 20.1591 184.981 18.6997C183.357 17.2403 182.529 15.278 182.529 12.8623C182.529 10.4465 183.366 8.55836 185.015 7.14847C186.656 5.71384 188.746 4.98828 191.206 4.98828C193.667 4.98828 195.774 5.7056 197.432 7.11549C199.142 8.55836 199.971 10.4547 199.971 12.9282C199.971 15.4017 199.159 17.2321 197.544 18.6997C195.955 20.1591 193.831 20.9011 191.232 20.9011H191.241ZM191.224 6.2003C189.488 6.2003 188.141 6.76095 187.217 7.86578C186.285 8.9871 185.836 10.6443 185.836 12.9365C185.836 15.2286 186.302 16.9518 187.217 18.0484C188.15 19.1614 189.514 19.7056 191.396 19.7056C193.028 19.7056 194.324 19.1449 195.247 18.0484C196.197 16.9353 196.681 15.2286 196.681 12.9612C196.681 10.6938 196.206 9.06955 195.256 7.90701C194.341 6.77745 192.985 6.20854 191.224 6.20854V6.2003Z" fill="white"/>
<path d="M201.922 20.6377L201.767 19.4505L202.578 19.4834C203.096 19.4834 203.519 19.4092 203.727 19.2856C203.908 19.1866 204.02 19.0135 204.072 18.7661C204.133 18.4693 204.167 17.7273 204.167 16.474V9.27614C204.167 8.07237 204.133 7.35506 204.072 7.07473C204.02 6.81913 203.925 6.65423 203.778 6.57178C203.684 6.53056 203.364 6.43986 202.423 6.43986H201.913L201.767 5.24434L204.599 5.17838C205.894 5.1454 206.921 5.12891 207.699 5.12891C209.356 5.12891 210.583 5.25258 211.463 5.49993C212.405 5.75553 213.147 6.20076 213.743 6.86036C214.356 7.53644 214.658 8.36094 214.658 9.36683C214.658 10.2161 214.46 10.9664 214.054 11.6672C213.622 12.3515 213.026 12.8627 212.258 13.209C211.541 13.547 210.28 13.7037 208.415 13.7037H206.991L207.077 16.4658C207.077 18.0818 207.137 18.6589 207.146 18.7249C207.189 18.9723 207.293 19.1536 207.474 19.2773C207.56 19.335 207.871 19.4834 208.674 19.4834H209.417L209.572 20.6377H201.905H201.922ZM207.863 12.5082C208.709 12.5082 209.391 12.4257 209.883 12.2773C210.358 12.1372 210.755 11.8238 211.058 11.3456C211.403 10.8427 211.576 10.249 211.576 9.51524C211.576 8.41041 211.291 7.59416 210.729 7.09122C210.177 6.58827 209.236 6.33268 207.932 6.33268C207.569 6.33268 207.258 6.34092 207.016 6.34917L207.094 12.4999L207.871 12.5164L207.863 12.5082Z" fill="white"/>
<path d="M7.39168 21C5.20711 21 3.32475 20.2497 1.80505 18.7656C1.61508 19.1366 1.45966 19.5984 1.35604 20.1673L1.3215 20.3486L0.09538 20.4723L0.0090332 13.5795L1.22652 13.4476L1.27833 13.6702C2.18497 17.6855 4.09323 19.6396 7.12401 19.6396C8.50555 19.6396 9.57625 19.2933 10.3016 18.6172C11.0873 17.8669 11.4154 17.1249 11.4154 16.1519C11.4154 15.0636 11.096 14.1072 10.5606 13.596C9.92164 12.9941 8.65234 12.3015 6.77862 11.5347C5.29345 10.9246 3.89464 10.3557 3.0139 9.81154C2.13316 9.29211 1.21789 8.70671 0.717077 7.83274C0.147188 6.81037 0.0608413 5.75501 0.0608413 5.21908C0.0608413 3.71849 0.604826 2.46525 1.69279 1.50059C2.75486 0.502945 4.13641 0 5.78563 0C6.68364 0 7.5471 0.14841 8.35013 0.42874C9.09271 0.69258 9.8612 1.19552 10.6124 1.93757C10.8456 1.50059 10.9923 1.07185 11.0355 0.651355L11.0528 0.453475L12.2098 0.321555L12.3048 6.02709L11.1996 6.16726L11.1391 5.96113C10.6297 4.31213 10.008 3.2073 9.17042 2.48174C8.28105 1.69847 7.17581 1.28622 5.95832 1.27797C4.82718 1.27797 3.90327 1.58304 3.35929 2.1437C2.87575 2.70436 2.60807 3.39694 2.60807 4.07303C2.60807 4.91402 3.0139 5.80448 3.64423 6.3404C4.32637 6.96702 5.62157 7.69258 7.40031 8.45112C9.23087 9.24264 10.5174 9.82803 11.3291 10.298C12.3048 10.8504 12.9783 11.4605 13.4446 12.2191C13.9713 13.1013 14.1785 13.8763 14.1785 14.9894C14.1785 16.7373 13.5568 18.1967 12.3221 19.3098C11.0614 20.4146 9.39493 20.9753 7.38305 20.9753L7.39168 21Z" fill="white"/>
<path d="M156.279 21C154.094 21 152.212 20.2497 150.692 18.7574C150.494 19.1284 150.347 19.5984 150.243 20.1673L150.209 20.3569L148.983 20.4641L148.896 13.5713L150.105 13.4393L150.157 13.662C151.064 17.6773 152.98 19.6313 156.02 19.6313C157.401 19.6313 158.463 19.285 159.189 18.6172C159.957 17.8751 160.303 17.1166 160.303 16.1602C160.303 15.0718 159.983 14.1072 159.448 13.596C158.8 12.9941 157.531 12.2933 155.674 11.5347C154.137 10.9164 152.79 10.364 151.884 9.81979C151.012 9.29211 150.114 8.69847 149.622 7.84099C149.069 6.9258 148.957 5.91166 148.957 5.22733C148.957 3.75147 149.501 2.49823 150.571 1.50883C151.642 0.502945 153.024 0 154.656 0C155.545 0 156.417 0.140165 157.237 0.420495C157.989 0.700824 158.74 1.21201 159.482 1.92933C159.75 1.45112 159.888 1.04711 159.931 0.651355L159.957 0.453475L161.106 0.3298L161.201 6.02709L160.095 6.1755L160.035 5.96938C159.534 4.33687 158.904 3.23204 158.058 2.48999C157.16 1.69022 156.08 1.28622 154.854 1.28622C153.723 1.28622 152.79 1.59953 152.29 2.1437C151.797 2.69611 151.521 3.38045 151.521 4.08952C151.521 4.93051 151.918 5.82097 152.54 6.35689C153.257 7.00824 154.561 7.7338 156.305 8.47585C158.42 9.3828 159.517 9.90224 160.225 10.3227C161.218 10.8587 161.891 11.477 162.349 12.2438C162.876 13.1178 163.083 13.8928 163.083 15.0059C163.083 16.7621 162.453 18.2214 161.218 19.3428C159.975 20.4476 158.317 21 156.288 21H156.279Z" fill="white"/>
</g>
<defs>
<clipPath id="clip0_975_63463">
<rect width="214.667" height="21" fill="white"/>
</clipPath>
</defs>
</svg>
