<svg xmlns="http://www.w3.org/2000/svg" fill="none" viewBox="0 0 78 40" height="40" width="78">
<g clip-path="url(#clip0_1333_191)">
<path fill="#E04403" d="M19.4452 39.7688C19.5608 39.7688 19.6186 39.7341 19.6186 39.6532V36.7167C19.6186 36.6358 19.5608 36.6011 19.4452 36.6011V36.4855H20.5203V36.6011C20.4047 36.6011 20.3469 36.6358 20.3469 36.7167V39.6532C20.3469 39.7341 20.4047 39.7688 20.5203 39.7688V39.8844H19.4452V39.7688Z"></path>
<path fill="#E04403" d="M23.5607 39.6532C23.5607 39.7341 23.607 39.7688 23.6995 39.7688V39.8844H22.7053V39.7688C22.7053 39.7688 22.7631 39.7688 22.7862 39.7341C22.8093 39.711 22.8209 39.6878 22.8209 39.6532V37.0867H21.7573C21.7573 37.0867 21.6764 37.0867 21.6417 37.1214C21.607 37.1445 21.5839 37.1792 21.5839 37.2485H21.4683V36.3468H21.5839C21.5839 36.4046 21.607 36.4508 21.6417 36.474C21.6764 36.4971 21.711 36.5087 21.7573 36.5087H24.6243C24.6243 36.5087 24.7053 36.5086 24.7399 36.474C24.7746 36.4508 24.7977 36.4162 24.7977 36.3468H24.9133V37.2485H24.7977C24.7977 37.1907 24.7746 37.1445 24.7399 37.1214C24.7053 37.0982 24.6706 37.0867 24.6243 37.0867H23.5607V39.6532Z"></path>
<path fill="#E04403" d="M25.0868 39.7687C25.0868 39.7687 25.1908 39.7341 25.214 39.6878C25.2486 39.6416 25.2718 39.5838 25.3064 39.526L26.4972 37.0173C26.4972 37.0173 26.555 36.9133 26.5781 36.867C26.6012 36.8208 26.6128 36.7745 26.6128 36.7398C26.6128 36.6936 26.6012 36.6705 26.5666 36.6474C26.5319 36.6242 26.5088 36.6127 26.4741 36.6127V36.4971H27.5608V36.6127C27.5608 36.6127 27.503 36.6358 27.4683 36.6474C27.4336 36.6589 27.4221 36.6936 27.4221 36.7398C27.4221 36.7745 27.4221 36.8092 27.4452 36.8439C27.4683 36.8786 27.4799 36.9248 27.5145 36.9826L28.8556 39.6069C28.8556 39.6069 28.9018 39.6878 28.9481 39.7109C28.9943 39.7341 29.029 39.7572 29.0752 39.7803V39.8959H27.9423V39.7803C27.9423 39.7803 27.977 39.7803 28.0116 39.7572C28.0348 39.7456 28.0463 39.7225 28.0463 39.6994C28.0463 39.6531 28.0348 39.5953 28.0001 39.526L27.7573 39.052H26.1851L25.9538 39.5144C25.9076 39.6069 25.8845 39.6647 25.8845 39.7109C25.8845 39.7572 25.9307 39.7803 26.0116 39.7803V39.8959H25.0984V39.7803L25.0868 39.7687ZM27.5145 38.5664L26.9712 37.3641L26.3585 38.5664H27.503H27.5145Z"></path>
<path fill="#E04403" d="M33.214 39.9999C33.214 39.9306 33.1909 39.8959 33.1562 39.8843C33.1099 39.8843 33.0637 39.8728 32.9943 39.8728H29.9192V39.7572C30.0464 39.7572 30.1157 39.7225 30.1157 39.6416V36.7052C30.1157 36.6242 30.0464 36.5895 29.9192 36.5895V36.4739H31.029V36.5895C30.9134 36.5895 30.844 36.6242 30.844 36.7052V39.2716H32.9828C33.0521 39.2716 33.0984 39.2601 33.1446 39.2254C33.1909 39.1907 33.2024 39.156 33.2024 39.0982H33.318V39.9884H33.2024L33.214 39.9999Z"></path>
<path fill="#E04403" d="M34.2083 39.7688C34.3239 39.7688 34.3817 39.7341 34.3817 39.6532V36.7167C34.3817 36.6358 34.3239 36.6011 34.2083 36.6011V36.4855H35.2834V36.6011C35.1678 36.6011 35.11 36.6358 35.11 36.7167V39.6532C35.11 39.7341 35.1678 39.7688 35.2834 39.7688V39.8844H34.2083V39.7688Z"></path>
<path fill="#E04403" d="M36.1735 39.7687C36.1735 39.7687 36.2775 39.7341 36.3006 39.6878C36.3353 39.6416 36.3584 39.5838 36.3931 39.526L37.5839 37.0173C37.5839 37.0173 37.6417 36.9133 37.6648 36.867C37.6879 36.8208 37.6995 36.7745 37.6995 36.7398C37.6995 36.6936 37.6879 36.6705 37.6532 36.6474C37.6185 36.6242 37.5954 36.6127 37.5607 36.6127V36.4971H38.6474V36.6127C38.6474 36.6127 38.5896 36.6358 38.555 36.6474C38.5203 36.6589 38.5087 36.6936 38.5087 36.7398C38.5087 36.7745 38.5087 36.8092 38.5318 36.8439C38.555 36.8786 38.5665 36.9248 38.6012 36.9826L39.9422 39.6069C39.9422 39.6069 39.9885 39.6878 40.0347 39.7109C40.081 39.7341 40.1157 39.7572 40.1619 39.7803V39.8959H39.029V39.7803C39.029 39.7803 39.0636 39.7803 39.0983 39.7572C39.1214 39.7456 39.133 39.7225 39.133 39.6994C39.133 39.6531 39.1214 39.5953 39.0868 39.526L38.844 39.052H37.2717L37.0405 39.5144C36.9943 39.6069 36.9711 39.6647 36.9711 39.7109C36.9711 39.7572 37.0174 39.7803 37.0983 39.7803V39.8959H36.185V39.7803L36.1735 39.7687ZM38.6012 38.5664L38.0579 37.3641L37.4451 38.5664H38.5896H38.6012Z"></path>
<path fill="#E04403" d="M43.792 39.8034C43.792 39.8034 43.8729 39.7919 43.9076 39.7688C43.9423 39.7456 43.9538 39.6994 43.9538 39.6185V37.4566C43.9538 37.4566 43.8845 37.4566 43.8498 37.4566C43.8036 37.4566 43.7689 37.4682 43.7342 37.4797C43.6995 37.4797 43.6648 37.5029 43.6301 37.526C43.5955 37.5491 43.5723 37.5722 43.5608 37.6069H43.4799V36.7977H43.5608C43.5608 36.7977 43.5839 36.867 43.6186 36.8786C43.6533 36.8901 43.6995 36.9017 43.7226 36.9017C43.792 36.9017 43.8614 36.8786 43.9076 36.8323C43.9538 36.7861 43.977 36.7283 43.977 36.6705C43.977 36.6127 43.9654 36.5664 43.9307 36.5549C43.9076 36.5433 43.8614 36.5202 43.8151 36.5202V36.4393H44.8671V36.5202C44.8671 36.5202 44.7747 36.5433 44.74 36.5664C44.7053 36.5896 44.6937 36.6242 44.6937 36.6589V39.6185C44.6937 39.6878 44.7053 39.7456 44.74 39.7688C44.7747 39.7919 44.8093 39.8034 44.8556 39.8034V39.8844H43.792V39.8034Z"></path>
<path fill="#E04403" d="M48.8788 38.0693C49.0984 38.1156 49.2834 38.1965 49.4221 38.3237C49.5608 38.4508 49.6302 38.6358 49.6302 38.8786C49.6302 39.0982 49.5724 39.2717 49.4568 39.4104C49.3412 39.5491 49.1909 39.6532 49.0175 39.7225C48.8441 39.7919 48.6591 39.8497 48.4626 39.8612C48.266 39.8844 48.0926 39.8959 47.9308 39.8959C47.7574 39.8959 47.584 39.8844 47.399 39.8612C47.214 39.8381 47.0522 39.7803 46.8903 39.711C46.74 39.6416 46.6013 39.5375 46.5088 39.4104C46.4048 39.2832 46.3585 39.1329 46.3585 38.9364C46.3585 38.7977 46.3816 38.6821 46.4163 38.5896C46.451 38.4971 46.5088 38.4162 46.5782 38.3584C46.6475 38.289 46.7285 38.2427 46.821 38.1965C46.9134 38.1503 47.029 38.1156 47.1446 38.0809C46.9712 38.0347 46.8209 37.9537 46.6938 37.8497C46.5666 37.7341 46.5088 37.5838 46.5088 37.3873C46.5088 37.1907 46.5551 37.0289 46.6475 36.9017C46.74 36.7861 46.8672 36.6936 47.0059 36.6243C47.1562 36.5549 47.3065 36.5086 47.4799 36.4971C47.6533 36.474 47.8152 36.4624 47.9655 36.4624C48.1157 36.4624 48.2776 36.4624 48.451 36.4971C48.6244 36.5202 48.7978 36.5664 48.9481 36.6243C49.0984 36.6821 49.2256 36.7861 49.3296 36.9017C49.4337 37.0173 49.4799 37.1792 49.4799 37.3757C49.4799 37.5838 49.4221 37.7456 49.3065 37.8497C49.1909 37.9537 49.0406 38.0347 48.8556 38.0925L48.8788 38.0693ZM48.0001 38.3237C47.3874 38.3237 47.0753 38.4971 47.0753 38.8555C47.0753 39.2138 47.3874 39.3873 48.0001 39.3873C48.6129 39.3873 48.925 39.2138 48.925 38.8555C48.925 38.4971 48.6129 38.3237 48.0001 38.3237ZM48.0117 36.9479C47.7227 36.9479 47.5262 36.9826 47.399 37.0404C47.2834 37.1098 47.214 37.2138 47.214 37.3641C47.214 37.5144 47.2718 37.6185 47.399 37.6878C47.5146 37.7572 47.7227 37.7803 48.0117 37.7803C48.3007 37.7803 48.4973 37.7456 48.6244 37.6878C48.74 37.6185 48.8094 37.5144 48.8094 37.3641C48.8094 37.2138 48.7516 37.1098 48.6244 37.0404C48.5088 36.9711 48.3007 36.9479 48.0117 36.9479Z"></path>
<path fill="#E04403" d="M50.7053 37.0751C50.7053 37.0751 50.6129 37.0751 50.5782 37.0983C50.5319 37.1098 50.5204 37.1561 50.5204 37.237H50.4395V36.3699H50.5204C50.5204 36.3699 50.5435 36.4509 50.5782 36.4624C50.6244 36.474 50.6591 36.4855 50.7053 36.4855H53.4221C53.5493 36.4855 53.6186 36.4509 53.6186 36.3699H53.6996V36.948L52.1851 39.3873C52.1389 39.4566 52.1042 39.5144 52.0579 39.5722C52.0233 39.6301 52.0001 39.6647 52.0001 39.6994C52.0001 39.7688 52.0464 39.8035 52.1273 39.8035V39.8844H50.9597V39.8035C50.9597 39.8035 51.0406 39.7803 51.0868 39.7457C51.1331 39.711 51.1793 39.6647 51.2025 39.6185L52.821 37.0751H50.7053Z"></path>
<path fill="#E04403" d="M57.0406 38.0693C57.2603 38.1156 57.4452 38.1965 57.584 38.3237C57.7227 38.4508 57.7921 38.6358 57.7921 38.8786C57.7921 39.0982 57.7343 39.2717 57.6187 39.4104C57.503 39.5491 57.3528 39.6532 57.1793 39.7225C57.0059 39.7919 56.821 39.8497 56.6244 39.8612C56.4279 39.8844 56.2545 39.8959 56.0926 39.8959C55.9192 39.8959 55.7458 39.8844 55.5609 39.8612C55.3759 39.8381 55.214 39.7803 55.0522 39.711C54.9019 39.6416 54.7632 39.5375 54.6707 39.4104C54.5666 39.2832 54.5204 39.1329 54.5204 38.9364C54.5204 38.7977 54.5435 38.6821 54.5782 38.5896C54.6129 38.4971 54.6707 38.4162 54.74 38.3584C54.8094 38.289 54.8903 38.2427 54.9828 38.1965C55.0753 38.1503 55.1909 38.1156 55.3065 38.0809C55.1331 38.0347 54.9828 37.9537 54.8556 37.8497C54.7285 37.7341 54.6707 37.5838 54.6707 37.3873C54.6707 37.1907 54.7169 37.0289 54.8094 36.9017C54.9019 36.7861 55.0291 36.6936 55.1678 36.6243C55.3181 36.5549 55.4684 36.5086 55.6418 36.4971C55.8152 36.474 55.977 36.4624 56.1273 36.4624C56.2776 36.4624 56.4395 36.4624 56.6129 36.4971C56.7863 36.5202 56.9597 36.5664 57.11 36.6243C57.2603 36.6821 57.3874 36.7861 57.4915 36.9017C57.5955 37.0173 57.6418 37.1792 57.6418 37.3757C57.6418 37.5838 57.584 37.7456 57.4684 37.8497C57.3528 37.9537 57.2025 38.0347 57.0175 38.0925L57.0406 38.0693ZM56.162 38.3237C55.5493 38.3237 55.2371 38.4971 55.2371 38.8555C55.2371 39.2138 55.5493 39.3873 56.162 39.3873C56.7747 39.3873 57.0869 39.2138 57.0869 38.8555C57.0869 38.4971 56.7747 38.3237 56.162 38.3237ZM56.1736 36.9479C55.8845 36.9479 55.688 36.9826 55.5609 37.0404C55.4452 37.1098 55.3759 37.2138 55.3759 37.3641C55.3759 37.5144 55.4337 37.6185 55.5609 37.6878C55.6765 37.7572 55.8845 37.7803 56.1736 37.7803C56.4626 37.7803 56.6591 37.7456 56.7863 37.6878C56.9019 37.6185 56.9713 37.5144 56.9713 37.3641C56.9713 37.2138 56.9134 37.1098 56.7863 37.0404C56.6707 36.9711 56.4626 36.9479 56.1736 36.9479Z"></path>
<path fill="#E04403" d="M19.4452 39.7688C19.5608 39.7688 19.6186 39.7341 19.6186 39.6532V36.7167C19.6186 36.6358 19.5608 36.6011 19.4452 36.6011V36.4855H20.5203V36.6011C20.4047 36.6011 20.3469 36.6358 20.3469 36.7167V39.6532C20.3469 39.7341 20.4047 39.7688 20.5203 39.7688V39.8844H19.4452V39.7688Z"></path>
<path fill="#E04403" d="M23.5607 39.6532C23.5607 39.7341 23.607 39.7688 23.6995 39.7688V39.8844H22.7053V39.7688C22.7053 39.7688 22.7631 39.7688 22.7862 39.7341C22.8093 39.711 22.8209 39.6878 22.8209 39.6532V37.0867H21.7573C21.7573 37.0867 21.6764 37.0867 21.6417 37.1214C21.607 37.1445 21.5839 37.1792 21.5839 37.2485H21.4683V36.3468H21.5839C21.5839 36.4046 21.607 36.4508 21.6417 36.474C21.6764 36.4971 21.711 36.5087 21.7573 36.5087H24.6243C24.6243 36.5087 24.7053 36.5086 24.7399 36.474C24.7746 36.4508 24.7977 36.4162 24.7977 36.3468H24.9133V37.2485H24.7977C24.7977 37.1907 24.7746 37.1445 24.7399 37.1214C24.7053 37.0982 24.6706 37.0867 24.6243 37.0867H23.5607V39.6532Z"></path>
<path fill="#E04403" d="M25.0868 39.7687C25.0868 39.7687 25.1908 39.7341 25.214 39.6878C25.2486 39.6416 25.2718 39.5838 25.3064 39.526L26.4972 37.0173C26.4972 37.0173 26.555 36.9133 26.5781 36.867C26.6012 36.8208 26.6128 36.7745 26.6128 36.7398C26.6128 36.6936 26.6012 36.6705 26.5666 36.6474C26.5319 36.6242 26.5088 36.6127 26.4741 36.6127V36.4971H27.5608V36.6127C27.5608 36.6127 27.503 36.6358 27.4683 36.6474C27.4336 36.6589 27.4221 36.6936 27.4221 36.7398C27.4221 36.7745 27.4221 36.8092 27.4452 36.8439C27.4683 36.8786 27.4799 36.9248 27.5145 36.9826L28.8556 39.6069C28.8556 39.6069 28.9018 39.6878 28.9481 39.7109C28.9943 39.7341 29.029 39.7572 29.0752 39.7803V39.8959H27.9423V39.7803C27.9423 39.7803 27.977 39.7803 28.0116 39.7572C28.0348 39.7456 28.0463 39.7225 28.0463 39.6994C28.0463 39.6531 28.0348 39.5953 28.0001 39.526L27.7573 39.052H26.1851L25.9538 39.5144C25.9076 39.6069 25.8845 39.6647 25.8845 39.7109C25.8845 39.7572 25.9307 39.7803 26.0116 39.7803V39.8959H25.0984V39.7803L25.0868 39.7687ZM27.5145 38.5664L26.9712 37.3641L26.3585 38.5664H27.503H27.5145Z"></path>
<path fill="#E04403" d="M33.214 39.9999C33.214 39.9306 33.1909 39.8959 33.1562 39.8843C33.1099 39.8843 33.0637 39.8728 32.9943 39.8728H29.9192V39.7572C30.0464 39.7572 30.1157 39.7225 30.1157 39.6416V36.7052C30.1157 36.6242 30.0464 36.5895 29.9192 36.5895V36.4739H31.029V36.5895C30.9134 36.5895 30.844 36.6242 30.844 36.7052V39.2716H32.9828C33.0521 39.2716 33.0984 39.2601 33.1446 39.2254C33.1909 39.1907 33.2024 39.156 33.2024 39.0982H33.318V39.9884H33.2024L33.214 39.9999Z"></path>
<path fill="#E04403" d="M34.2083 39.7688C34.3239 39.7688 34.3817 39.7341 34.3817 39.6532V36.7167C34.3817 36.6358 34.3239 36.6011 34.2083 36.6011V36.4855H35.2834V36.6011C35.1678 36.6011 35.11 36.6358 35.11 36.7167V39.6532C35.11 39.7341 35.1678 39.7688 35.2834 39.7688V39.8844H34.2083V39.7688Z"></path>
<path fill="#E04403" d="M36.1735 39.7687C36.1735 39.7687 36.2775 39.7341 36.3006 39.6878C36.3353 39.6416 36.3584 39.5838 36.3931 39.526L37.5839 37.0173C37.5839 37.0173 37.6417 36.9133 37.6648 36.867C37.6879 36.8208 37.6995 36.7745 37.6995 36.7398C37.6995 36.6936 37.6879 36.6705 37.6532 36.6474C37.6185 36.6242 37.5954 36.6127 37.5607 36.6127V36.4971H38.6474V36.6127C38.6474 36.6127 38.5896 36.6358 38.555 36.6474C38.5203 36.6589 38.5087 36.6936 38.5087 36.7398C38.5087 36.7745 38.5087 36.8092 38.5318 36.8439C38.555 36.8786 38.5665 36.9248 38.6012 36.9826L39.9422 39.6069C39.9422 39.6069 39.9885 39.6878 40.0347 39.7109C40.081 39.7341 40.1157 39.7572 40.1619 39.7803V39.8959H39.029V39.7803C39.029 39.7803 39.0636 39.7803 39.0983 39.7572C39.1214 39.7456 39.133 39.7225 39.133 39.6994C39.133 39.6531 39.1214 39.5953 39.0868 39.526L38.844 39.052H37.2717L37.0405 39.5144C36.9943 39.6069 36.9711 39.6647 36.9711 39.7109C36.9711 39.7572 37.0174 39.7803 37.0983 39.7803V39.8959H36.185V39.7803L36.1735 39.7687ZM38.6012 38.5664L38.0579 37.3641L37.4451 38.5664H38.5896H38.6012Z"></path>
<path fill="#E04403" d="M43.792 39.8034C43.792 39.8034 43.8729 39.7919 43.9076 39.7688C43.9423 39.7456 43.9538 39.6994 43.9538 39.6185V37.4566C43.9538 37.4566 43.8845 37.4566 43.8498 37.4566C43.8036 37.4566 43.7689 37.4682 43.7342 37.4797C43.6995 37.4797 43.6648 37.5029 43.6301 37.526C43.5955 37.5491 43.5723 37.5722 43.5608 37.6069H43.4799V36.7977H43.5608C43.5608 36.7977 43.5839 36.867 43.6186 36.8786C43.6533 36.8901 43.6995 36.9017 43.7226 36.9017C43.792 36.9017 43.8614 36.8786 43.9076 36.8323C43.9538 36.7861 43.977 36.7283 43.977 36.6705C43.977 36.6127 43.9654 36.5664 43.9307 36.5549C43.9076 36.5433 43.8614 36.5202 43.8151 36.5202V36.4393H44.8671V36.5202C44.8671 36.5202 44.7747 36.5433 44.74 36.5664C44.7053 36.5896 44.6937 36.6242 44.6937 36.6589V39.6185C44.6937 39.6878 44.7053 39.7456 44.74 39.7688C44.7747 39.7919 44.8093 39.8034 44.8556 39.8034V39.8844H43.792V39.8034Z"></path>
<path fill="#E04403" d="M48.8788 38.0693C49.0984 38.1156 49.2834 38.1965 49.4221 38.3237C49.5608 38.4508 49.6302 38.6358 49.6302 38.8786C49.6302 39.0982 49.5724 39.2717 49.4568 39.4104C49.3412 39.5491 49.1909 39.6532 49.0175 39.7225C48.8441 39.7919 48.6591 39.8497 48.4626 39.8612C48.266 39.8844 48.0926 39.8959 47.9308 39.8959C47.7574 39.8959 47.584 39.8844 47.399 39.8612C47.214 39.8381 47.0522 39.7803 46.8903 39.711C46.74 39.6416 46.6013 39.5375 46.5088 39.4104C46.4048 39.2832 46.3585 39.1329 46.3585 38.9364C46.3585 38.7977 46.3816 38.6821 46.4163 38.5896C46.451 38.4971 46.5088 38.4162 46.5782 38.3584C46.6475 38.289 46.7285 38.2427 46.821 38.1965C46.9134 38.1503 47.029 38.1156 47.1446 38.0809C46.9712 38.0347 46.8209 37.9537 46.6938 37.8497C46.5666 37.7341 46.5088 37.5838 46.5088 37.3873C46.5088 37.1907 46.5551 37.0289 46.6475 36.9017C46.74 36.7861 46.8672 36.6936 47.0059 36.6243C47.1562 36.5549 47.3065 36.5086 47.4799 36.4971C47.6533 36.474 47.8152 36.4624 47.9655 36.4624C48.1157 36.4624 48.2776 36.4624 48.451 36.4971C48.6244 36.5202 48.7978 36.5664 48.9481 36.6243C49.0984 36.6821 49.2256 36.7861 49.3296 36.9017C49.4337 37.0173 49.4799 37.1792 49.4799 37.3757C49.4799 37.5838 49.4221 37.7456 49.3065 37.8497C49.1909 37.9537 49.0406 38.0347 48.8556 38.0925L48.8788 38.0693ZM48.0001 38.3237C47.3874 38.3237 47.0753 38.4971 47.0753 38.8555C47.0753 39.2138 47.3874 39.3873 48.0001 39.3873C48.6129 39.3873 48.925 39.2138 48.925 38.8555C48.925 38.4971 48.6129 38.3237 48.0001 38.3237ZM48.0117 36.9479C47.7227 36.9479 47.5262 36.9826 47.399 37.0404C47.2834 37.1098 47.214 37.2138 47.214 37.3641C47.214 37.5144 47.2718 37.6185 47.399 37.6878C47.5146 37.7572 47.7227 37.7803 48.0117 37.7803C48.3007 37.7803 48.4973 37.7456 48.6244 37.6878C48.74 37.6185 48.8094 37.5144 48.8094 37.3641C48.8094 37.2138 48.7516 37.1098 48.6244 37.0404C48.5088 36.9711 48.3007 36.9479 48.0117 36.9479Z"></path>
<path fill="#E04403" d="M50.7053 37.0751C50.7053 37.0751 50.6129 37.0751 50.5782 37.0983C50.5319 37.1098 50.5204 37.1561 50.5204 37.237H50.4395V36.3699H50.5204C50.5204 36.3699 50.5435 36.4509 50.5782 36.4624C50.6244 36.474 50.6591 36.4855 50.7053 36.4855H53.4221C53.5493 36.4855 53.6186 36.4509 53.6186 36.3699H53.6996V36.948L52.1851 39.3873C52.1389 39.4566 52.1042 39.5144 52.0579 39.5722C52.0233 39.6301 52.0001 39.6647 52.0001 39.6994C52.0001 39.7688 52.0464 39.8035 52.1273 39.8035V39.8844H50.9597V39.8035C50.9597 39.8035 51.0406 39.7803 51.0868 39.7457C51.1331 39.711 51.1793 39.6647 51.2025 39.6185L52.821 37.0751H50.7053Z"></path>
<path fill="#E04403" d="M57.0406 38.0693C57.2603 38.1156 57.4452 38.1965 57.584 38.3237C57.7227 38.4508 57.7921 38.6358 57.7921 38.8786C57.7921 39.0982 57.7343 39.2717 57.6187 39.4104C57.503 39.5491 57.3528 39.6532 57.1793 39.7225C57.0059 39.7919 56.821 39.8497 56.6244 39.8612C56.4279 39.8844 56.2545 39.8959 56.0926 39.8959C55.9192 39.8959 55.7458 39.8844 55.5609 39.8612C55.3759 39.8381 55.214 39.7803 55.0522 39.711C54.9019 39.6416 54.7632 39.5375 54.6707 39.4104C54.5666 39.2832 54.5204 39.1329 54.5204 38.9364C54.5204 38.7977 54.5435 38.6821 54.5782 38.5896C54.6129 38.4971 54.6707 38.4162 54.74 38.3584C54.8094 38.289 54.8903 38.2427 54.9828 38.1965C55.0753 38.1503 55.1909 38.1156 55.3065 38.0809C55.1331 38.0347 54.9828 37.9537 54.8556 37.8497C54.7285 37.7341 54.6707 37.5838 54.6707 37.3873C54.6707 37.1907 54.7169 37.0289 54.8094 36.9017C54.9019 36.7861 55.0291 36.6936 55.1678 36.6243C55.3181 36.5549 55.4684 36.5086 55.6418 36.4971C55.8152 36.474 55.977 36.4624 56.1273 36.4624C56.2776 36.4624 56.4395 36.4624 56.6129 36.4971C56.7863 36.5202 56.9597 36.5664 57.11 36.6243C57.2603 36.6821 57.3874 36.7861 57.4915 36.9017C57.5955 37.0173 57.6418 37.1792 57.6418 37.3757C57.6418 37.5838 57.584 37.7456 57.4684 37.8497C57.3528 37.9537 57.2025 38.0347 57.0175 38.0925L57.0406 38.0693ZM56.162 38.3237C55.5493 38.3237 55.2371 38.4971 55.2371 38.8555C55.2371 39.2138 55.5493 39.3873 56.162 39.3873C56.7747 39.3873 57.0869 39.2138 57.0869 38.8555C57.0869 38.4971 56.7747 38.3237 56.162 38.3237ZM56.1736 36.9479C55.8845 36.9479 55.688 36.9826 55.5609 37.0404C55.4452 37.1098 55.3759 37.2138 55.3759 37.3641C55.3759 37.5144 55.4337 37.6185 55.5609 37.6878C55.6765 37.7572 55.8845 37.7803 56.1736 37.7803C56.4626 37.7803 56.6591 37.7456 56.7863 37.6878C56.9019 37.6185 56.9713 37.5144 56.9713 37.3641C56.9713 37.2138 56.9134 37.1098 56.7863 37.0404C56.6707 36.9711 56.4626 36.9479 56.1736 36.9479Z"></path>
<path fill="#E04403" d="M19.4452 39.7688C19.5608 39.7688 19.6186 39.7341 19.6186 39.6532V36.7167C19.6186 36.6358 19.5608 36.6011 19.4452 36.6011V36.4855H20.5203V36.6011C20.4047 36.6011 20.3469 36.6358 20.3469 36.7167V39.6532C20.3469 39.7341 20.4047 39.7688 20.5203 39.7688V39.8844H19.4452V39.7688Z"></path>
<path fill="#E04403" d="M23.5607 39.6532C23.5607 39.7341 23.607 39.7688 23.6995 39.7688V39.8844H22.7053V39.7688C22.7053 39.7688 22.7631 39.7688 22.7862 39.7341C22.8093 39.711 22.8209 39.6878 22.8209 39.6532V37.0867H21.7573C21.7573 37.0867 21.6764 37.0867 21.6417 37.1214C21.607 37.1445 21.5839 37.1792 21.5839 37.2485H21.4683V36.3468H21.5839C21.5839 36.4046 21.607 36.4508 21.6417 36.474C21.6764 36.4971 21.711 36.5087 21.7573 36.5087H24.6243C24.6243 36.5087 24.7053 36.5086 24.7399 36.474C24.7746 36.4508 24.7977 36.4162 24.7977 36.3468H24.9133V37.2485H24.7977C24.7977 37.1907 24.7746 37.1445 24.7399 37.1214C24.7053 37.0982 24.6706 37.0867 24.6243 37.0867H23.5607V39.6532Z"></path>
<path fill="#E04403" d="M25.0868 39.7687C25.0868 39.7687 25.1908 39.7341 25.214 39.6878C25.2486 39.6416 25.2718 39.5838 25.3064 39.526L26.4972 37.0173C26.4972 37.0173 26.555 36.9133 26.5781 36.867C26.6012 36.8208 26.6128 36.7745 26.6128 36.7398C26.6128 36.6936 26.6012 36.6705 26.5666 36.6474C26.5319 36.6242 26.5088 36.6127 26.4741 36.6127V36.4971H27.5608V36.6127C27.5608 36.6127 27.503 36.6358 27.4683 36.6474C27.4336 36.6589 27.4221 36.6936 27.4221 36.7398C27.4221 36.7745 27.4221 36.8092 27.4452 36.8439C27.4683 36.8786 27.4799 36.9248 27.5145 36.9826L28.8556 39.6069C28.8556 39.6069 28.9018 39.6878 28.9481 39.7109C28.9943 39.7341 29.029 39.7572 29.0752 39.7803V39.8959H27.9423V39.7803C27.9423 39.7803 27.977 39.7803 28.0116 39.7572C28.0348 39.7456 28.0463 39.7225 28.0463 39.6994C28.0463 39.6531 28.0348 39.5953 28.0001 39.526L27.7573 39.052H26.1851L25.9538 39.5144C25.9076 39.6069 25.8845 39.6647 25.8845 39.7109C25.8845 39.7572 25.9307 39.7803 26.0116 39.7803V39.8959H25.0984V39.7803L25.0868 39.7687ZM27.5145 38.5664L26.9712 37.3641L26.3585 38.5664H27.503H27.5145Z"></path>
<path fill="#E04403" d="M33.214 39.9999C33.214 39.9306 33.1909 39.8959 33.1562 39.8843C33.1099 39.8843 33.0637 39.8728 32.9943 39.8728H29.9192V39.7572C30.0464 39.7572 30.1157 39.7225 30.1157 39.6416V36.7052C30.1157 36.6242 30.0464 36.5895 29.9192 36.5895V36.4739H31.029V36.5895C30.9134 36.5895 30.844 36.6242 30.844 36.7052V39.2716H32.9828C33.0521 39.2716 33.0984 39.2601 33.1446 39.2254C33.1909 39.1907 33.2024 39.156 33.2024 39.0982H33.318V39.9884H33.2024L33.214 39.9999Z"></path>
<path fill="#E04403" d="M34.2083 39.7688C34.3239 39.7688 34.3817 39.7341 34.3817 39.6532V36.7167C34.3817 36.6358 34.3239 36.6011 34.2083 36.6011V36.4855H35.2834V36.6011C35.1678 36.6011 35.11 36.6358 35.11 36.7167V39.6532C35.11 39.7341 35.1678 39.7688 35.2834 39.7688V39.8844H34.2083V39.7688Z"></path>
<path fill="#E04403" d="M36.1735 39.7687C36.1735 39.7687 36.2775 39.7341 36.3006 39.6878C36.3353 39.6416 36.3584 39.5838 36.3931 39.526L37.5839 37.0173C37.5839 37.0173 37.6417 36.9133 37.6648 36.867C37.6879 36.8208 37.6995 36.7745 37.6995 36.7398C37.6995 36.6936 37.6879 36.6705 37.6532 36.6474C37.6185 36.6242 37.5954 36.6127 37.5607 36.6127V36.4971H38.6474V36.6127C38.6474 36.6127 38.5896 36.6358 38.555 36.6474C38.5203 36.6589 38.5087 36.6936 38.5087 36.7398C38.5087 36.7745 38.5087 36.8092 38.5318 36.8439C38.555 36.8786 38.5665 36.9248 38.6012 36.9826L39.9422 39.6069C39.9422 39.6069 39.9885 39.6878 40.0347 39.7109C40.081 39.7341 40.1157 39.7572 40.1619 39.7803V39.8959H39.029V39.7803C39.029 39.7803 39.0636 39.7803 39.0983 39.7572C39.1214 39.7456 39.133 39.7225 39.133 39.6994C39.133 39.6531 39.1214 39.5953 39.0868 39.526L38.844 39.052H37.2717L37.0405 39.5144C36.9943 39.6069 36.9711 39.6647 36.9711 39.7109C36.9711 39.7572 37.0174 39.7803 37.0983 39.7803V39.8959H36.185V39.7803L36.1735 39.7687ZM38.6012 38.5664L38.0579 37.3641L37.4451 38.5664H38.5896H38.6012Z"></path>
<path fill="#E04403" d="M43.792 39.8034C43.792 39.8034 43.8729 39.7919 43.9076 39.7688C43.9423 39.7456 43.9538 39.6994 43.9538 39.6185V37.4566C43.9538 37.4566 43.8845 37.4566 43.8498 37.4566C43.8036 37.4566 43.7689 37.4682 43.7342 37.4797C43.6995 37.4797 43.6648 37.5029 43.6301 37.526C43.5955 37.5491 43.5723 37.5722 43.5608 37.6069H43.4799V36.7977H43.5608C43.5608 36.7977 43.5839 36.867 43.6186 36.8786C43.6533 36.8901 43.6995 36.9017 43.7226 36.9017C43.792 36.9017 43.8614 36.8786 43.9076 36.8323C43.9538 36.7861 43.977 36.7283 43.977 36.6705C43.977 36.6127 43.9654 36.5664 43.9307 36.5549C43.9076 36.5433 43.8614 36.5202 43.8151 36.5202V36.4393H44.8671V36.5202C44.8671 36.5202 44.7747 36.5433 44.74 36.5664C44.7053 36.5896 44.6937 36.6242 44.6937 36.6589V39.6185C44.6937 39.6878 44.7053 39.7456 44.74 39.7688C44.7747 39.7919 44.8093 39.8034 44.8556 39.8034V39.8844H43.792V39.8034Z"></path>
<path fill="#E04403" d="M48.8788 38.0693C49.0984 38.1156 49.2834 38.1965 49.4221 38.3237C49.5608 38.4508 49.6302 38.6358 49.6302 38.8786C49.6302 39.0982 49.5724 39.2717 49.4568 39.4104C49.3412 39.5491 49.1909 39.6532 49.0175 39.7225C48.8441 39.7919 48.6591 39.8497 48.4626 39.8612C48.266 39.8844 48.0926 39.8959 47.9308 39.8959C47.7574 39.8959 47.584 39.8844 47.399 39.8612C47.214 39.8381 47.0522 39.7803 46.8903 39.711C46.74 39.6416 46.6013 39.5375 46.5088 39.4104C46.4048 39.2832 46.3585 39.1329 46.3585 38.9364C46.3585 38.7977 46.3816 38.6821 46.4163 38.5896C46.451 38.4971 46.5088 38.4162 46.5782 38.3584C46.6475 38.289 46.7285 38.2427 46.821 38.1965C46.9134 38.1503 47.029 38.1156 47.1446 38.0809C46.9712 38.0347 46.8209 37.9537 46.6938 37.8497C46.5666 37.7341 46.5088 37.5838 46.5088 37.3873C46.5088 37.1907 46.5551 37.0289 46.6475 36.9017C46.74 36.7861 46.8672 36.6936 47.0059 36.6243C47.1562 36.5549 47.3065 36.5086 47.4799 36.4971C47.6533 36.474 47.8152 36.4624 47.9655 36.4624C48.1157 36.4624 48.2776 36.4624 48.451 36.4971C48.6244 36.5202 48.7978 36.5664 48.9481 36.6243C49.0984 36.6821 49.2256 36.7861 49.3296 36.9017C49.4337 37.0173 49.4799 37.1792 49.4799 37.3757C49.4799 37.5838 49.4221 37.7456 49.3065 37.8497C49.1909 37.9537 49.0406 38.0347 48.8556 38.0925L48.8788 38.0693ZM48.0001 38.3237C47.3874 38.3237 47.0753 38.4971 47.0753 38.8555C47.0753 39.2138 47.3874 39.3873 48.0001 39.3873C48.6129 39.3873 48.925 39.2138 48.925 38.8555C48.925 38.4971 48.6129 38.3237 48.0001 38.3237ZM48.0117 36.9479C47.7227 36.9479 47.5262 36.9826 47.399 37.0404C47.2834 37.1098 47.214 37.2138 47.214 37.3641C47.214 37.5144 47.2718 37.6185 47.399 37.6878C47.5146 37.7572 47.7227 37.7803 48.0117 37.7803C48.3007 37.7803 48.4973 37.7456 48.6244 37.6878C48.74 37.6185 48.8094 37.5144 48.8094 37.3641C48.8094 37.2138 48.7516 37.1098 48.6244 37.0404C48.5088 36.9711 48.3007 36.9479 48.0117 36.9479Z"></path>
<path fill="#E04403" d="M50.7053 37.0751C50.7053 37.0751 50.6129 37.0751 50.5782 37.0983C50.5319 37.1098 50.5204 37.1561 50.5204 37.237H50.4395V36.3699H50.5204C50.5204 36.3699 50.5435 36.4509 50.5782 36.4624C50.6244 36.474 50.6591 36.4855 50.7053 36.4855H53.4221C53.5493 36.4855 53.6186 36.4509 53.6186 36.3699H53.6996V36.948L52.1851 39.3873C52.1389 39.4566 52.1042 39.5144 52.0579 39.5722C52.0233 39.6301 52.0001 39.6647 52.0001 39.6994C52.0001 39.7688 52.0464 39.8035 52.1273 39.8035V39.8844H50.9597V39.8035C50.9597 39.8035 51.0406 39.7803 51.0868 39.7457C51.1331 39.711 51.1793 39.6647 51.2025 39.6185L52.821 37.0751H50.7053Z"></path>
<path fill="#E04403" d="M57.0406 38.0693C57.2603 38.1156 57.4452 38.1965 57.584 38.3237C57.7227 38.4508 57.7921 38.6358 57.7921 38.8786C57.7921 39.0982 57.7343 39.2717 57.6187 39.4104C57.503 39.5491 57.3528 39.6532 57.1793 39.7225C57.0059 39.7919 56.821 39.8497 56.6244 39.8612C56.4279 39.8844 56.2545 39.8959 56.0926 39.8959C55.9192 39.8959 55.7458 39.8844 55.5609 39.8612C55.3759 39.8381 55.214 39.7803 55.0522 39.711C54.9019 39.6416 54.7632 39.5375 54.6707 39.4104C54.5666 39.2832 54.5204 39.1329 54.5204 38.9364C54.5204 38.7977 54.5435 38.6821 54.5782 38.5896C54.6129 38.4971 54.6707 38.4162 54.74 38.3584C54.8094 38.289 54.8903 38.2427 54.9828 38.1965C55.0753 38.1503 55.1909 38.1156 55.3065 38.0809C55.1331 38.0347 54.9828 37.9537 54.8556 37.8497C54.7285 37.7341 54.6707 37.5838 54.6707 37.3873C54.6707 37.1907 54.7169 37.0289 54.8094 36.9017C54.9019 36.7861 55.0291 36.6936 55.1678 36.6243C55.3181 36.5549 55.4684 36.5086 55.6418 36.4971C55.8152 36.474 55.977 36.4624 56.1273 36.4624C56.2776 36.4624 56.4395 36.4624 56.6129 36.4971C56.7863 36.5202 56.9597 36.5664 57.11 36.6243C57.2603 36.6821 57.3874 36.7861 57.4915 36.9017C57.5955 37.0173 57.6418 37.1792 57.6418 37.3757C57.6418 37.5838 57.584 37.7456 57.4684 37.8497C57.3528 37.9537 57.2025 38.0347 57.0175 38.0925L57.0406 38.0693ZM56.162 38.3237C55.5493 38.3237 55.2371 38.4971 55.2371 38.8555C55.2371 39.2138 55.5493 39.3873 56.162 39.3873C56.7747 39.3873 57.0869 39.2138 57.0869 38.8555C57.0869 38.4971 56.7747 38.3237 56.162 38.3237ZM56.1736 36.9479C55.8845 36.9479 55.688 36.9826 55.5609 37.0404C55.4452 37.1098 55.3759 37.2138 55.3759 37.3641C55.3759 37.5144 55.4337 37.6185 55.5609 37.6878C55.6765 37.7572 55.8845 37.7803 56.1736 37.7803C56.4626 37.7803 56.6591 37.7456 56.7863 37.6878C56.9019 37.6185 56.9713 37.5144 56.9713 37.3641C56.9713 37.2138 56.9134 37.1098 56.7863 37.0404C56.6707 36.9711 56.4626 36.9479 56.1736 36.9479Z"></path>
<path fill="#E04403" d="M33.8035 4.54332C32.6243 4.39303 28.1503 8.64737 25.1908 12.0693C20.7284 17.2138 14.3815 29.6647 14.3815 29.6647L14.1041 29.711C13.2255 27.3295 12.5087 25.2023 12.8787 22.7052C13.0868 21.3063 13.5376 19.5838 14.5434 16.5318C15.9538 12.0809 16.2659 10.867 16.5665 8.87858C17.2486 4.31211 15.9769 1.01731 12.3469 0.739854C7.80351 0.416155 3.00583 5.12136 1.72259 11.9422C0.774611 16.9479 1.66478 20.6242 4.55496 21.2023L5.78039 21.8612C5.78039 21.8612 5.69947 21.8612 5.66478 21.8728C0.994265 22.4393 -0.647354 18.7283 0.219698 12.9017C1.2486 5.96529 7.20236 -0.254366 12.7168 -3.0336e-05C17.1908 0.219623 19.3642 5.1098 18.5087 10.8901C18.3353 12.0693 18.0925 13.2138 17.7804 14.2659C17.607 14.8092 17.2139 16.0693 16.5665 18.0809C16.4972 18.289 16.1157 19.5953 15.3758 21.9422C14.6706 24.2543 14.4509 25.052 14.2313 26.5318C14.0578 27.711 14.2313 28.104 14.3469 28.3699C16.8555 22.0809 20.8671 15.3988 25.1099 10.5318C28.4856 6.63581 32.9018 3.28321 34.9827 3.5491C34.9827 3.5491 34.7862 3.74563 33.8151 4.54332M24.185 22.6821C24.0232 23.0289 23.9076 23.2485 23.9076 23.2485C27.5607 21.7919 28.9596 20.6127 29.9538 18.5664C30.1619 18.1503 29.8729 17.6416 29.5492 17.6416C28.6474 17.6416 27.5839 18.3699 26.1966 19.919C25.3758 20.9017 24.6012 21.9653 24.185 22.6705M75.0058 24.3699L75.3295 24.4855C74.8787 25.1907 74.2081 25.9884 73.318 26.9364C71.896 28.3699 70.6128 29.1907 69.7688 29.1792C68.9596 29.1792 68.1966 28.2774 67.9885 27.1445C67.8844 26.578 67.8844 26.0347 68.0347 25.4104C67.5261 25.9422 66.9133 26.5433 66.2081 27.1907C64.7284 28.4971 63.7457 29.0173 62.9018 29.0058C61.9422 29.0058 61.1677 28.2543 60.9596 27.156C60.7515 26.0231 61.0289 24.8901 61.8613 23.5144L64.1966 19.7688C64.9249 18.4624 64.7168 18.4508 64.6474 18.2312C64.6012 18.0925 64.37 17.9884 64.2081 17.9884C63.3295 17.9884 62.1041 19.1214 60.4278 21.0636C58.3006 23.4913 56.7052 25.5838 55.6532 27.7456L55.1677 28.6474H52.2659L53.8498 25.5607C53.318 26.0925 52.7168 26.6474 52.0463 27.1792C50.3584 28.5202 49.0752 29.0751 47.7804 29.0751C46.3237 29.0751 45.2833 28.1387 44.9943 26.578C44.9018 26.0809 44.8787 25.5722 44.9133 25.0751C44.3469 25.6994 43.5839 26.4393 42.6706 27.2601C41.318 28.4971 40.4162 28.9826 39.5723 28.9711C38.6937 28.9711 37.8035 28.1503 37.6185 27.156C37.3989 25.9884 37.7341 24.7861 38.844 23.052L40.4162 20.4393C41.6879 18.2543 41.6185 18.5664 41.5607 18.1387C41.5261 17.9653 41.1677 17.7225 40.9018 17.7803C39.711 18.0347 38.8555 18.9133 36.185 21.5144C34.4162 23.2485 33.4798 25.0404 32.844 26.3121L31.711 28.5318H28.8093L30.4162 25.3988C29.9422 25.815 29.3873 26.289 28.7399 26.7745C26.6937 28.289 25.0752 28.9479 23.422 28.9364C21.9422 28.9364 20.7052 27.8959 20.4278 26.4393C20 24.0925 21.3989 21.2716 23.9885 19.237C25.6185 17.9306 27.607 17.1676 29.2486 17.1792C30.0925 17.1792 30.6821 17.5722 30.7977 18.2196C30.9827 19.2485 29.8613 20.8323 28.1157 21.8844C26.5781 22.7977 24.37 23.7803 23.4336 23.9422C22.3237 26.1271 22.1157 26.763 22.2428 27.4797C22.3584 28.0809 22.7862 28.1618 23.5261 28.1618C25.0752 28.1618 26.4972 27.4797 28.659 25.7572C29.6301 24.9826 31.0867 23.5722 31.6532 22.9826C31.6532 22.9826 33.2833 20.3699 33.896 19.4451C35.0636 17.6532 37.2024 17.5722 37.2024 17.5722L35.2602 21.5607L35.5261 21.237C38.1966 18.5664 39.5492 17.1907 41.1677 17.1907C42.1735 17.1907 42.8555 17.9306 43.0868 19.1329C43.2602 20.0578 42.9943 21.2601 42.4162 22.2081L40.0694 26.0925C39.2024 27.8266 39.1792 27.7572 39.2602 28.0693C39.318 28.2659 39.5145 28.3352 39.7457 28.3352C40.6937 28.3468 43.1792 26.0809 45.2139 23.7456C45.6532 21.9422 46.7515 20.4855 48.659 19.0173C49.9654 18.0115 51.4336 17.2601 52.7399 17.052C53.422 16.9017 55.5376 16.7167 56.3931 17.1676L55.2255 17.7572C52.5434 17.5144 50.9018 19.3873 49.0405 21.7803C47.133 24.2312 46.2428 26.7861 46.8209 27.919C46.9249 28.3121 47.4683 28.3352 48.0116 28.3352C49.5954 28.3352 51.6532 26.8555 54.4509 23.8497L55.0405 23.1329L56.3931 20.9826L57.7573 18.5318C59.3758 15.3641 61.5954 11.3757 62.3469 10.2543C63.8613 7.98841 65.237 6.17338 66.6359 5.17916C67.607 4.49708 68.5318 4.4624 69.2602 4.4624C69.2602 4.4624 68.6243 5.00575 68.1619 5.4335C67.1561 6.09245 65.9422 7.69939 65.0752 9.08667C64.2081 10.474 63.8151 11.0404 61.7804 14.9826C59.7457 18.9248 57.6648 23.0636 57.6648 23.0636L58.7168 21.8959C59.0174 21.6185 59.133 21.4104 60.185 20.2659C62.1041 18.1849 63.4914 17.052 64.555 17.2254C65.3873 17.3641 66.1619 18.1271 66.37 19.2254C66.5781 20.3584 66.3353 21.3526 65.4683 22.7977L63.5261 26.0115C62.8787 27.1098 62.5087 27.8844 62.5318 28.0578C62.5781 28.3006 62.7515 28.4046 63.1099 28.393C63.4336 28.393 63.7342 28.2312 64.8902 27.4566C65.7688 26.867 67.4567 25.156 68.6937 23.6994C68.8324 23.3641 68.844 23.4913 69.0405 23.0982C69.0405 23.0982 70.8671 19.9884 71.3989 19.3295C72.8324 17.5491 74.6128 17.815 74.6128 17.815L70.37 26.2081L70.185 26.6243C69.6995 27.7688 69.7457 27.7688 69.7457 27.9306C69.7457 28.1503 70.0347 28.2543 70.2659 28.2543C70.5896 28.2543 71.1908 27.9653 72.2428 27.0173C72.9249 26.4624 73.8613 25.3641 74.7053 24.2774L75.0174 24.4046L75.0058 24.3699ZM75.2139 13.237C75.0752 13.3526 74.8555 13.6069 74.5896 13.9884L74.555 14.0578L73.5607 15.7919C73.5607 15.7919 74.8209 16.2196 75.5954 15.5029C75.7226 15.3873 75.9654 15.0636 76.1966 14.7283L76.2197 14.6936L77.237 12.9942C77.237 12.9942 76.0232 12.5664 75.2139 13.2485"></path>
<path fill="#E04403" d="M33.8035 4.54332C32.6243 4.39303 28.1503 8.64737 25.1908 12.0693C20.7284 17.2138 14.3815 29.6647 14.3815 29.6647L14.1041 29.711C13.2255 27.3295 12.5087 25.2023 12.8787 22.7052C13.0868 21.3063 13.5376 19.5838 14.5434 16.5318C15.9538 12.0809 16.2659 10.867 16.5665 8.87858C17.2486 4.31211 15.9769 1.01731 12.3469 0.739854C7.80351 0.416155 3.00583 5.12136 1.72259 11.9422C0.774611 16.9479 1.66478 20.6242 4.55496 21.2023L5.78039 21.8612C5.78039 21.8612 5.69947 21.8612 5.66478 21.8728C0.994265 22.4393 -0.647354 18.7283 0.219698 12.9017C1.2486 5.96529 7.20236 -0.254366 12.7168 -3.0336e-05C17.1908 0.219623 19.3642 5.1098 18.5087 10.8901C18.3353 12.0693 18.0925 13.2138 17.7804 14.2659C17.607 14.8092 17.2139 16.0693 16.5665 18.0809C16.4972 18.289 16.1157 19.5953 15.3758 21.9422C14.6706 24.2543 14.4509 25.052 14.2313 26.5318C14.0578 27.711 14.2313 28.104 14.3469 28.3699C16.8555 22.0809 20.8671 15.3988 25.1099 10.5318C28.4856 6.63581 32.9018 3.28321 34.9827 3.5491C34.9827 3.5491 34.7862 3.74563 33.8151 4.54332M24.185 22.6821C24.0232 23.0289 23.9076 23.2485 23.9076 23.2485C27.5607 21.7919 28.9596 20.6127 29.9538 18.5664C30.1619 18.1503 29.8729 17.6416 29.5492 17.6416C28.6474 17.6416 27.5839 18.3699 26.1966 19.919C25.3758 20.9017 24.6012 21.9653 24.185 22.6705M75.0058 24.3699L75.3295 24.4855C74.8787 25.1907 74.2081 25.9884 73.318 26.9364C71.896 28.3699 70.6128 29.1907 69.7688 29.1792C68.9596 29.1792 68.1966 28.2774 67.9885 27.1445C67.8844 26.578 67.8844 26.0347 68.0347 25.4104C67.5261 25.9422 66.9133 26.5433 66.2081 27.1907C64.7284 28.4971 63.7457 29.0173 62.9018 29.0058C61.9422 29.0058 61.1677 28.2543 60.9596 27.156C60.7515 26.0231 61.0289 24.8901 61.8613 23.5144L64.1966 19.7688C64.9249 18.4624 64.7168 18.4508 64.6474 18.2312C64.6012 18.0925 64.37 17.9884 64.2081 17.9884C63.3295 17.9884 62.1041 19.1214 60.4278 21.0636C58.3006 23.4913 56.7052 25.5838 55.6532 27.7456L55.1677 28.6474H52.2659L53.8498 25.5607C53.318 26.0925 52.7168 26.6474 52.0463 27.1792C50.3584 28.5202 49.0752 29.0751 47.7804 29.0751C46.3237 29.0751 45.2833 28.1387 44.9943 26.578C44.9018 26.0809 44.8787 25.5722 44.9133 25.0751C44.3469 25.6994 43.5839 26.4393 42.6706 27.2601C41.318 28.4971 40.4162 28.9826 39.5723 28.9711C38.6937 28.9711 37.8035 28.1503 37.6185 27.156C37.3989 25.9884 37.7341 24.7861 38.844 23.052L40.4162 20.4393C41.6879 18.2543 41.6185 18.5664 41.5607 18.1387C41.5261 17.9653 41.1677 17.7225 40.9018 17.7803C39.711 18.0347 38.8555 18.9133 36.185 21.5144C34.4162 23.2485 33.4798 25.0404 32.844 26.3121L31.711 28.5318H28.8093L30.4162 25.3988C29.9422 25.815 29.3873 26.289 28.7399 26.7745C26.6937 28.289 25.0752 28.9479 23.422 28.9364C21.9422 28.9364 20.7052 27.8959 20.4278 26.4393C20 24.0925 21.3989 21.2716 23.9885 19.237C25.6185 17.9306 27.607 17.1676 29.2486 17.1792C30.0925 17.1792 30.6821 17.5722 30.7977 18.2196C30.9827 19.2485 29.8613 20.8323 28.1157 21.8844C26.5781 22.7977 24.37 23.7803 23.4336 23.9422C22.3237 26.1271 22.1157 26.763 22.2428 27.4797C22.3584 28.0809 22.7862 28.1618 23.5261 28.1618C25.0752 28.1618 26.4972 27.4797 28.659 25.7572C29.6301 24.9826 31.0867 23.5722 31.6532 22.9826C31.6532 22.9826 33.2833 20.3699 33.896 19.4451C35.0636 17.6532 37.2024 17.5722 37.2024 17.5722L35.2602 21.5607L35.5261 21.237C38.1966 18.5664 39.5492 17.1907 41.1677 17.1907C42.1735 17.1907 42.8555 17.9306 43.0868 19.1329C43.2602 20.0578 42.9943 21.2601 42.4162 22.2081L40.0694 26.0925C39.2024 27.8266 39.1792 27.7572 39.2602 28.0693C39.318 28.2659 39.5145 28.3352 39.7457 28.3352C40.6937 28.3468 43.1792 26.0809 45.2139 23.7456C45.6532 21.9422 46.7515 20.4855 48.659 19.0173C49.9654 18.0115 51.4336 17.2601 52.7399 17.052C53.422 16.9017 55.5376 16.7167 56.3931 17.1676L55.2255 17.7572C52.5434 17.5144 50.9018 19.3873 49.0405 21.7803C47.133 24.2312 46.2428 26.7861 46.8209 27.919C46.9249 28.3121 47.4683 28.3352 48.0116 28.3352C49.5954 28.3352 51.6532 26.8555 54.4509 23.8497L55.0405 23.1329L56.3931 20.9826L57.7573 18.5318C59.3758 15.3641 61.5954 11.3757 62.3469 10.2543C63.8613 7.98841 65.237 6.17338 66.6359 5.17916C67.607 4.49708 68.5318 4.4624 69.2602 4.4624C69.2602 4.4624 68.6243 5.00575 68.1619 5.4335C67.1561 6.09245 65.9422 7.69939 65.0752 9.08667C64.2081 10.474 63.8151 11.0404 61.7804 14.9826C59.7457 18.9248 57.6648 23.0636 57.6648 23.0636L58.7168 21.8959C59.0174 21.6185 59.133 21.4104 60.185 20.2659C62.1041 18.1849 63.4914 17.052 64.555 17.2254C65.3873 17.3641 66.1619 18.1271 66.37 19.2254C66.5781 20.3584 66.3353 21.3526 65.4683 22.7977L63.5261 26.0115C62.8787 27.1098 62.5087 27.8844 62.5318 28.0578C62.5781 28.3006 62.7515 28.4046 63.1099 28.393C63.4336 28.393 63.7342 28.2312 64.8902 27.4566C65.7688 26.867 67.4567 25.156 68.6937 23.6994C68.8324 23.3641 68.844 23.4913 69.0405 23.0982C69.0405 23.0982 70.8671 19.9884 71.3989 19.3295C72.8324 17.5491 74.6128 17.815 74.6128 17.815L70.37 26.2081L70.185 26.6243C69.6995 27.7688 69.7457 27.7688 69.7457 27.9306C69.7457 28.1503 70.0347 28.2543 70.2659 28.2543C70.5896 28.2543 71.1908 27.9653 72.2428 27.0173C72.9249 26.4624 73.8613 25.3641 74.7053 24.2774L75.0174 24.4046L75.0058 24.3699ZM75.2139 13.237C75.0752 13.3526 74.8555 13.6069 74.5896 13.9884L74.555 14.0578L73.5607 15.7919C73.5607 15.7919 74.8209 16.2196 75.5954 15.5029C75.7226 15.3873 75.9654 15.0636 76.1966 14.7283L76.2197 14.6936L77.237 12.9942C77.237 12.9942 76.0232 12.5664 75.2139 13.2485"></path>
</g>
<defs>
<clipPath id="clip0_1333_191">
<rect fill="white" height="40" width="77.2486"></rect>
</clipPath>
</defs>
</svg>
