<svg xmlns="http://www.w3.org/2000/svg" viewBox="0 0 77.8 103.4"><defs><style>.cls-1{fill:#1e1a34;}</style></defs><title>Asset 1</title><g id="Layer_2" data-name="Layer 2"><g id="Layer_1-2" data-name="Layer 1"><path class="cls-1" d="M61.8,31.5c0-.1.1-.1.1,0v.9a2.81,2.81,0,0,1-.1.8c0,.2,0,.6-.4.6s-.3-.4-.2-.6a10.67,10.67,0,0,0,.6-1.7m-1-1.7a2.25,2.25,0,0,1,1.4-.6c1.5,0,2.5,1.6,2.9,2.3,0,.1,0,.1-.1.1-.5-.6-1.6-1.7-2.5-1.7a3,3,0,0,0-1.5.4,3.84,3.84,0,0,0-.9.9c-.1.2-.2,0-.1-.2a4.88,4.88,0,0,1,.8-1.2m13.4,2c.1.2,0,.5-.1.5s-.2,0-.4-.2-.4-.7-.6-.9.2-.4.4-.3a1.74,1.74,0,0,1,.7.9m-.3-2.7a3.55,3.55,0,0,1-1,.2c-.2.1-.3,0-.3-.1s0-.2.2-.3a2,2,0,0,1,.8-.4c.2,0,.4,0,.5.2s.1.4-.2.4m-1.5-.7c-.1-.1,0-.3.1-.4a1.69,1.69,0,0,1,.6-.3h.4a.19.19,0,0,1,.1.3c-.1.1-.6.3-.7.4a.45.45,0,0,1-.5,0m.1-.7c-.3.1-.5.2-.5.1s.1-.3.2-.3a.66.66,0,0,1,.6-.1c.1,0-.1.2-.3.3m-.8.8a1.55,1.55,0,0,1,.3.6c0,.1-.2.4-.3.3s-.3-.5-.6-.3-.2.4-.1.5.4.3.3.8a2.21,2.21,0,0,1-1.2,1.3c-.3.1-.7.2-1.1-.5a7.91,7.91,0,0,1-.5-1,1.58,1.58,0,0,1,.3-1.4c.5-.5.7-.5.8-.4a.27.27,0,0,1,.2.4q-.15.3,0,.3c.1.1.4.1.6-.2a1.53,1.53,0,0,1,.5-.7c.2-.2.6,0,.8.3m-2.6-2.1a1.16,1.16,0,0,1,.4,1,1.33,1.33,0,0,1-.3.5,2.19,2.19,0,0,0-.5.3c-.2,0-.4-.1-.4-.3v-.3c0-.3.2-.3.4-.9.1-.2.2-.6.4-.3m-.5-1.8c-.2-.2-.4-.7-.7-1A16.67,16.67,0,0,1,66.7,22c-.2-.3-.2-.4-.5-.6s-.2-.2-.1-.3h.3a3.55,3.55,0,0,0,.7-.1,2,2,0,0,1-.5-.5c-.1-.1-.1-.2-.1-.4a4.33,4.33,0,0,0,.5.1c.5.1.4.3.6.7s.8,1,1.1,1.5.4.4.6.9.1.6.1.6a5.44,5.44,0,0,1,.8.4c.3.2.4.7.8,1.2a2.37,2.37,0,0,1,.5,1.2c.1.4.2.7-.1.9s-.6-.1-.9-.3-.3-.5-.5-.9-.8-.7-1-1-.2-.6-.4-.8m-1.1-.2a4.88,4.88,0,0,1,.3,2c0,.2-.4.6-.9.6a14.73,14.73,0,0,1-2.5-.2c-.4-.2-.6-.3-.7-.2s.2.3.3.5a1.63,1.63,0,0,0,.6.3,12.77,12.77,0,0,0,1.7.2,1.18,1.18,0,0,1,.8,1.8,7.33,7.33,0,0,1-1.4,2.3,1.72,1.72,0,0,1,.8,1,2.46,2.46,0,0,1-.1,1.7,1.91,1.91,0,0,0-.8-.7,2.48,2.48,0,0,1-1.3-1,1,1,0,0,0-.2.9,2,2,0,0,0,.2.9,5.92,5.92,0,0,1-.6.4,1.63,1.63,0,0,0-.6-.3,2.49,2.49,0,0,0-.8-.1,3.22,3.22,0,0,1-.6-.2,2.15,2.15,0,0,0,.3,1,.35.35,0,0,0,.1.2c-.1.1-.4.2-.7.4a2.18,2.18,0,0,0-.5.4,2.49,2.49,0,0,0-.8-.1,2.5,2.5,0,0,0,.4-.8,2,2,0,0,1-.5.1h-.3a3.25,3.25,0,0,0,.5-1.4,2.43,2.43,0,0,0-1.9.3c-.4.2-.6.4-.8.5a22.31,22.31,0,0,1,.4-2.3,13.6,13.6,0,0,1,.9-1.8s-.6-2-.7-2.3c-.2-.9.7-1,1.1-1.1a12,12,0,0,0,1.9,0,1.82,1.82,0,0,0,1.5-2.1c0-.7-.2-1.7-.2-2.1s-.3-.2-.3-.1.1,1.1.1,2.1a1.89,1.89,0,0,1-1.3,1.7H59.6c-1-.1-1.2-.3-1.4-.8a3.08,3.08,0,0,1-.1-2.1c.1-.3-.1-.2-.2-.1a4.05,4.05,0,0,0-.3,1,6.38,6.38,0,0,0,0,1.4,2.89,2.89,0,0,1-.5,1.4A3.85,3.85,0,0,1,55.5,29c-.5.2-.1.3,0,.3s.3-.1.5-.2.2.2.1.4a4.74,4.74,0,0,1-1.2,1.3,19.41,19.41,0,0,1-1.7,1,1.12,1.12,0,0,1-1,0l-1.3-1.4c.3-.2.7-.7,1.1-.8s1.2-.4,1.4-.5a.48.48,0,0,1,.4,0c.1,0,.1-.1,0-.2s-.1-.2-.1-.4a5,5,0,0,1,1-2.5c.1-.2.2-.2.3-.2s.1.1.2,0a5.77,5.77,0,0,1,.2-1.4,3.77,3.77,0,0,1,1.5-2.5,2.37,2.37,0,0,1,1.2-.5,2.39,2.39,0,0,1-.3.7c-.1.1-.7.5-.7.5a5.49,5.49,0,0,0,1.7-.1,1.63,1.63,0,0,0,.6-.3.45.45,0,0,1,.5,0h.3a5.88,5.88,0,0,0,1.4-.3l.4.2a4,4,0,0,0,.4.3.35.35,0,0,1,.2-.1,2.77,2.77,0,0,1,1.2-.8,1.83,1.83,0,0,1,1.1,0,3.78,3.78,0,0,1,.8.9,6.76,6.76,0,0,1,1.8,2m0,10.1a2,2,0,0,1,1.6.7,3.44,3.44,0,0,1-1.5.5,3.55,3.55,0,0,1-1-.2,4.33,4.33,0,0,1,.5-.1h.8a2.13,2.13,0,0,0-.8-.5,2,2,0,0,0-.7-.1,1.8,1.8,0,0,1,1.1-.3m.8,2.3a8.94,8.94,0,0,1,1.2.9,1.54,1.54,0,0,1-.8.2h-1a.76.76,0,0,1,.1-.4h.7l-.7-.4a.75.75,0,0,0-.1-.5,1.42,1.42,0,0,1,.6.2M66.7,41a8.44,8.44,0,0,1,.1,2.8,32.59,32.59,0,0,1-1.1,4.3,4.91,4.91,0,0,0-.4,1c-.1.2-.1.4,0,.4s.3,0,.4,0,.3,0,.3.2a.76.76,0,0,1-.2.5c-.1.1-.1.4-.1.6a3.23,3.23,0,0,1-.2,1.2,2.74,2.74,0,0,0-.2,1.2c0,.6.7,1.2.5,2.6,0,.4-1,4.7-1.2,5.9a19.17,19.17,0,0,0-.1,2,1.68,1.68,0,0,0,.6.9c.4.3,1.7.9,1.8,1a.36.36,0,0,1,.2.3.44.44,0,0,1,.1.3.22.22,0,0,1-.2.2c-.1,0-.1.1,0,.2s.1.2,0,.4l-.2.2c-.1,0-.2-.1-.3,0s.1.2.2.3a.63.63,0,0,1,0,.6.48.48,0,0,1-.6.2c-.2-.1-.3-.3-.4-.3s-.1.1-.3,0a2.11,2.11,0,0,1-1.1-.4,5.7,5.7,0,0,0-1.1-1.1c-.5-.3-.6-.2-.8-.5a.91.91,0,0,1,0-1,.75.75,0,0,0,0-.9,1,1,0,0,1,0-.9,3.69,3.69,0,0,0,.3-1.7,25.28,25.28,0,0,0-.1-2.7c0-.5-.4-2.2-.4-3a15.17,15.17,0,0,1,.5-2.5.22.22,0,0,1,.2-.2c.1,0,.4-.1.4-.3a1.91,1.91,0,0,0-.5-1.2,2.11,2.11,0,0,1-.5-1.3,24.63,24.63,0,0,0,0-3.9c-.1-1.6-.5-2.6-.3-3.6a2.07,2.07,0,0,1,1-1.5c.1-.1.5-.1.7-.1a.77.77,0,0,1,.1.3s.6-.5.9-.7a4.88,4.88,0,0,0,.7-.3,2.32,2.32,0,0,1,1.3.5m.7,27.1v-.6c0-.1.2,0,.3-.2s0-.3,0-.5.2-.1.2-.4-.2-.5-.2-.5a1,1,0,0,0,.7-.1,2.48,2.48,0,0,0,.6-.4l.2.3s.2.3-.2.6c-.1.1-.8.6-.9.7a3.11,3.11,0,0,0-.4.6,3.55,3.55,0,0,1-.1.7l.3-.1a.47.47,0,0,1-.3.5,7.92,7.92,0,0,1-3.5,1,.35.35,0,0,1-.2-.1v-.2a.31.31,0,0,0,.1-.2s-.3,0-.4-.1-.3,0-.4-.2-.2-.3-.1-.4.6-.5.7-.6.2-.1.4-.1.3.2.5.3a6.37,6.37,0,0,1,.9.2c.2.1.7.5,1.2.3a.55.55,0,0,0,.6-.5m1.4.6v.2c0,.2-.5,3.6-.6,4.5s-1.9,1.9-5.4,2.1c-7.1.3-13.6-1.8-17.1-2.9-.8-.2-1.4-.4-1.8-.5a2.77,2.77,0,0,0-1.3,0c0-.4,0-1.1.1-2.3a4,4,0,0,1,.4-1.6c.2-.5.5-1.2,2.9-.6a59.78,59.78,0,0,0,6.3,1.8c4.7,1.2,8.4,1.7,11,1.4,2.4-.2,4.2-.6,5.1-1.3a5.9,5.9,0,0,0,.4-.8M44,73.6a2.51,2.51,0,0,0-.7-.4c-.2-.1-.6-.3-.6-.4h0c0-.1,0-.1.1-.1a1.39,1.39,0,0,1,1,0,4.33,4.33,0,0,0,.5.1Zm-.2.9c-.1.7-2.7,1.2-5.2,1.2s-5.1-.5-5.2-1.2c0-.2.2-.4.8-.7s1-.4,1.1-.9h0a6.1,6.1,0,0,0,.1-2.8,7.48,7.48,0,0,0,3.2.5h0a8.56,8.56,0,0,0,3.2-.5,6.1,6.1,0,0,0,.1,2.8h0c.1.5.6.7,1.1.9s.9.5.8.7M33.1,72.8a1.09,1.09,0,0,1,.5-.1,1.39,1.39,0,0,1,1,0l.1.1h0c0,.1-.4.3-.6.4a2.51,2.51,0,0,0-.7.4l-.3-.8m.3-.8c-.4.1-1,.3-1.8.5-3.5,1.1-10,3.2-17.1,2.9-3.5-.1-5.3-1.3-5.4-2.1s-.6-4.3-.6-4.5v-.2a1.37,1.37,0,0,0,.5.8,11.45,11.45,0,0,0,5.1,1.3c2.6.2,6.3-.3,11-1.4a59.78,59.78,0,0,0,6.3-1.8c2.5-.6,2.8.1,2.9.6a9.07,9.07,0,0,1,.4,1.6,9.8,9.8,0,0,1,.1,2.3,1.69,1.69,0,0,0-1.4,0M8.3,67a4.2,4.2,0,0,0,.2-.5,1.76,1.76,0,0,0,.1-.6.31.31,0,0,0,.2-.1.35.35,0,0,0,.2-.1,1.44,1.44,0,0,0,.2.3,1.42,1.42,0,0,1,.2.4s0-.3.1-.4.1-.2.3-.4a1.42,1.42,0,0,0,.2-.4,7.37,7.37,0,0,0,.5.6.76.76,0,0,0,0,1c.2.2,0,.5.2.6a1.58,1.58,0,0,0,.9.6,1,1,0,0,1,.4.1.93.93,0,0,0,.9.5,1.31,1.31,0,0,0,1.3-1,1.2,1.2,0,0,0,0-.7,1.74,1.74,0,0,0,.4-.9c.1,0,.3,0,.3-.1s0-.5.1-.5.4.1.5.1.3-.3.3-.4-.1-.4,0-.4h.3c.1,0,.4-.3.5-.3s0-.1,0-.1l-.3-.5.4-.3s0-.1.4,0a3.18,3.18,0,0,1,.3.9v.3l-.6.6c-.1.1-.2.2-.2.3s.2.9.2.9-.5.5-.5.6a4.33,4.33,0,0,0-.1.5,2.91,2.91,0,0,0,.2.8l-.5.5v.2l.8.9a16.13,16.13,0,0,1-2.2,0l-.4-.5s-.5.2-.9.4a10.74,10.74,0,0,1-3.7-1l-.2-.2v-.6l.5-.2a3.73,3.73,0,0,0-.8-.6,1.69,1.69,0,0,0-.7-.3m1.6-2.5a1,1,0,0,1,.8,0,.55.55,0,0,1,.3.5,2.19,2.19,0,0,1-.3.5,1.42,1.42,0,0,0-.2-.6,1.72,1.72,0,0,0-.6-.4m.9-.8a1,1,0,0,0,.3.1.1.1,0,0,1,.1.1,2.27,2.27,0,0,1-.1.4c0,.1-.1,0-.2,0s0-.2,0-.3a.49.49,0,0,1-.1-.3M12.3,62a27.58,27.58,0,0,1-.8-3.5,12.63,12.63,0,0,1,0-4.4,5.22,5.22,0,0,0,.1-2.1,7,7,0,0,1,0-2.5,1.48,1.48,0,0,0,0-1.3,32.31,32.31,0,0,1-1-4.9,5.6,5.6,0,0,1,.4-3.1,3.61,3.61,0,0,0,.4.5,7.22,7.22,0,0,0,.8-1,2.08,2.08,0,0,0,1.2,1,.31.31,0,0,1,.1-.2l1,.7a1.39,1.39,0,0,1,.7,1.4,37.53,37.53,0,0,1-.4,5,2.45,2.45,0,0,1-1,1.4,2.39,2.39,0,0,1,.3,1.1,2.35,2.35,0,0,1-.5,1.3.89.89,0,0,1-1.1.3c-.2-.2-.3-.6-.5-.6s0,.7.1.9c.2.4.6.9,1.2.7.4-.1.5,0,.6.3s.1.7.2,1.3a4.64,4.64,0,0,1,.2,1.4,8.12,8.12,0,0,1-.5,2.6,9.46,9.46,0,0,0-.3,3.5c.1.8-.3.9-.3,1.3s.2.5.3.8,0,.4,0,1.7-.4,1.4-.4,1.4a3.54,3.54,0,0,1,.1.6.52.52,0,0,1-.8.4c-.5-.1-.1-.9-.3-.9s-.2.5-.5.3.1-.6-.1-.6-.2.3-.4.2c-.4-.1-.1-.3-.2-.4h-.3a.45.45,0,0,1,0-.5c.1-.2.7-1.1.9-1.6s.3-.3.4-.6-.2-.5-.2-.8.2-.3.3-.5a.39.39,0,0,0,.3-.6M10,37.2c0,.1-.1.1-.2.1a1,1,0,0,1-.5.2,2.68,2.68,0,0,1,.2-1,1.58,1.58,0,0,1,.5-.8c0,.1,0,.1-.1.2,0,.4.1.9.1,1.3M8.8,34.9a3.35,3.35,0,0,1,1-.8,4.14,4.14,0,0,1,1-.1l-.4.4a4.2,4.2,0,0,0-.5.2.93.93,0,0,0,.6,0H11a1.31,1.31,0,0,1-.8.6,2.23,2.23,0,0,1-1.4-.3m3-3.4A4.4,4.4,0,0,1,10.3,28a1,1,0,0,1,.5-.8c.2-.1,1.2-.1,1.5-.2a2.92,2.92,0,0,0,1.4-.5c.3-.2.1-.6.1-.6a2.51,2.51,0,0,1-.9.4,20.08,20.08,0,0,1-2.4.1c-.5-.1-.9-.4-.5-1.3a7.54,7.54,0,0,1,2.3-3.3c.1.1.2.1.4.2.4.1.4-.3.6-.2s.1.2.6.4.6,0,.8.1.2.4.2.6,0,.3.1.4.2,0,.2-.2.4-.6.9-.6.6.2,1,.3a1.65,1.65,0,0,0,1.1-.4,5.43,5.43,0,0,0,1.1.2,1,1,0,0,0,.7-.2s-.5-.3-.5-.7a3.54,3.54,0,0,1,.3-1.1.31.31,0,0,1,.2.1.75.75,0,0,1,.3.3,2.08,2.08,0,0,1,1.2.6c1.3,1.2.6,3.4.6,3.4a2,2,0,0,1,1.1,1.3,8.32,8.32,0,0,1,.4,2.6,3.33,3.33,0,0,1,1.3.8,6.07,6.07,0,0,1,.7,1l-1.7,1.9a8,8,0,0,1-1.7-1.4,1,1,0,0,1-.2-1,.75.75,0,0,1-.3-.3,1.49,1.49,0,0,1-.1-.6c0-.2.2-.1.4-.1s.3-.1.2-.2a8.18,8.18,0,0,1-1.1-1,3.12,3.12,0,0,1-.7-1.8,11.52,11.52,0,0,0-.1-2c-.1-.2-.3,0-.3.1a4.71,4.71,0,0,1-.3,1.8c-.3.6-1.2.6-2.2.5a15.18,15.18,0,0,1-2.2-.5s0,.4.6.6,2.1.4,3.3.7c.5.1,1,.6.7,1.1a11.07,11.07,0,0,1-1.2,1.8.76.76,0,0,0,0,.8c.1.3,1,1.4,1.1,1.8s.3,1.2.3,1.3a.6.6,0,0,0-.1.4,2,2,0,0,0-.9-.6,6.88,6.88,0,0,0-1.3-.2,1.68,1.68,0,0,1-.8-.4,2.46,2.46,0,0,0,.5,1.3c.1.2.3.3.4.4a2.23,2.23,0,0,1-.9-.2,6,6,0,0,0,.3.7,1.42,1.42,0,0,0-.6.2c0-.1-.3-.6-1.2-.8.1-.1.2-.2.2-.3a6.47,6.47,0,0,0,.3-1,1.21,1.21,0,0,1-.5.1,3.75,3.75,0,0,0-1,.1.37.37,0,0,0-.3.1h0a1,1,0,0,0,0-1,1.13,1.13,0,0,1-.5.4.1.1,0,0,0-.1.1,3.83,3.83,0,0,0-.1-1.4,1.11,1.11,0,0,1-.5.4,9.2,9.2,0,0,0-.9.3l-.6.3a3.08,3.08,0,0,1,.1-.9c.1-.3.2-.7.2-.7M9.4,29.6c.3.4.3,1,0,1.9s-.4.9-.7.9a2.22,2.22,0,0,1-1.1-.5,1.16,1.16,0,0,1-.5-.7c0-.4.2-.4.3-.5s0-.4-.1-.3a1.09,1.09,0,0,1-.5.1c-.2-.1-.3-.3-.1-.5,0-.1.1-.1.2-.1s.8,0,1.2-.3c.7-.4,1-.4,1.3,0M7,29.3c-.4.2-.6-.5-.3-.6a4.35,4.35,0,0,0,.7-.4c.3-.2.6.2.4.4a2.41,2.41,0,0,1-.8.6m-.5-2.2c.2.1.2.4-.2.3s-.4-.1-.7-.2-.1-.3.1-.4c.3.1.6.1.8.3m-.4.8c.2.1.2.5-.1.5a2.26,2.26,0,0,1-1-.3.25.25,0,0,1-.1-.4c.1-.1.2-.2.4-.1s.7.3.8.3m-.5.7c.2.1.3.5-.2.4a2.81,2.81,0,0,1-.8-.1c-.3,0-.3-.5.1-.5a2.39,2.39,0,0,1,.9.2m-.3,2.1c0,.1-.1.1-.2.3s-.6.9-.7,1.1-.2.2-.2.4,0,.2-.1.3,0-.2-.3-.3-.4-.1-.5,0-.1-.1,0-.2a12.13,12.13,0,0,1,1-1.4,1,1,0,0,1,.6-.5.3.3,0,0,1,.4.3m-.9-.9c-.2-.1-.1-.4,0-.4a.85.85,0,0,1,.7,0,.21.21,0,0,1-.1.4c-.2,0-.5.1-.6,0M9.5,28v.4a.27.27,0,0,1-.3.3.91.91,0,0,1-.5-.3.68.68,0,0,1-.3-.5,1.16,1.16,0,0,1,.4-1c0-.1.1-.1.2,0s.1.2.3.3c0,.2.2.5.2.8M7,26.9c-.1-.1-.3-.3-.1-.5a2.65,2.65,0,0,1,.5-.6c.2-.2.5-.6.7-.8a.78.78,0,0,0,.2-.8c-.1-.3.1-.5.3-.8a23.8,23.8,0,0,1,1.8-2.2c.1-.1.1-.1.1.1s.3.3.1.6-.2.5-.1.5.2.3.1.4-.9,1.3-1,1.6-.1.7-.4.8-.3,0-.6.4a1.91,1.91,0,0,0-.5,1.2c-.3.6-.8.4-1.1.1m3.6-6.6a1.28,1.28,0,0,0,.9-.2c.5-.4.5-1.1.8-1.4a.93.93,0,0,0-.6.3c-.2.1-.3.3-.4.4a1.33,1.33,0,0,1,.3-.8,1.26,1.26,0,0,1,.7-.4,1.49,1.49,0,0,0-.7,0,1.38,1.38,0,0,0-.4.3c0-.2.1-.3.2-.5a2.17,2.17,0,0,1,2.1-.7l.5.1-.1.4c-.1.4,0,1.1-.7,1.4h0a2,2,0,0,1,.2-.7.62.62,0,0,0-.4.2c-.3.2-.3.5-.5,1a1,1,0,0,1-.5.7,1,1,0,0,1-1.4-.1M12.8,16a.77.77,0,0,0-.1.6.58.58,0,0,0,.1.4h-.3a.44.44,0,0,0-.3.1.48.48,0,0,1,0-.4,1,1,0,0,1,.6-.7m5.3,1.1q-.15.3-.3.3a.22.22,0,0,1-.2-.2v-.7c0-.3.1-.3.2-.3a.35.35,0,0,1,.2.1c.1.1.1.1.2.1s.1-.2,0-.3-.1-.2-.1-.2.1-.1.2,0,.2.2.2.3a1.55,1.55,0,0,1-.3.6,1,1,0,0,1-.1.3m-.7-1.5a.37.37,0,0,0-.4.4,2.51,2.51,0,0,1-.1,1c0,.1,0,.2-.3.2a1,1,0,0,1-.6-.3,1.85,1.85,0,0,1-1,.2c-.3,0-.3-.2-.3-.4a12,12,0,0,1,0-1.9.82.82,0,0,1,.5-.5,5,5,0,0,1,1.9-.4,1.42,1.42,0,0,0,.7.8,1.75,1.75,0,0,0,.5.1v.3a.35.35,0,0,0,.1.2.69.69,0,0,1-.5.3.45.45,0,0,0-.5,0m-4.3,5.2c-.3.2-.6.3-.8.1s0-.3.1-.4a.52.52,0,0,0,.2-.4,2,2,0,0,0,.5.1h.4s-.2.5-.4.6m4.9-.3s-.8-.1-1-.5,0-.8.1-1.1a.76.76,0,0,0-.1-.7c-.3-.3-.5-.4-.6-.4s-.2.1-.1.2a.37.37,0,0,1,.1.3c-.1.2-.6,0-.7,0s-.1-.1,0-.3a.36.36,0,0,1,.3-.2.87.87,0,0,0-.9.2c-.4.5-.5,1.6-1.2,1.7a.78.78,0,0,1-.7-.1s.5-.2.6-.6.2-1.2.7-1.5a1.51,1.51,0,0,1,1.3-.1,1.42,1.42,0,0,0,.6.2c.2,0,.2-.1.5-.1a.85.85,0,0,1,.6.2s.2.2.2.3a1.6,1.6,0,0,1,0,1.2,1.09,1.09,0,0,0,.3,1.3M17,22c0-.1.1,0,0-.5a1,1,0,0,0-.6-.7,1.27,1.27,0,0,1,.2.6c0,.3,0,.6-.3.6s-.2-.3-.3-.5a1.19,1.19,0,0,0-.2-.5v.6c0,.2,0,.4-.2.5s-.2.1-.4.1-.3-.2-.3-.3.2-.4.3-.8v-.3a1.44,1.44,0,0,1-.2.3c-.2.2-.4.6-.5.6-.3.1-.4.1-.5-.1a.47.47,0,0,1,.1-.6,4.43,4.43,0,0,1,.6-.5h-.3a.85.85,0,0,1-.7,0c-.1-.1-.1-.2.1-.2a1.7,1.7,0,0,0,.8-.6c.2-.3.2-.7.4-.9a.75.75,0,0,1,.3-.3.48.48,0,0,1,0,.4,2.13,2.13,0,0,1-.5.8,1.11,1.11,0,0,0,.8-.6c.1-.2.2-.2.2,0a5.53,5.53,0,0,1-.1.9.79.79,0,0,0,.5-.7v-.5c.1-.2.3-.1.3,0s-.5.9-.1,1.4a1.74,1.74,0,0,0,1.1.7,1.06,1.06,0,0,0,0,.6c0,.2.2.3.2.4s-.2.3-.4.3-.2-.1-.3-.2m2.1-.7a2.19,2.19,0,0,0,.3.9s-.9,0-1.1-.7a1.21,1.21,0,0,1,.5-1.2s-.1.1-.4,0-.2-.3-.2-.3a3,3,0,0,1,.4-.3,1.73,1.73,0,0,0,.3-.4s.7.1.7.7-.5.8-.5,1.3m-7-5.5a3,3,0,0,0,.5-.7,4.76,4.76,0,0,1,.5-1.4,2.07,2.07,0,0,1,1.3-.9.78.78,0,0,1,.7.1s.2-.6.7-.7a1.91,1.91,0,0,1,2.1.4c.2.2.2.4.3.7s.2.5.2.5v-.6c0-.2.2-.2.4-.1a3.44,3.44,0,0,1,1.1,1.6,1.18,1.18,0,0,1-.1,1,3,3,0,0,0-.5,1.3,2.44,2.44,0,0,0,.1.7.78.78,0,0,1,0,.5.44.44,0,0,1-.1.3s0-.3-.1-.4l-.2-.2a1.69,1.69,0,0,1,0,.8.77.77,0,0,1-.2.5v-.4a1.09,1.09,0,0,0-.2-.4,1.43,1.43,0,0,1-.2.7,3,3,0,0,1-.3.4,3.55,3.55,0,0,0,.1-.7v-.4a.76.76,0,0,1,.2-.4c.2-.3.4-.3.5-.6s-.1-.6,0-.8.3-.6.3-.7a1.48,1.48,0,0,0,.1-.7,3.33,3.33,0,0,0-.3-.6,1.76,1.76,0,0,1-.1-.6s-.1,0-.2.2a.35.35,0,0,1-.1.2s-.3,0-.4-.1a1.26,1.26,0,0,1-.5-1,1.68,1.68,0,0,1-1.3.5.77.77,0,0,1-.5-.2.31.31,0,0,1,.1-.2V13a5.52,5.52,0,0,1-.8,1.3c-.2.2-.3.2-.5.1a.22.22,0,0,1-.2-.2h-.1a7.44,7.44,0,0,1,.3,1.7c0,.7-.2,1.1-.4,1.1s-.2-.3-.2-.5V16a1.46,1.46,0,0,1-.3.5c-.1.1-.3.3-.4.3s0-.3,0-.4a2.57,2.57,0,0,0,.2-.5,5,5,0,0,0,0-1.3,4.17,4.17,0,0,1-.5,1c-.6.1-1,.2-1,.2m3.7-4.2s0-.5.7-.9a2.74,2.74,0,0,0,.5-.4c0-.1,0-.1.1-.2s.5-.2.6-.4.1-.5.2-.6a4.45,4.45,0,0,1,.5-.8.67.67,0,0,1,.7-.4c.2,0,.9.1,1.1.1s.4.5.1.8a.87.87,0,0,1-.8.4c-.1,0-.2.1-.1.2s-.1.7-.2,1a.51.51,0,0,1-.5.4.49.49,0,0,0-.3.1c-.1.1-.1.2-.2.5a2.81,2.81,0,0,0-.1.5,2.41,2.41,0,0,0-.8-.3,2.87,2.87,0,0,0-1.5,0m4.2-2a.85.85,0,0,1,.5-.3c.1.1,0,.3-.2.4s-.2.2-.3.1V9.6M57.6,33.3a4.59,4.59,0,0,0-.1,1A3.15,3.15,0,0,0,55.8,33a1.54,1.54,0,0,1,.2.8,6.48,6.48,0,0,0,0,1.4,3.44,3.44,0,0,0-.9.1c-.9.1-1.1-.1-1.1-.1a1.93,1.93,0,0,0,.3.9,2.85,2.85,0,0,0,1.3,1.1,1.7,1.7,0,0,0-.6.6,9.32,9.32,0,0,0-.7,1.3,3.2,3.2,0,0,0,1.5,0c.1,0,.2,0,.2-.1a6.7,6.7,0,0,0-1.2,2.9,19.28,19.28,0,0,0-.6,3.6c0,.4-.1.7,0,.8a2.07,2.07,0,0,1-.2.6,2.33,2.33,0,0,0-.4,1.4c0,.6.3,1.4.3,1.8a14.43,14.43,0,0,1,.4,2.3,17,17,0,0,0,.1,2.3c0,.4.1,2,.2,3.1l-.2-.2a.78.78,0,0,1-.2-.5,1.73,1.73,0,0,0-.4.3l-.2.4a5.85,5.85,0,0,1-.1-1,3.68,3.68,0,0,1,.4-1,2.21,2.21,0,0,0-.8.7,4.57,4.57,0,0,0-.4.6,2.81,2.81,0,0,0-.1-.8,2,2,0,0,0-.1-.5,10.92,10.92,0,0,1-.9,1.1,10.53,10.53,0,0,0,1.1-4.3,30.28,30.28,0,0,0-.5-6.3,23,23,0,0,1-.4-4.2c0-5.3,2.4-7.7,2.7-8l-1.1-1.3a11.18,11.18,0,0,0,2.2-1.3,4.86,4.86,0,0,0,1.7-1.9c.2-.2.3-.2.4-.1a7.14,7.14,0,0,1,.5,1.7c.1.7-.4,1.3-.6,2.1m2.1,1.4a1,1,0,0,1-.1.4c-.1.1-.2.2-.2.3H59a2,2,0,0,0-.9.2c.2-.2.4-.5.7-.6a1.67,1.67,0,0,1,.9-.3m.3,1.4a2.54,2.54,0,0,1-1.4.9,2,2,0,0,1-1.1,0,4.71,4.71,0,0,0,.9-.3c.5-.2.6-.4.6-.4a7.75,7.75,0,0,1-.9.1.6.6,0,0,1-.4-.1,3.2,3.2,0,0,1,1.3-.5,3,3,0,0,1,1,.3m.9.6a.69.69,0,0,1,.4.3s-.1.2-.6.4c-.2.1-.5.1-.6.2a3.81,3.81,0,0,0-.5-.6c.2-.1.4-.3.6-.4a2.25,2.25,0,0,1,.7.1m1.7-.7.4.4a1.63,1.63,0,0,0-.3.6,1.17,1.17,0,0,1-.7-.2.77.77,0,0,0-.3-.2,1.38,1.38,0,0,1,.4-.3,1.33,1.33,0,0,1,.5-.3m.9-.7c-.1.2-.2.3-.3.5l-.3-.3a1.72,1.72,0,0,1-.4-.6,1.76,1.76,0,0,1,.6.1,1.38,1.38,0,0,1,.4.3m1.2-.4h0c.1.2.2.2.2.3s-.1.1-.2.2a1.2,1.2,0,0,0-.4.4,1.76,1.76,0,0,0,.6-.1c.1-.1.2-.1.3-.2l.3.3a5.94,5.94,0,0,1-.8.4,2,2,0,0,1-1-.1,1.92,1.92,0,0,1,.5-.8,1,1,0,0,1,.5-.4m1.6-.2H66a7.35,7.35,0,0,1-.8-.2,2,2,0,0,1,.5.5c0,.1.1.1.1.2a2.51,2.51,0,0,1-.8-.5,1.8,1.8,0,0,1-.4-1.3,2,2,0,0,0,1,.6,1.54,1.54,0,0,1,.7.7m.3,5.4a3.53,3.53,0,0,1-.9-1.5,2,2,0,0,1-.1-.7c.1-.1.2-.1.3-.2.1.4.4,1.3.4,1.3l.2-1c.1.1.2.1.3.2v.5a2.11,2.11,0,0,1-.2,1.4M64.5,40a2.44,2.44,0,0,1-.1-.7,2.51,2.51,0,0,1,.2-1c.2,0,.4-.1.6-.1v.7a6.37,6.37,0,0,0,.2.7,1.1,1.1,0,0,0-.6.3l-.3.1m-.2-2a4.88,4.88,0,0,0-.3.7,4.88,4.88,0,0,1-.7.3,3.2,3.2,0,0,1-.7.1,4.2,4.2,0,0,0,.2-.5.35.35,0,0,1,.1-.2c.2,0,.4-.1.7-.1a1.33,1.33,0,0,1,.7-.3M62.6,52.2a8.22,8.22,0,0,0-.6,3.4c.2,1.3.3,2,.4,3.1s.1,2.5.1,3a.9.9,0,0,1-.1.5l-.6-.5a1.09,1.09,0,0,0,.2-.4,1.76,1.76,0,0,0,.1-.6s0,.1-.2.2a3.21,3.21,0,0,1-.5.3l.2-.8a2.33,2.33,0,0,0-.2-1.1,1.93,1.93,0,0,1-.3.9,2.19,2.19,0,0,0-.3.5,4.54,4.54,0,0,1-.8.2h-.5c.2-.3.5-.9.7-1a1.79,1.79,0,0,1,.6-.5h-.5l-.6.2s.2-.2.3-1.1a1.47,1.47,0,0,0-.5-1.4,2.42,2.42,0,0,1,0,.9,3.58,3.58,0,0,1-.6,1.1c-.1,0-.2-.3-.3-.6a1.51,1.51,0,0,1,.1-.8,3.08,3.08,0,0,1-.6.6.76.76,0,0,0-.2.4l-.4-.3a5.28,5.28,0,0,1,.2-1.4,6.62,6.62,0,0,0,.7-2.6,21.93,21.93,0,0,0-.2-2.9c0-.5-.6-.5-.5-1.5a15,15,0,0,0,.3-1.8c.1-.2,1.1-1.6,1.6-2.3.3-.5,1.1-1.9,1.6-2.7a19.24,19.24,0,0,1,.5,2.9c.2,1.7,0,3.2.1,4a4.25,4.25,0,0,1,.8,2.1M33.2,65.8l.5.1-.1.8c-.2,0-.5-.1-.8-.1Zm-20-32.7a1.54,1.54,0,0,1-.5,1.1,1.45,1.45,0,0,1-1.1.3c.1,0,.2-.1.4-.2a.84.84,0,0,0,.4-.6,1.19,1.19,0,0,1-.5.2c-.2.1-.3.1-.4,0a1.7,1.7,0,0,1,1.1-.8,1.06,1.06,0,0,0,.6,0m2.2,1.4a2.22,2.22,0,0,1-.4.5c-.2.2-.4.3-.5.4-.1-.2-.2-.5-.3-.7a.37.37,0,0,1,.3-.1,1.59,1.59,0,0,1,.9-.1m.7,1.5a1.29,1.29,0,0,1-.9.4,1.38,1.38,0,0,0-.3-.4l-.3-.3c.1,0,.2-.1.4-.2.9.1,1.1.5,1.1.5m1.5.2a4.35,4.35,0,0,0,.7.6c-.1.1-.2.3-.4.5-1.2-.1-1.4-.6-1.4-.6a1.64,1.64,0,0,1,1.1-.5m.7-.5a4.74,4.74,0,0,1,1.2,0c.3.1.5.2.5.3s-.2.1-.4.1h-.7s.1.2.7.3a.76.76,0,0,1,.4.2c-.1.1-.4.1-1,.1a2.07,2.07,0,0,1-1.4-1h.7m1.2-.6a3.08,3.08,0,0,0-1,.1c-.1-.1-.3-.2-.4-.3a1.73,1.73,0,0,1-.3-.4,1.94,1.94,0,0,1,1,.1,1.31,1.31,0,0,1,.8.6c0-.1,0-.1-.1-.1M36,56.9c-.3.1-.5.1-.8.2-.1,0-.2.1-.4.2L33.5,53,36,56.9m2.6,2c2,0,3,.4,3,.9s-1.1.9-3,.9-3-.4-3-.9,1.1-.9,3-.9M42,57.1a1.88,1.88,0,0,0-.8-.2L43.6,53l-1.3,4.3c0-.1-.2-.1-.3-.2m-.7-.2a8.75,8.75,0,0,0-1.6-.2l1.4-4.3.2,4.5m-2.7-.3h-1l1-4.5,1,4.5h-1m-1,.1A3.81,3.81,0,0,0,36,57l.3-4.5,1.3,4.2m-2.2,1a10.49,10.49,0,0,1,6.4,0c.1.1.3.1.4.2l-.3,1a6.39,6.39,0,0,0-3.3-.6,6.39,6.39,0,0,0-3.3.6l-.3-1c.1-.1.3-.1.4-.2m-10,2.2A3.78,3.78,0,0,1,24,61a4.13,4.13,0,0,0,.4-.9,3,3,0,0,0,0-1.4,2.74,2.74,0,0,1,.4.5,1,1,0,0,1,.1.4,6.12,6.12,0,0,0,.5-.6,9.42,9.42,0,0,0,.4-1,2.61,2.61,0,0,1-.4,1.9M13.3,39.5s-.4,0-.8-.6v-.3a2.66,2.66,0,0,0-.3-1.2,3.09,3.09,0,0,0,.8.2c.6,1.4.3,1.9.3,1.9m-2.7-3.7a1.28,1.28,0,0,1,.5-.7v1s.2-.3.3-.5.1-.2.1-.3a1.34,1.34,0,0,1,.1.9c-.1.6-.9,1-.9,1a3.83,3.83,0,0,1-.1-1.4m3.9.4a2.79,2.79,0,0,1,.5.9,1.86,1.86,0,0,1-.8,0,4.88,4.88,0,0,1-.7-.3v-.5c.1.1.2.1.3.2a4.71,4.71,0,0,0,.5.2l-.3-.3c-.1-.1-.2-.2-.3-.2a1.48,1.48,0,0,0,.7-.1l.1.1m3.7,2.3c-.2.1-.5.2-.7.3a1.16,1.16,0,0,1-1.1-.3s.2-.5,1.2-.7h.2c-.1.2-.1.4-.3.5l-.2.2h.9m3.3-4.7a1.45,1.45,0,0,1,.1.6c0,.2-.1.4-.1.6a3,3,0,0,0-1,.5,2.35,2.35,0,0,1,.2-.8,1.11,1.11,0,0,1,.8-.9m1.3,1.9a1.43,1.43,0,0,1-1.1.9,1.41,1.41,0,0,1-.9-.1l.2-.2a7.76,7.76,0,0,1,.7-.4H20.6a1.91,1.91,0,0,1,.8-.4,2.37,2.37,0,0,1,1.4.2m-.5,2.7a1.92,1.92,0,0,1-.9-.4,2.61,2.61,0,0,1-.7-1l.6.3a1.4,1.4,0,0,1,.4.4,2.27,2.27,0,0,1-.1-.4c0-.1-.1-.2-.1-.3h.3a1.54,1.54,0,0,1,.4.6,3.78,3.78,0,0,0,.1.8m-6.5,1.4s.1-.4.8-.7a.76.76,0,0,1,.4.1,1.7,1.7,0,0,0-.6.6c0,.1-.1.1-.1.2a1.19,1.19,0,0,1-.5-.2m.4-2-.5.5h-.2l-.3-.6a1.8,1.8,0,0,0,1,.1m3.5,1a3.54,3.54,0,0,1,.3-1.1c0,.2.1.5.1.6v.6a1.42,1.42,0,0,1,.2-.4,3.33,3.33,0,0,0,.3-.6,2,2,0,0,1,.1,1.1,1.39,1.39,0,0,1-.6.8,1.53,1.53,0,0,1-.4-1m-1.2,1.7a2.39,2.39,0,0,1,.8-2.2,1.48,1.48,0,0,0-.1.7,2.39,2.39,0,0,0,.2.9c-.5.7-.9.6-.9.6m-1.6-.6a3.51,3.51,0,0,1,1-.8,1.69,1.69,0,0,1-.2.5c-.1.2-.3.5-.3.5a1.47,1.47,0,0,1,.4-.2c.1,0,.2-.1.3-.1a1.59,1.59,0,0,1-.6.9,1.91,1.91,0,0,1-1,.3,1.94,1.94,0,0,1,.4-1.1m-3.6-2.4h0a3.09,3.09,0,0,1,.8.2,4.33,4.33,0,0,1,.5.1c.6.6.5,1,.5,1s-.5.2-1.5-.5a1.14,1.14,0,0,0-.3-.8m-1.4-.7a.76.76,0,0,0,.2-.5.37.37,0,0,1,.1-.3c0,.1.1.1.1.2a1.73,1.73,0,0,0,.4.3v-.4a.35.35,0,0,0-.1-.2c.1,0,.1.1.2.1s.2.1.3.1a2,2,0,0,1,0,1.2,2.43,2.43,0,0,1-1.2-.5m1.9,2.7v-.7c.4.2.7.3.9.4a1.26,1.26,0,0,1,.1.8,1.55,1.55,0,0,1-1-.5m4.5-2a1.54,1.54,0,0,1,.4-.6c.1,0,.2.1.4.1h.3l-.1.1a2,2,0,0,1-.5.5,8.49,8.49,0,0,1,.9-.3h.2c0,.1-.1.2-.2.4a1.42,1.42,0,0,1-.6.2,6,6,0,0,1-.8.1.69.69,0,0,1,0-.5m-2.4-.8a4.3,4.3,0,0,0,.7.7,1.62,1.62,0,0,1-1,0,3.93,3.93,0,0,0-.2-.6,4.33,4.33,0,0,0,.5-.1M12.3,35c.1,0,.2-.1.4-.1l.2.2a1,1,0,0,0,.4.1,1.44,1.44,0,0,0-.2-.3c0-.1-.1-.1-.2-.2l.2-.2c.1.1.3.2.4.3a2,2,0,0,1,.4.9,2.1,2.1,0,0,1-1.2-.2,1,1,0,0,1-.4-.5m-.2,3.6a2,2,0,0,1-.5.9,1.26,1.26,0,0,1-.4-1,2,2,0,0,1,.1-1.1c.1,0,.1-.1.2-.1a.6.6,0,0,1,.1.4,3.54,3.54,0,0,0,.1.6,1.42,1.42,0,0,1,.2-.4c0-.1.1-.2.1-.3,0,.2.1.6.1,1M18.9,62l-.1.4a2.44,2.44,0,0,1-.5-.9,1.94,1.94,0,0,1-.1-1,2.85,2.85,0,0,0,.4.8,2.31,2.31,0,0,0,.6-.7,3.23,3.23,0,0,0,.2-.9,1.13,1.13,0,0,1,.2,1.1,3.39,3.39,0,0,1-.3.8c.1,0,.2-.1.3-.1a7.28,7.28,0,0,0,.7-.6,4.17,4.17,0,0,1-.5,1,1.2,1.2,0,0,1-.4.4l-.3-.3Zm.2.9a6,6,0,0,0-.7.3,3,3,0,0,0-.7.5,1.27,1.27,0,0,0,.2-.6v-.3l-.4-.4h.4a.37.37,0,0,0,.3-.2v.4l.1.2a1,1,0,0,1,.3-.1.77.77,0,0,1,.5.2m6.3.9c0,.1,0,.2.1.2.3,0,.3.3.1.3h-.2c-.2-.1-.2.1,0,.2a.35.35,0,0,1,.2.1.22.22,0,0,1-.2.4c-.3-.1-.4.1-.3.1s.7,0,.6.5a.46.46,0,0,1-.5.3,1.2,1.2,0,0,1-.8-.3s-.6.2-1.5-.5c-.4-.3-.6-1-1.6-1.1s-1.3-.5-1.3-.8,0-.6.4-.7h.4a.6.6,0,0,0,.4-.1c0-.1.1-.2-.1-.2s-.1,0-.3-.1-.1-.3-.1-.8.1-1.3.1-1.9a19.93,19.93,0,0,0-.5-3.4,6.4,6.4,0,0,1-.5-1.7c0-.5.2-2.2.5-2.3s.3.2.4.2a.75.75,0,0,0,.1-.5,2.35,2.35,0,0,0-.5-1.3,9.75,9.75,0,0,1-.8-2.2,21.52,21.52,0,0,0-1.4-2.7,7.91,7.91,0,0,1-.8-3,1.36,1.36,0,0,1,.6-1.4.1.1,0,0,0,.1.1,2,2,0,0,0,1.5-.8,1.24,1.24,0,0,0,.2.3l.7-.7a2.26,2.26,0,0,1,.9.4,4.51,4.51,0,0,1,1,2.2,17,17,0,0,1,.2,3.5,1.45,1.45,0,0,1,.3,1,2.34,2.34,0,0,0,.2,1.1,1.25,1.25,0,0,1,.4,1.1c0,.6-.2.7-.3,1.1a3.05,3.05,0,0,1-.7.8,1.79,1.79,0,0,1,.6.5c.1.3,0,.5,0,1.1s.1,1.3.1,1.9-.4,4.2-.4,4.7-.5,1.8-.1,2.3a2.85,2.85,0,0,0,.8.7c.4.3.5.7.9.8a2.93,2.93,0,0,1,.8.4.1.1,0,0,1,.1.1c.2,0,.2,0,.2.1M51.9,52.5a8.6,8.6,0,0,1-2.6,6.2,12.13,12.13,0,0,1-5.4,2.8,13.36,13.36,0,0,0-4.8,1.9,2.18,2.18,0,0,0-.5.4h0c-.2-.1-.3-.3-.5-.4a13.36,13.36,0,0,0-4.8-1.9,12.13,12.13,0,0,1-5.4-2.8,8.6,8.6,0,0,1-2.6-6.2V52h.5v.5a8.56,8.56,0,0,0,2.4,5.9,10.91,10.91,0,0,0,5.1,2.7,13.15,13.15,0,0,1,4.9,2c.1.1.2.1.3.2.1-.1.2-.1.3-.2a13.91,13.91,0,0,1,4.9-2,10.09,10.09,0,0,0,5.1-2.7,7.76,7.76,0,0,0,2.4-5.9V52h.5a.55.55,0,0,1,.2.5M62.2,63.7a.9.9,0,0,1-.1.5c0,.1-.1.2-.1.3l-.4.2a4.71,4.71,0,0,0-.2-.5.75.75,0,0,0-.3-.3l.1-.1c0-.1.6-.1,1-.1m0,3.5c.1.1.1.2-.1.4a8.74,8.74,0,0,0-1,.8c-.1.1-.3.4-.4.5s-.2.2-.3.2H60c-.1,0-.1-.1-.1-.3s.2-.4.3-.4a2.07,2.07,0,0,0,.6-.2,7,7,0,0,1,1-.8c.1-.1.3-.3.4-.2m-4,1.6c-.3,0-.2-.2-.1-.3l.3-.3a1.49,1.49,0,0,0,.6-.1,9,9,0,0,1,.9-.5c.1-.1.4.1.1.3a9.22,9.22,0,0,1-.8.5,1.69,1.69,0,0,1-.5.2c-.1.1-.2.3-.5.2m-7-1.8c-.1-.1-.2-.3-.1-.3s.2-.2.3,0,.3.5.4.5a.4.4,0,0,1,.4.2c.1.2.2.3.1.4s-.2.1-.3-.1-.5-.3-.5-.4q-.3-.15-.3-.3m-7.5-1.6c.1,0,.1-.1.2-.1l.4.4a1,1,0,0,0,.6.2s-.7.1-1.2.2H43a1.42,1.42,0,0,1,.2-.4.55.55,0,0,1,.5-.3m.7-1A6.13,6.13,0,0,0,45,64h0c.1.1.2.3.3.4a4.71,4.71,0,0,1,.2.5s.6.1,1,.2.3.3.7.5.8.4,1.3.6a1.2,1.2,0,0,0,.7,0c.2,0,.2.4.2.4h-.8a4.05,4.05,0,0,1-1.2-.3,9.88,9.88,0,0,1-1.5-.9,1.51,1.51,0,0,0-.8-.2c-.1,0-.1-.1-.2-.3l-.5-.5h0M59,61.7c-.1-.2-.2-.5-.3-.7a4.33,4.33,0,0,1-.1-.5,3.28,3.28,0,0,0,.8.6Zm1,.3a1.43,1.43,0,0,0-.2.7,2,2,0,0,1-.5.1c-.1,0-.2,0-.2.1,0-.1.1-.2.1-.3a3.33,3.33,0,0,1,.6-1c.3-.2,1-.7,1.1-.8-.3.5-.8,1-.9,1.2m-6.8-.3c.1,0,.1.2.1.3s-.1.2-.2.3a6.82,6.82,0,0,0-.7.5,4.35,4.35,0,0,0-.7.4c-.1.1-.2.2-.2.3s.1.2,0,.2-.1.1-.1.3v.3c-.1.1-.1.2,0,.4s.3.3.3.4a.65.65,0,0,0,.2.5,1.66,1.66,0,0,0,1,.3,5.63,5.63,0,0,0,1-.2,2.63,2.63,0,0,0,1.4-.7c.4-.4,2.2-1.8,3.2-1.6a3.53,3.53,0,0,1,.9.2s.3-.2.5-.3a1.4,1.4,0,0,0,.4-.5,5.38,5.38,0,0,1,.1.8.74.74,0,0,1-.3.5,1.09,1.09,0,0,0,.4.2c.3.1.4.4.6.5s-.1.6-.1.7.1.3.1.4-.1.3-.4.4l-2.1,1c-.4.2-.3.4-.4.4a1.88,1.88,0,0,1-.8.2c-.1,0-.4.4-.5.5a14.25,14.25,0,0,1-1.6-.3,11,11,0,0,1-1.6-.3,10.55,10.55,0,0,1-1.3-.8l-.4-.4c-.4-.5-.8-.8-1.1-.8s-.8-.1-1.5-.1a1,1,0,0,1-1-.7,3.12,3.12,0,0,0-1.4-.9,3.93,3.93,0,0,0-1.4-.3h.2s.4-.3.4-.4.2-.3.3-.3a3.08,3.08,0,0,0,.9-.4,3.51,3.51,0,0,0,.9-.7.71.71,0,0,1,.6-.3c.2-.1.9-.2,1.1-.3a1.35,1.35,0,0,1,.9,0c.4.1,1.1.3,1.2.3a1.49,1.49,0,0,0,.6-.1,1.34,1.34,0,0,0,.5.1m2.3-23.6a3.29,3.29,0,0,1,.6-.6h.5a7.37,7.37,0,0,0-.5.6,7.76,7.76,0,0,0,.7-.4.1.1,0,0,0,.1-.1,1.53,1.53,0,0,1-.5.7,2.14,2.14,0,0,1-1.3.3,3.61,3.61,0,0,0,.4-.5m-.8-2.2s.3-.2,1.4-.1a1.55,1.55,0,0,1,.8.2l.3.3c-.1,0-.3-.1-.5,0a3.55,3.55,0,0,0-.7.1.94.94,0,0,1,.7.3.52.52,0,0,1,.2.4A3.08,3.08,0,0,1,56,37a2.36,2.36,0,0,1-1.3-1.1M60.2,38h0a1.82,1.82,0,0,1,1.1.3,1.73,1.73,0,0,1,.3.4,1.55,1.55,0,0,1-.8.3,5.9,5.9,0,0,1-1.4-.2,6.76,6.76,0,0,0,1.2-.1,1.24,1.24,0,0,1-.2-.3.52.52,0,0,1-.2-.4m3.7,1.4V40a.52.52,0,0,1-.4.2,3.93,3.93,0,0,1-.6.2v-.5a4.33,4.33,0,0,0,.1-.5h.1a3.93,3.93,0,0,1,.6-.2c.2,0,.2.1.2.2m-3.4,1c.2.1-.3-.6-.5-1a3.14,3.14,0,0,1,1,.8,2.18,2.18,0,0,1,.4,1.1,2.24,2.24,0,0,1-1.3-.6,2.09,2.09,0,0,1-.4-.6,1.33,1.33,0,0,1,.8.3m.5-.9a.6.6,0,0,0,.4-.1h.1l.3.3a1.73,1.73,0,0,0,.4.3l-.4.2a1.24,1.24,0,0,0-.3.2,1.62,1.62,0,0,0-.5-.9m1.1-1.4c.1-.1.2-.3.3-.4a1.36,1.36,0,0,0,0,.7h0c-.1.1-.1.2-.2.4-.1-.1-.2-.3-.4-.5.1-.1.2-.1.3-.2m-3.7,2h0a3.12,3.12,0,0,0,.3-1.4.35.35,0,0,1,.2.1,2.19,2.19,0,0,1,.3.8,3.25,3.25,0,0,1,.1,1.3,1.71,1.71,0,0,1-.9-.8m-1.2-.9a8.87,8.87,0,0,1,.1-1.3h0a1,1,0,0,1,.1-.3,1,1,0,0,1,.2.7c0,.6-.2,1-.1,1a3.08,3.08,0,0,1,.6-.6,2.48,2.48,0,0,1-.1.9,2.44,2.44,0,0,1-.5.9,8.36,8.36,0,0,1-.3-1.3m7.9-2.5a1.34,1.34,0,0,0-.1.5l.6-.6c0,.2.1.3.2.5a1.38,1.38,0,0,1-.4.3,1.55,1.55,0,0,1-.6.2,2.44,2.44,0,0,1-.1-.7A1.9,1.9,0,0,1,65,36a.35.35,0,0,0,.2-.1,2,2,0,0,1-.1.8m2,.9a5,5,0,0,1-.8-.6,4.88,4.88,0,0,1-.3-.7,1.72,1.72,0,0,0,.6.4,2.81,2.81,0,0,0-.1-.5c0-.2,0-.3-.1-.4a3.51,3.51,0,0,1,.7.9,1.07,1.07,0,0,1,0,.9M63.2,37a1.38,1.38,0,0,1,.3-.4c.1,0,.2.1.3.1h.1a.31.31,0,0,1-.1.2,1.89,1.89,0,0,1-.4.6,1.23,1.23,0,0,1,.5-.2c.1,0,.2-.1.3-.1v.4c-.1.1-.3.1-.6.2a2.8,2.8,0,0,1-.6.1,2.68,2.68,0,0,1,.2-.9m-1.9.6a1,1,0,0,0,.5-.4c.1,0,.2.1.4.1-.1.1-.2.3-.3.4s-.2.2-.3.2a2.19,2.19,0,0,1-.5-.3c0,.1.1.1.2,0m-2.7-.2c.2,0,.3-.1.5-.2a2.74,2.74,0,0,1,.4.5,6,6,0,0,1,.3.7,1.75,1.75,0,0,1-1.1-.2,1.38,1.38,0,0,0-.4-.3h.4a2.18,2.18,0,0,1,.6.1l-.5-.5c-.1,0-.1-.1-.2-.1m-2.1-2a4.33,4.33,0,0,1-.1-.5v-.7a1.79,1.79,0,0,1,.7.6,1.61,1.61,0,0,1,.4,1.1,1.07,1.07,0,0,0-.5-.3.76.76,0,0,0-.5-.2M55.1,46.6c0-.2,0-1.2.1-2.8a11.86,11.86,0,0,1,1.1-3.5c.2-.3.5,0,.5.1s.1.4.2.6a2.18,2.18,0,0,1-.1.6,5.91,5.91,0,0,0,.8-.5,7.46,7.46,0,0,0,1.2.7c.4.1.6.2.7.1s.2-.3.4-.2a.1.1,0,0,1,.1.1,1.36,1.36,0,0,1,.5.9,4.91,4.91,0,0,1-.4,1c-.2.4-1.6,2.8-1.9,3.3s-.7.8-.7,1.2a3.23,3.23,0,0,1-.2,1.2c-.1.5-.5,2-.6,2.3s.1.3.2.2l.4-.4c.1-.1.3-.1.4.2a10.18,10.18,0,0,1,.2,2.2c0,.9-.4,1.3-.8,2.7a12.74,12.74,0,0,0-.2,3.8c.1.9-.2.9-.4,1.1s-.6.5-.3.7.6-.2.7-.4a.32.32,0,0,1,.3-.3c.1,0,.3.1.3.5a1.15,1.15,0,0,1-.6.9,11,11,0,0,0-1.4.9A13.07,13.07,0,0,0,54.5,65a1.8,1.8,0,0,1-1.2.3c-.3,0-.4.2-.6.2s-.4-.2-.5-.4.3-.5.3-.5-.6.2-.6-.1.2-.3.2-.4-.1-.2,0-.4a.72.72,0,0,1,.6-.4c.1,0,.3-.2.4-.3a2.15,2.15,0,0,1,.7-.4,3.59,3.59,0,0,0,1-.7,1.34,1.34,0,0,0,.6-1.3c0-.3-.2-1.1-.2-1.5S55,56,55,55.2a28.17,28.17,0,0,0-.2-3.4.82.82,0,0,1,.4-.6c.3-.1.2-.4,0-.5a1.38,1.38,0,0,1-.7-.9,5.55,5.55,0,0,1-.2-1.7,1.51,1.51,0,0,1,.4-.9.72.72,0,0,0,.4-.6M51.6,60.2a3.07,3.07,0,0,0,.7-.8,6.42,6.42,0,0,0,.5-1.1,4.76,4.76,0,0,1-.2,1.3,2.58,2.58,0,0,1-.5.8,1.75,1.75,0,0,1,.5.1h.5s-.5.3-.7.4c-.4.1-.7.2-.7.2l-.1-.5a.44.44,0,0,1-.3.1H51a2.48,2.48,0,0,0,.3-.9,4.74,4.74,0,0,0,0-1.3.94.94,0,0,1,.3.8v.9M42.3,37.7c-.3.1-.5.1-.8.2-.1,0-.2.1-.4.2l-1.3-4.3,2.5,3.9m2.6,2c2,0,3,.4,3,.9s-1.1.9-3,.9-3-.4-3-.9,1.1-.9,3-.9m3.4-1.8a1.88,1.88,0,0,0-.8-.2l2.4-3.9-1.3,4.3c-.1-.1-.2-.1-.3-.2m-.8-.2a8.75,8.75,0,0,0-1.6-.2l1.3-4.3.3,4.5m-2.6-.3h-1l1-4.5,1,4.5h-1m-1,.1a3.81,3.81,0,0,0-1.6.3l.3-4.5,1.3,4.2m-2.2,1a10.49,10.49,0,0,1,6.4,0c.1.1.3.1.4.2l-.3,1a6.39,6.39,0,0,0-3.3-.6,6.39,6.39,0,0,0-3.3.6l-.3-1c.1-.1.3-.1.4-.2m-11.9-.8c-.3.1-.5.1-.8.2-.1,0-.2.1-.4.2l-1.3-4.3,2.5,3.9m2.6,2c2,0,3,.4,3,.9s-1.1.9-3,.9-3-.4-3-.9,1.1-.9,3-.9m3.4-1.8a1.88,1.88,0,0,0-.8-.2l2.4-3.9-1.3,4.3c-.1-.1-.2-.1-.3-.2m-.8-.2a8.75,8.75,0,0,0-1.6-.2l1.4-4.3.2,4.5m-2.6-.3h-1l1-4.5,1,4.5h-1m-1,.1a3.81,3.81,0,0,0-1.6.3l.3-4.5,1.3,4.2m-2.2,1a9.33,9.33,0,0,1,3.2-.5,9.33,9.33,0,0,1,3.2.5c.1.1.3.1.4.2l-.3,1a6.39,6.39,0,0,0-3.3-.6,6.39,6.39,0,0,0-3.3.6l-.3-1c.1-.1.3-.1.4-.2m-3.4,7.8a19,19,0,0,0,.4-3.7H50.9a32.25,32.25,0,0,0,.4,3.7,27.42,27.42,0,0,1,.5,4.9H25.2c.2-2.2.4-3.6.6-4.9m-3-12.2a5.21,5.21,0,0,1,1.4,1.8,13.41,13.41,0,0,1,1.4,6.2,23.94,23.94,0,0,1-.4,4.2,25.06,25.06,0,0,0-.5,6.3,10,10,0,0,0,1,4.2l-.2.1a7.76,7.76,0,0,0-.4-.7.84.84,0,0,0-.6-.4,2.39,2.39,0,0,1,.3.7,2.8,2.8,0,0,1,.1.6,2.22,2.22,0,0,1-.4.5c-.2.2-.5.4-.6.6a47.28,47.28,0,0,0,.4-6c0-.4-.1-.7-.1-1a12.29,12.29,0,0,1,.2-1.3,5.57,5.57,0,0,0-.1-1.9,8.8,8.8,0,0,1-.5-1.5,33.79,33.79,0,0,0-.4-4.6,6,6,0,0,0-.8-2.2c-.2-.3-.4-.5-.5-.7a2,2,0,0,0,1.5,0s-.4-.2-.7-1.3a1.54,1.54,0,0,0-.3-.7,3.64,3.64,0,0,0,1.1-1,.62.62,0,0,1,.4-.2,2.88,2.88,0,0,1-.6-.4,2.13,2.13,0,0,0-1.2-.3,2.51,2.51,0,0,0,.1-1c-.1-1.3-.6-1.4-.6-1.4a.35.35,0,0,1-.1.4c-.1.1-.4.3-.7.6a6.53,6.53,0,0,0-.2-1.1c-.3-.7-.5-1-.4-1.5,0-.2.6-1.5.6-1.6s.2-.1.2,0a7.41,7.41,0,0,0,.8,2.2,6,6,0,0,0,1.8,1.5l-1,.9M15.1,60.9a3.19,3.19,0,0,1-.6.8,5.16,5.16,0,0,1-.2-1.1,11.8,11.8,0,0,1,.4-2,10.78,10.78,0,0,0,.6-1.9,8.07,8.07,0,0,0-.2-3c-.2-.8-.5-1.1-.5-1.3a6.71,6.71,0,0,0,.6-1.5,3.81,3.81,0,0,0-.1-1.8c0-.3.4-.5.6-1.5s.6-3.8.6-4.2c0-.2,0-.6.1-.7s.2-.1.3.2c.2.7,1.1,3.3,1.3,3.8a9,9,0,0,0,1.1,1.9,3.52,3.52,0,0,0,.2,1.2c.2.4.6.9.7,1.2s-.5.7-.7,1.6a6.43,6.43,0,0,0,0,2.4,15.64,15.64,0,0,1,.8,2.1,13.61,13.61,0,0,1,.2,2.1c-.3.2-.7.5-.7.5a2.48,2.48,0,0,0,.3-.9,1.69,1.69,0,0,0,0-.8,1.47,1.47,0,0,0-.2.4c-.2.4-.3.4-.3.4a3.06,3.06,0,0,0-.3-.9c-.4-1.2-1-1.4-1-1.4a3.67,3.67,0,0,1,.5,1.5,2.69,2.69,0,0,1,0,1,.62.62,0,0,1-.4-.2,2.8,2.8,0,0,1-.5-.8,5.1,5.1,0,0,0,.1.9,1.08,1.08,0,0,0,.4.6,1,1,0,0,1-.4-.1,1.65,1.65,0,0,1-.6-.5,1,1,0,0,0,.4.7,1.13,1.13,0,0,0,.6.4,2.77,2.77,0,0,1-.4.7,3.23,3.23,0,0,1-.8.7,3.75,3.75,0,0,1,.1-.8,1.7,1.7,0,0,1,.4-.7.62.62,0,0,0-.4.2,2.25,2.25,0,0,0-.5.5,3.27,3.27,0,0,0,.2-.8,1.49,1.49,0,0,0-.5-1.1,3.25,3.25,0,0,1-.1,1.3,2.13,2.13,0,0,1-.5.8,2.8,2.8,0,0,0-.1-.6,1.68,1.68,0,0,0-.4-.8,4.34,4.34,0,0,1-.1,1.5m.3,3.4a1,1,0,0,0-.2-.8,2.76,2.76,0,0,0-.6-.6,1.46,1.46,0,0,1,.8.3,1.69,1.69,0,0,1,.4.7l-.2.1-.2.3m.9-1.5v.3a.35.35,0,0,1-.1.2,2.6,2.6,0,0,1-.7-.9,3.3,3.3,0,0,1-.3-1.3,7.91,7.91,0,0,0,.5,1,2.22,2.22,0,0,0,.5.4h.3a.85.85,0,0,1-.3-.5,3.75,3.75,0,0,1-.1-.8,3,3,0,0,0,.5.8l.6.6h.4a1.09,1.09,0,0,0-.2.4,1,1,0,0,1-.1.4,1.89,1.89,0,0,0-.6-.4l-.4-.2m14.8,4a20.32,20.32,0,0,1-2,.6l-1-.2a4.68,4.68,0,0,1,.6-.5,4.43,4.43,0,0,1,.9-.7c.2-.1.7-.1.7-.2a2.19,2.19,0,0,1,.3-.5l-1.8.4-1.7,1.7-.2-.2.6-.7-.2-.2a5.45,5.45,0,0,0-1,.4c-.7.3-1.1.7-1.6.7s-1.6-.1-1.6-.1l.5-.4.5-.1s-.1-.2-.2-.2a5.28,5.28,0,0,0-1.2.1c-.2,0-.3-.2-.4-.2s-1.7.2-1.8.2H20c-.1,0-.4-.6-.5-.7a6.13,6.13,0,0,0-.6-.4l-.4.3s.3.1.3.2a.37.37,0,0,1,.1.3c0,.1-.1.1-.1.2s0,.1.1.2a4,4,0,0,0,.4.3l-.3.3-.8-.3c-.1,0-.3-.5-.4-.7s-.3-.3-.4-.3,0-.4,0-.4.2-.3.3-.3.4-.1.6-.1a2,2,0,0,1,.5.1v-.3s-.5-.2-.7-.3-.2-.2-.1-.4.2-.4.3-.7l.6-.3c.2-.1.6-.2.8-.3a.6.6,0,0,0,0,.7,2,2,0,0,0,1.4.8c.6.1,1.2.9,1.5,1.2a2.22,2.22,0,0,0,1.1.5c.3,0,.5,0,.6.1s.3.3.8.4a1,1,0,0,0,1.3-.8,1.1,1.1,0,0,0-.3-.9.44.44,0,0,0,.1-.3.7.7,0,0,0-.2-.4.35.35,0,0,0-.1-.4,1.87,1.87,0,0,0-.6-.7v-.5c0-.1.5-.3.7-.5s.4-.3.6-.4.7,0,1.1-.1a8.38,8.38,0,0,1,1-.2,4.49,4.49,0,0,1,1.3.6c.4.3.8.6.9.7s.1.7.1.7a2,2,0,0,1,.8.2,1.07,1.07,0,0,1,.6.6c0,.1-.2.3-.6.7a3.08,3.08,0,0,1-.7.5L31,66a5.64,5.64,0,0,1,.7-.1,5.92,5.92,0,0,0,.6-.4l.2.1a6.13,6.13,0,0,1-.4.6,4.71,4.71,0,0,0-.2.5l-.8.5c.1-.4.1-.4,0-.4h0M17.8,69.9a1.44,1.44,0,0,0,.2-.3l.4-.3,1.1.4a12.77,12.77,0,0,1-1.7.2m5.1-2.3c.1,0,.1.2.1.2a5.64,5.64,0,0,1-.7.1.44.44,0,0,0-.3.1,1.44,1.44,0,0,0,.2.3c.1,0,.1.1-.1.1s-.6.1-.7.1a10.37,10.37,0,0,1-1-.4,2.27,2.27,0,0,1,.1-.4l.7-.3a3.87,3.87,0,0,1,.9.1c.3,0,.7.1.8.1m.1.5a5.64,5.64,0,0,1,.7-.1,4.51,4.51,0,0,0,1.1-.3.77.77,0,0,1,.3-.1c.1,0,0,.4,0,.4h-.5a4.5,4.5,0,0,0-.8.2,2.81,2.81,0,0,1-.8.1Zm-3.9.2c.1,0,0,.3.1.3h.6a1.45,1.45,0,0,1,.7.2c.2.1.5.2.4.2H19.3c-.3,0-.7-.2-.9-.2a3.83,3.83,0,0,1-1.1-.5l-.2-.9.3-.2a2,2,0,0,0,.5.1c.2,0,.2.2.2.3s.1.5.2.5.7.2.8.2m22.1,1.3a7.25,7.25,0,0,1-2.5.3,7.38,7.38,0,0,1-2.4-.3.35.35,0,0,1,.1-.2c0-.2.4-.8.3-.8s-.3-.3-.3-.6a7.75,7.75,0,0,1,.1-.9,5.76,5.76,0,0,0-.9-.5,10.37,10.37,0,0,1-1-.4c-.2-.1.1-.5,0-.6s-.5-.1-.7-.2-.2-.3-.3-.6l-.3-.6.5-.2a.78.78,0,0,0,0-.5l-.4-.8s.7.1.9.5a2.71,2.71,0,0,1,.3.8,2.44,2.44,0,0,0,.7.1,3.33,3.33,0,0,0,.3.6c0,.1.2-.3.3-.6a6.37,6.37,0,0,0,.9-.2h.7a3.78,3.78,0,0,1,1.3,1.2A5.71,5.71,0,0,1,41,63.4l.2.8s.2-.3.3-.5l.2-.4H42a1,1,0,0,0,.3-.1.79.79,0,0,1,.5.6,5.2,5.2,0,0,1,.3-.5,7.37,7.37,0,0,1,.6-.5l.2.6a1.34,1.34,0,0,0,.5-.1c.1-.1.4-.5.4-.5a.49.49,0,0,0,.1.3.35.35,0,0,0,.1.2,4,4,0,0,0-.4.3,1.42,1.42,0,0,1-.4.2l-.2.8c0,.1-.5.2-.7.2s-.1.1-.3.2l-.5.5-.4.2a.72.72,0,0,1,0,.7,11.64,11.64,0,0,1-.6,1.5,3.29,3.29,0,0,1-.6.3,1.4,1.4,0,0,1,.4.4,1.15,1.15,0,0,0-.1,1M27.4,30.1h0a10.11,10.11,0,0,0,5.8,1.8,10.57,10.57,0,0,0,5.4-1.5h0A9.38,9.38,0,0,0,44,31.9a9.84,9.84,0,0,0,5.8-1.8h0l3.5,4h0c-.9,1.1-2.4,3.5-2.4,7.8h-.5a12.33,12.33,0,0,1,2.3-7.8l-2.9-3.3A10.78,10.78,0,0,1,44,32.5,9.4,9.4,0,0,1,38.6,31a10.25,10.25,0,0,1-5.4,1.5,10.78,10.78,0,0,1-5.8-1.7l-2.9,3.3a12.33,12.33,0,0,1,2.3,7.8h-.5c0-4.3-1.5-6.7-2.4-7.8h0ZM58.7,19.9H58a2.21,2.21,0,0,0,.8-.7,2.15,2.15,0,0,0,.6-1.3.31.31,0,0,1,.2-.1c.1,0,.2,0,.2.3a.72.72,0,0,1-.4.6h-.2a1.36,1.36,0,0,0,0,.7c0,.1-.3.3-.5.5m.4-2.3a.44.44,0,0,1-.5.2.79.79,0,0,0,.2-.7c0-.4-.3-.8-.3-1.3a3,3,0,0,1,.3-1.1.84.84,0,0,1-.3-.7.8.8,0,0,1,.7-.9,1.06,1.06,0,0,1,.6,0,1.11,1.11,0,0,1,.3-.9,1.1,1.1,0,0,1,.9-.4.77.77,0,0,1,.5.2.79.79,0,0,1,.7-.5,1.85,1.85,0,0,1,1.7.5,1.11,1.11,0,0,1,.3.9,1.4,1.4,0,0,1,1.4.6c.5.6.1,1.5.9,2.2h0a2.16,2.16,0,0,0,.1,1.1,2.12,2.12,0,0,0,.8,1.1s-.1.3-.6.3a1.35,1.35,0,0,1-.9-.5v-.6a1.06,1.06,0,0,0,.3-1c0-.4-.6-1-.7-1.2a1.45,1.45,0,0,1-.2-.7c0-.2.1-.5.2-.5a.55.55,0,0,0-.5.5,1.75,1.75,0,0,0,.4,1.2,1.58,1.58,0,0,1,.5.8c0,.2,0,.4-.1.4a1.57,1.57,0,0,0-1-.8,1.75,1.75,0,0,1,.5,1,4.33,4.33,0,0,1-.1.5.37.37,0,0,0-.1-.3c-.1-.5-.7-.6-.7-.6a1.68,1.68,0,0,1,.4.8.82.82,0,0,1-.1.7.77.77,0,0,1-.2-.3c-.4-.6-.6-1-.5-1.2a9.29,9.29,0,0,1,.5-1,1.12,1.12,0,0,0-.1-1.1,1.9,1.9,0,0,0-.7-.8,1,1,0,0,0,.2-.8,1.08,1.08,0,0,1-.4.5.62.62,0,0,1-.4.2,1.21,1.21,0,0,0,.1-.5h0a1.08,1.08,0,0,0-.5-.8,3.55,3.55,0,0,1,.1.7c-.3-.1-.5-.5-.6-.5v.6a1,1,0,0,1-.1.4h.5a4.2,4.2,0,0,1-.2.5.63.63,0,0,0,.6.1,2.1,2.1,0,0,1,.5.7,1.61,1.61,0,0,1,.2,1.1c-.1.2-.3.3-.3.5a1,1,0,0,0-.1.4l-.4.2a1.1,1.1,0,0,1-.9-.3,1.1,1.1,0,0,1-.7.3c-.3,0-.3-.2-.3-.2a4.33,4.33,0,0,0,.1-.5v-.7a.1.1,0,0,0-.1-.1H60c-.4-.1-.5-.3-.5-.4s.1-.2.3-.3a1,1,0,0,1,.4.1l.3-.8s.1.2.6.4l.9.3a3.2,3.2,0,0,0-.1-1.3c-.1-.4-.6-.4-.6-.4a.74.74,0,0,1,.3.5c.1.3,0,.4,0,.6s-.1.1-.2,0a1.89,1.89,0,0,1-.8-.5.78.78,0,0,1-.2-.5c-.2.2-.2.5-.3.7a4.08,4.08,0,0,0-.2.7c-.1,0-.6-.1-.8.1a.32.32,0,0,0-.2.5,2,2,0,0,1,.1.5c.1.2-.1.6,0,.9.3.1.3.9.1,1.2m-.3-6.4c-.4-.5-.7-.4-1.3-.9a1.48,1.48,0,0,1-.3-1.6c0-.1.1-.2,0-.3a1.42,1.42,0,0,1-.2-.6c0-.1.1-.1.1-.3s-.1-.4.3-.5,1,.9,1.1,1.1.3.1.4,0,.4.1.5.1a2.19,2.19,0,0,1,.3.8c.1.5,0,.7.1,1.1s.3.5.5.4,0-.5.2-.5a.52.52,0,0,1,.4.2c.1.1.1.4.2.5s.1.3.2.4a2.81,2.81,0,0,0-.8.1,3,3,0,0,0-.7.5c-.1.1-.2.3-.3.4-.1-.1-.4-.5-.7-.9m1.3-2.6c0-.1,0-.3.1-.3s.2.2.2.3.1.5.1.7-.1.3-.2.3-.1,0-.1-.1V9.2c0-.2,0-.2-.1-.3V8.6m-.2,10.6c.3,0,.3-.2.4-.3a6.12,6.12,0,0,0,.5-1.2.82.82,0,0,1,.6-.4.7.7,0,0,1,.4.2.75.75,0,0,1,.6-.3,5.38,5.38,0,0,1,.8.1,1,1,0,0,1,.5.4c.1.1.4.6.6.7s.2.1.4.1a1.38,1.38,0,0,1-.4.3c-.3.1-.4,0-.5-.2a1.87,1.87,0,0,0-.6-.7,1.09,1.09,0,0,0-.5-.1.44.44,0,0,1-.3-.1.1.1,0,0,0-.1.1.77.77,0,0,0,.3.2c0,.1,0,.2-.2.3a6.89,6.89,0,0,1-.8.3,1.63,1.63,0,0,1,.3-.6c.1,0,0-.1-.1-.1a.81.81,0,0,0-.5.7c-.2.5-.3,1.1-.8,1.1s-.8-.4-.9-.6a.44.44,0,0,0,.3.1m.2-3.3c0,.1-.1.2.1.3a.44.44,0,0,0,.3-.1c.1,0,.1.1.1.3a1.42,1.42,0,0,1-.2.6c-.1.2-.2.4-.4.4s-.3-.2-.3-.4a1.76,1.76,0,0,0-.1-.6v-.3l.1-.1c.3-.2.4-.2.4-.1h0m6,4.7a1.74,1.74,0,0,1-.7-.3c-.3-.2-.3-.4-.4-.5a.44.44,0,0,0-.1.3v.2a1.75,1.75,0,0,1-.5-.1,1.4,1.4,0,0,1-.4-.4,3.54,3.54,0,0,1,.1.6c0,.2,0,.3-.4.3a1.07,1.07,0,0,1-.8-.6,2.14,2.14,0,0,0,.1.6c.1.2,0,.5-.1.5s-.3,0-.5-.2a1.73,1.73,0,0,1-.3-.4,3.54,3.54,0,0,1,.1.6c-.1.5-.8.7-.8.7a.91.91,0,0,0,.2-.8,3.2,3.2,0,0,1-.1-.7s0,.5-.1.6-.6.3-.6,0a1.27,1.27,0,0,1,.2-.6.44.44,0,0,0-.4.3,3,3,0,0,1-.7,1c-.4.3-1.1.5-1.1.4a2.07,2.07,0,0,0,.2-.8,1.88,1.88,0,0,1,.2-.8c.1-.2.3-.4.4-.6a.78.78,0,0,0,.7.3c.7,0,1-.6,1.1-1.1a1.42,1.42,0,0,0,.2.6,1.56,1.56,0,0,0,.5.7,7.72,7.72,0,0,1-.1-1,2.18,2.18,0,0,1,.1-.6l.2.6a1.13,1.13,0,0,0,.4.5,3.78,3.78,0,0,1-.1-.8,1.88,1.88,0,0,1,.2-.8v.1c.1.2.4.9.9,1s1-.5,1.1-.6.4-.3.6-.2.3.2.4.4.1.4,0,.6a2.61,2.61,0,0,0,.3,1m8,9a.28.28,0,0,1,0,.4.34.34,0,1,1-.6-.3c.1,0,.6-.1.6-.1m1.1,3c.3-.3.1-.4,0-.5s-.1-.2-.3-.5-.5-.9-.5-.9a1.7,1.7,0,0,0,.4-.7,1.38,1.38,0,0,0-.2-.7,2.18,2.18,0,0,0,.1-.6.69.69,0,0,0-.4-.5.73.73,0,0,0-.1-.6.54.54,0,0,0-.6-.3s0-.1-.3-.3a1.19,1.19,0,0,0-.6-.2,5.56,5.56,0,0,0-.9-1.7c-.3-.4-.6-.3-.7-.4s-.2-.6-.4-.9-.4-.4-.5-.6a7.26,7.26,0,0,1-.5-.9c-.1-.3-.5-.5-.6-.7s-.1-.4-.4-.6-.2-.3-.4-.5a1.82,1.82,0,0,0-.6-.8A4.62,4.62,0,0,1,67,19a1.69,1.69,0,0,0,.5-.2,3,3,0,0,0,1.1-1.2,2.5,2.5,0,0,1-.8-.4,1.48,1.48,0,0,1-.4-1.1,2.07,2.07,0,0,0,.8-.2,1.42,1.42,0,0,1-1.1-.6c-.4-.6-.2-1.3-.7-2a1.72,1.72,0,0,0-1.3-.7,1.75,1.75,0,0,0-.4-1,2.46,2.46,0,0,0-2.2-.7h-.1A4.33,4.33,0,0,1,62,9.8a3.78,3.78,0,0,0-.5-.8c-.1-.2-.4-.9-.5-1.1s-.3-.7-.6-.8a2.15,2.15,0,0,0-1.1-.2,1.91,1.91,0,0,1-.8-.3,1.25,1.25,0,0,0-.9-.1,1.4,1.4,0,0,0-.8,1.2,1.6,1.6,0,0,0,.2,1,1.09,1.09,0,0,0-.2.4c0,.3.2,1.6.6,1.7a11.24,11.24,0,0,1,1.5,1.1,9.22,9.22,0,0,1,.5.8,1.42,1.42,0,0,0-.6.2,1.31,1.31,0,0,0-.6.8,1.23,1.23,0,0,0,.2.9,1.83,1.83,0,0,0-.4,1c-.1.6.1.8.2,1.5a1.05,1.05,0,0,1-.5,1.1s.2.2,1,.1h.2a1.72,1.72,0,0,1-.2.8,1.82,1.82,0,0,1-1,.9,2.48,2.48,0,0,0,.6.4.9.9,0,0,0,.5.1.9.9,0,0,0-.1.5,6.56,6.56,0,0,0-1.5.7,4,4,0,0,0-1.7,2.7,2.35,2.35,0,0,1-.4,1.2A3.76,3.76,0,0,0,53.8,28a3.2,3.2,0,0,0-.1.7,10.45,10.45,0,0,0-1.6.7,4.31,4.31,0,0,0-1,.7l-.8-.9a9.07,9.07,0,0,1-5.9,2.1A7.91,7.91,0,0,1,39,29.5a6.51,6.51,0,0,1-1.4.9,9.21,9.21,0,0,1-4.1.9,8.79,8.79,0,0,1-5.9-2.1l-1.1,1.3a2,2,0,0,0-.9-1c-.8-.6-.9-.5-.9-.5a12.61,12.61,0,0,0-.5-2.4,2.52,2.52,0,0,0-1-1.5,3,3,0,0,0-.6-3.1,2.7,2.7,0,0,0-1.5-1.1,1.87,1.87,0,0,0-.4-.3.35.35,0,0,1-.2-.1v-.4a1.39,1.39,0,0,0-.6-.8.92.92,0,0,0,0-1.2.48.48,0,0,0,.4,0,.7.7,0,0,0,.4-.2.78.78,0,0,1-.5-1.1,2.3,2.3,0,0,0,.4-1.1,2.1,2.1,0,0,0-.2-1.4,3.5,3.5,0,0,0-1.2-1.4s.4-.6.8-.7a1.3,1.3,0,0,0,.7-.5.77.77,0,0,0,.1-.9.9.9,0,0,1,.1-.5,3.93,3.93,0,0,0,.2-.6,1.5,1.5,0,0,0,.1-1.3.87.87,0,0,0-.8-.6c-.2,0-.6-.1-1.2-.1a1,1,0,0,0-.8.4,9.68,9.68,0,0,0-.7.9,1,1,0,0,0-.2.6s-.4.1-.5.3a.78.78,0,0,0-.2.5s-.4.1-.9.8a2.52,2.52,0,0,0-.4,1.1s-.1,0-.3.2-.2.2-.2.2a2.29,2.29,0,0,0-2,.9,6.88,6.88,0,0,0-.9,2.1,1.92,1.92,0,0,1-.7.7.37.37,0,0,0,.3.2,1,1,0,0,0,.4.1,1.13,1.13,0,0,0-.4.5v.5a2.2,2.2,0,0,0-.9.8,2.27,2.27,0,0,0,0,1.7s-.1.1-.3,0a1.24,1.24,0,0,1-.3-.2,1.59,1.59,0,0,0,.1.9C10,21.2,8.1,23.8,8,24a1.08,1.08,0,0,0-.1.6c0,.3.1.4-.2.7s-.6.7-.8.9a2.74,2.74,0,0,0-.4.7s-.1-.1-.6,0a.6.6,0,0,0-.6.3.28.28,0,0,0,0,.4s-.6-.1-.8.3a.56.56,0,0,0,0,.6,1.89,1.89,0,0,0-.4.6c-.1.4.1.5.1.5A.43.43,0,0,0,4,30c-.1.5.2.6.2.7s-1.2,1.7-1.4,2-.1.8.6,1,1.1.3,1.4-.4a18.48,18.48,0,0,1,1.3-1.9h.5a1.76,1.76,0,0,0,.8,1.4c.6.4.9.7,1.1.8a1.21,1.21,0,0,0,1-.1,3.15,3.15,0,0,0,.9-2.4,1.72,1.72,0,0,0,.4.6c.1.2.3.4.3.6s-.1.7-.1,1h0a1,1,0,0,0-1,0,3.61,3.61,0,0,1,.4.5l.1.1a2,2,0,0,0-.7.1,3.81,3.81,0,0,0-1.3.9,1.13,1.13,0,0,1-.7.4,3.62,3.62,0,0,0,1.7.8,2.09,2.09,0,0,0-.4.6,6.13,6.13,0,0,0-.3,1.6,1.09,1.09,0,0,1-.2.4,3.73,3.73,0,0,0,1.4-.5c.1,0,.1-.1.2-.1a1.6,1.6,0,0,1-.3.8,3.61,3.61,0,0,1-.4.5,1,1,0,0,0,1-.2h0a10.79,10.79,0,0,0-.4,5.5c.3,1.7.5,3.3.6,3.8a3,3,0,0,1,.2,1.3,4.48,4.48,0,0,0,0,2c.2.7-.6,2.7-.5,4.7a44.59,44.59,0,0,0,1.3,6,.56.56,0,0,1-.1.6,1.49,1.49,0,0,1-.6.1c-.1,0-.2,0-.2.1s.1.4,0,.4h-.3c-.1,0-.4-.3-.4-.3l.3.7a.1.1,0,0,1-.1.1.76.76,0,0,1-.4-.1,1.4,1.4,0,0,1-.4-.5,1.76,1.76,0,0,0,.1.6,1.69,1.69,0,0,1,.2.5c0,.1-.1.1-.2.1a.93.93,0,0,0-.6,0s.2.2.2.3a.22.22,0,0,1-.1.3s-.6.7-.9.7a.5.5,0,0,1-.5-.1,2,2,0,0,1,.1.5c0,.3-.1.3-.2.5s-.2.3-.1.4v.4a2,2,0,0,0,.5.1c.1,0,.2,0,.2.1a1.43,1.43,0,0,0-.6,1.2c0,.2.5,3.6.6,4.6.1.7.8,1.3,1.8,1.8a12.43,12.43,0,0,0,4.2.9c7.2.3,14.1-1.9,17.4-3,.2-.1.4-.1.5-.2l.4,1.7h0c.2.7,1.2,1.2,3.1,1.5a17.59,17.59,0,0,0,2.8.2h0a19,19,0,0,0,2.8-.2c1.9-.3,2.9-.7,3.1-1.5h0l.4-1.7c.2.1.4.1.5.2,3.1,1,9.3,3,16,3h1.4a11.91,11.91,0,0,0,4.2-.9q1.65-.75,1.8-1.8c.1-.9.6-4.3.6-4.6,0-.6-.1-1-.6-1.2-.1-.1-.3-.2-.1-.4a8.34,8.34,0,0,1,1.2-.8c.2-.1.7-.3.7-.3a2.18,2.18,0,0,0-.6-.1c-.3,0-.6-.1-.5-.3a1,1,0,0,1,.6-.5,2.18,2.18,0,0,0-.6-.1.88.88,0,0,0-.6.2,1.06,1.06,0,0,1,.1-1.1,4.71,4.71,0,0,0-.5.2,1.2,1.2,0,0,0-.4.4v-.9a6.66,6.66,0,0,1,.3-.7,2.05,2.05,0,0,0-.7.5,1.46,1.46,0,0,0-.3.5,1.55,1.55,0,0,1-.6-.3,1.73,1.73,0,0,1-.3-.4s-.3.4-.5.3-.1-.7-.1-.7l-.6.6s-.2-.1-.2-.2a6.27,6.27,0,0,1-.1-1.8,40.39,40.39,0,0,1,.8-4,11.59,11.59,0,0,0,.5-3.4c-.1-1.1-.3-2-.3-2.5s.3-1.5.3-1.7-.1-.6-.1-1,.8-2.9,1-4a15.59,15.59,0,0,0,.2-6.1c.1.1.2.1.3.3a1.55,1.55,0,0,1,.3.6,1.67,1.67,0,0,0,.3-.9,1.27,1.27,0,0,0-.1-.6,2.2,2.2,0,0,0,.8-.1A1.77,1.77,0,0,0,70,37.6a1.34,1.34,0,0,1-.5-.1,8.34,8.34,0,0,1-1.2-.8,1.74,1.74,0,0,0-.7-.3A6.42,6.42,0,0,0,69,36c.3-.1.4,0,.4,0a1.3,1.3,0,0,0-.3-.7,2.3,2.3,0,0,0-1.9-.9c0-.3.1-.9.1-1.3a1.17,1.17,0,0,0-.2-.8l.6-.8a10.27,10.27,0,0,0,.7,1,1.07,1.07,0,0,0,1.2.4,2.11,2.11,0,0,0,1.3-1.1,1.7,1.7,0,0,1,.6-.6c.2,0,.2.4.5.6a3.88,3.88,0,0,1,.6,1.1,1.56,1.56,0,0,0,.8.6c.3.1.5-.1.8-.2.6-.6.7-.4,1-.7M61.6,15.3c0-.1-.1-.1,0-.2a5.9,5.9,0,0,0,.8-.4,5.07,5.07,0,0,1,.9-.2l.1.1v.1h-.2a.1.1,0,0,0,0,.2.31.31,0,0,1,.2.1.1.1,0,0,1,.1.1h-.6v.1a.49.49,0,0,1-.1.3c-.2.1-.3,0-.3,0s-.1.1-.2.2,0,.2-.1.2-.2.1-.2,0c-.2,0-.4-.5-.4-.6m-45,.1c.1.1.1.1,0,.3s-.1.4-.2.4-.2.1-.3,0,0-.1-.1-.2-.1-.1-.1,0-.1.1-.2.1a.35.35,0,0,1-.2-.1v-.2a.6.6,0,0,0-.4.1c-.1,0-.1-.1-.1-.2l.2-.2a.37.37,0,0,1,.3-.1s.1-.1,0-.1a.77.77,0,0,1-.3-.2c-.1,0-.2-.2-.1-.2s.5,0,.8.1.3.2.5.3l.2.2m11.5,48,2-.7v.7Zm12,9.1a2.13,2.13,0,0,1,.9.7h0a2.13,2.13,0,0,1-.9.7.81.81,0,0,0-.7-.5h-.5v.5a.81.81,0,0,0,.5.7,2.13,2.13,0,0,1-.7.9h0a2.13,2.13,0,0,1-.7-.9.81.81,0,0,0,.5-.7v-.5H38a.81.81,0,0,0-.7.5,2.13,2.13,0,0,1-.9-.7h0a2.13,2.13,0,0,1,.9-.7.81.81,0,0,0,.7.5h.5v-.5a.81.81,0,0,0-.5-.7,2.13,2.13,0,0,1,.7-.9h0a2.13,2.13,0,0,1,.7.9.81.81,0,0,0-.5.7V73h.5a1,1,0,0,0,.7-.5m22.4-1c.5-.1,2.3-.2,2.7-.3a3.87,3.87,0,0,0,1.1-.3l-.2,1.8s-.4-1.1-.9-1.1c-.2,0-.6.1-1,.1,0,.4-.1,2-.1,2.1,0,.4.5.7.5.7l-2.1.3s.5-.4.5-.8.1-1.7.1-2.2a5.38,5.38,0,0,0-.8.1c-.5.1-1.1,1.2-1.1,1.2l.2-1.7c0,.1.7.2,1.1.1m-11.2.6,1.2-1.2a15,15,0,0,1,.6,1.6Zm3.4,1.4c-.1-.2-1.2-3.1-1.2-3.1L51.6,70s.5.5.2.7L50,72.5a3.29,3.29,0,0,1-.6.3l1.6.4s-.3-.4-.2-.6a.1.1,0,0,1,.1-.1l2.5.6v.1c0,.1-.5.4-.5.4l2.2.4c.1.2-.3-.3-.4-.5m-5.1-2.6s-.1-1-.7-1.2a11.65,11.65,0,0,0-1.5-.4l-.2,1a5.07,5.07,0,0,0,.9.2,4.88,4.88,0,0,0,.7-.3l-.4,1.6s-.1-.7-.5-.8a2.39,2.39,0,0,0-.9-.2,8.14,8.14,0,0,0-.2.9,4.35,4.35,0,0,0,.4.7l-2-.6a3.63,3.63,0,0,0,.7-.3c0-.2.5-2.2.5-2.3a4.23,4.23,0,0,0-.5-.7l4,1.2ZM20.2,73.2c.2-.7.5-1.5.5-1.5L21.8,73Zm3.3.1c-.2-.2-2.1-2.4-2.1-2.4l-1.9.3s.6.3.5.6-.7,2.2-.8,2.4-.4.5-.4.5l1.6-.2s-.5-.3-.4-.5a.31.31,0,0,1,.1-.2l2.2-.3.1.1a3.33,3.33,0,0,1-.3.6l2.2-.5-.8-.4m8.2-3.5c.2.8-.1,1.3-.4,1.4s-.7.3-.7.3l-.7-2.2a3.13,3.13,0,0,1,.7-.2.89.89,0,0,1,1.1.7m1.1-.2a1.77,1.77,0,0,0-2.3-1.1c-.5.2-2.2.6-2.2.6s.6.3.7.5a18,18,0,0,1,.5,1.9,9.44,9.44,0,0,1-.3.9s2.3-.7,2.7-.9a1.59,1.59,0,0,0,.9-1.9m-5.3.2c0,.1.7,2.9.7,2.9s-2.5-1.2-3.4-1.6c.2.6.4,1.6.5,1.7a1.4,1.4,0,0,0,.5.4l-1.2.3a4.33,4.33,0,0,0,.1-.5c0-.1-.5-1.7-.6-2.2a4.13,4.13,0,0,1-.9-.4l1.6-.3,2.3,1s-.3-1.1-.3-1.2a3.21,3.21,0,0,0-.5-.3l1.4-.4c0,.1-.2.5-.2.6m-9.8,1.6a6.37,6.37,0,0,0,.7-.2l.3,1.4s-.6-.8-1-.8h-.6a15,15,0,0,0,.2,2.2c0,.3.5.6.5.6l-2,.1s.4-.4.4-.6-.1-1.8-.1-2.2h-.6c-.3,0-.8.9-.8.9s.1-1.5.1-1.5a2.53,2.53,0,0,0,1.1.1,10.8,10.8,0,0,0,1.8,0m41.7,1.4a1,1,0,0,1,.7,1.2c-.2.7-.9.8-1.5.8a10.06,10.06,0,0,1-1.8-.4h-.6l-.1-1.3a3.42,3.42,0,0,0,1.5,1.1c.8.2,1.3.2,1.4-.1s-.1-.4-.6-.5a11.5,11.5,0,0,1-1.7-.6.92.92,0,0,1-.4-1.3c.3-.4.9-.5,1.8-.4a4.79,4.79,0,0,1,1.3.4,2,2,0,0,0,.5-.1l.1,1.3a5.49,5.49,0,0,0-1.4-.9c-.8-.2-1.2-.1-1.2,0-.1.3.2.5.6.6a2.1,2.1,0,0,1,1.4.2m-46.1-.2a1,1,0,0,1,.6,1.2,1.06,1.06,0,0,1-1.2.8,4.86,4.86,0,0,1-1.4-.4h-.5l-.1-1.3a3.3,3.3,0,0,0,1.2,1c.7.2,1,0,1-.2s0-.4-.4-.5a8.43,8.43,0,0,1-1.4-.6.87.87,0,0,1-.3-1.3c.2-.4.7-.6,1.5-.5a2.47,2.47,0,0,1,1.1.4,1,1,0,0,0,.4-.1l.1,1.3a3.89,3.89,0,0,0-1.1-.9c-.6-.2-.9-.1-1,.1s.1.4.4.5a5.36,5.36,0,0,0,1.1.5m25.4-4.7a1.81,1.81,0,0,1,.8-.7,4.55,4.55,0,0,1,1.1-.3A3.18,3.18,0,0,0,39.3,68a4,4,0,0,0-.5,1.5l-.4-.6-.6.2a2.44,2.44,0,0,0,.1-.7,1.83,1.83,0,0,0-.4-1,1,1,0,0,1,.5.2.75.75,0,0,1,.3.3l.3-.6.2.2a1,1,0,0,0-.1.4m1.2-1.5a1.49,1.49,0,0,0,0-.7,2.07,2.07,0,0,0-.2-.8,4.57,4.57,0,0,1,.6.4c.2.2.2.3.2.3a2.63,2.63,0,0,1,.8-.8c.4-.3.7-.5.7-.5a4.77,4.77,0,0,0-.4.8l-.2.6a4.08,4.08,0,0,0-.7.2,6.13,6.13,0,0,0-.8.5m-2.4-.6a2.91,2.91,0,0,0,.2.8l-.7-.3-.1.6a4.43,4.43,0,0,0-.5-.6,2.93,2.93,0,0,0-1-.6,1.06,1.06,0,0,1,.6,0l.4.2a1.38,1.38,0,0,1-.2-.7,1.73,1.73,0,0,1,.1-.7,2.6,2.6,0,0,0,.3.7,1.13,1.13,0,0,0,.4.5,2.22,2.22,0,0,1,.4-.5.78.78,0,0,1,.5-.2,2.66,2.66,0,0,0-.4.8M15,67.7a2.14,2.14,0,0,0-.1-.6,3,3,0,0,0-.3-.6,1.44,1.44,0,0,1,.3.2l.3.3a2.6,2.6,0,0,1,.3-.7,7.51,7.51,0,0,1,.7-.8,7.69,7.69,0,0,0-.4,1.2,4.35,4.35,0,0,0,0,1.2l-.1.1-.4-.5-.3.2m-4.8.9c-.3-.1-.3-.2-.3-.2s.1-.3.2-.3h.2a.75.75,0,0,0,.3.3c.2.1.4.2.4.3s.1.1-.1.1a1.08,1.08,0,0,1-.7-.2M39.5,25.5a.3.3,0,1,1,.6,0,.3.3,0,1,1-.6,0m2.4-.9a.3.3,0,1,1-.3.3.32.32,0,0,1,.3-.3m-2.2.3a.3.3,0,0,1,0-.6.32.32,0,0,1,.3.3.27.27,0,0,1-.3.3M38,17a.3.3,0,1,1-.3-.3.27.27,0,0,1,.3.3m6.8,27.4a1,1,0,0,1-.2-.8.83.83,0,0,1,.7.4.79.79,0,0,1,.1.8.84.84,0,0,1-.6-.4M44,46.7c0-.3,0-1-.2-1h0c.2.1.5-.4.8-.7s.9,0,1.1.3.4.7.4.7l-.6.3h0l.3.6s-.5.2-.7.3-1,.1-1.1-.5m0,1.4a1.12,1.12,0,0,1-.8-.1s.2-.5.6-.6a1.12,1.12,0,0,1,.8.1,1,1,0,0,1-.6.6m2.7-.2a5.38,5.38,0,0,1,.1.8c0,.3-.2,1-.7.9-.3,0-.9-.3-1-.1h0c.1-.2-.3-.7-.4-1-.3-.5.3-.9.6-1a4.08,4.08,0,0,1,.7-.2l.1.7h0c-.1,0,.6-.1.6-.1m.2,1.4a1.12,1.12,0,0,1,.4.7c0,.4-.4.8-.3.8a1.08,1.08,0,0,1-.4-.8.84.84,0,0,1,.3-.7m1.8-1.8c.3.1.9.5.6,1-.1.3-.5.8-.4,1h0c-.1-.2-.7,0-1,.1-.6.1-.7-.6-.7-.9s.1-.8.1-.8l.7.1h0l.1-.7a2,2,0,0,0,.6.2m.6,0a.62.62,0,0,1,.7-.1c.4.1.6.6.6.6a.83.83,0,0,1-.8.1,1,1,0,0,1-.5-.6m-.9-1.2-.6-.3s.3-.5.4-.7.7-.7,1.1-.3c.2.2.6.8.8.7h0c-.2.1-.2.7-.2,1-.1.6-.8.5-1.1.4s-.7-.3-.7-.3l.3-.5h0m.7-1.9a1,1,0,0,1-.7.4.63.63,0,0,1,.1-.7,1.26,1.26,0,0,1,.7-.4c0-.1.2.3-.1.7m-2.6,1.3a3.81,3.81,0,0,1-.5-.6c-.2-.3-.4-.9.1-1.2.3-.1.9-.3.9-.5h0c0,.2.6.4.9.5.5.3.3.9.1,1.2a3.81,3.81,0,0,1-.5.6l-.5-.5h0c-.1,0-.5.5-.5.5m1.3,1.1a.9.9,0,1,1-.9-.9.9.9,0,0,1,.9.9M28.2,44.4a1,1,0,0,1-.2-.8.83.83,0,0,1,.7.4.79.79,0,0,1,.1.8.84.84,0,0,1-.6-.4m-.8,2.4c-.1-.3,0-1-.2-1h0c.2.1.5-.4.8-.7s.9,0,1.1.3.4.7.4.7l-.6.3h0l.3.6s-.5.2-.7.3-1,0-1.1-.5m0,1.3a1.12,1.12,0,0,1-.8-.1s.2-.5.6-.6a1.12,1.12,0,0,1,.8.1,1,1,0,0,1-.6.6m2.7-.2a5.38,5.38,0,0,1,.1.8c0,.3-.2,1-.7.9-.3,0-.9-.3-1-.1h0c.1-.2-.3-.7-.4-1-.3-.5.3-.9.6-1a4.08,4.08,0,0,1,.7-.2l.1.7h0c-.1,0,.6-.1.6-.1m.2,1.4a1.12,1.12,0,0,1,.4.7c0,.4-.4.8-.3.8A1.08,1.08,0,0,1,30,50a1.1,1.1,0,0,1,.3-.7m1.8-1.8c.3.1.9.5.6,1-.1.3-.5.8-.4,1h0c-.1-.2-.7,0-1,.1-.6.1-.7-.6-.7-.9s.1-.8.1-.8l.7.1h0l.1-.7a2,2,0,0,0,.6.2m.6,0a.62.62,0,0,1,.7-.1c.4.1.6.6.6.6a.83.83,0,0,1-.8.1,1,1,0,0,1-.5-.6m-.9-1.2-.6-.3s.3-.5.4-.7.7-.7,1.1-.3c.2.2.6.8.8.7h0c-.2.1-.2.7-.2,1-.1.6-.8.5-1.1.4s-.7-.3-.7-.3l.3-.5h0m.7-1.9a1,1,0,0,1-.7.4,1,1,0,0,1,.1-.7,1.26,1.26,0,0,1,.7-.4c0-.1.2.3-.1.7m-2.6,1.3a3.81,3.81,0,0,1-.5-.6c-.2-.3-.4-.9.1-1.2.3-.1.9-.3.9-.5h0c0,.2.6.4.9.5.5.3.3.9.1,1.2a3.81,3.81,0,0,1-.5.6l-.5-.5h0l-.5.5m1.3,1.1a.9.9,0,1,1-.9-.9.9.9,0,0,1,.9.9m5.3-2.4a1,1,0,0,1-.2-.8.83.83,0,0,1,.7.4.79.79,0,0,1,.1.8.84.84,0,0,1-.6-.4m-.8,2.3c-.1-.3,0-1-.2-1h0c.2.1.5-.4.8-.7s.9,0,1.1.3.4.7.4.7l-.6.3h0l.3.6s-.5.2-.7.3-1,.1-1.1-.5m0,1.4a1.12,1.12,0,0,1-.8-.1s.2-.5.6-.6a1.12,1.12,0,0,1,.8.1,1,1,0,0,1-.6.6m2.7-.2a5.38,5.38,0,0,1,.1.8c0,.3-.2,1-.7.9-.3,0-.9-.3-1-.1h0c.1-.2-.3-.7-.4-1-.3-.5.3-.9.6-1a4.08,4.08,0,0,1,.7-.2l.1.7h0c-.1,0,.6-.1.6-.1m.2,1.4a1.12,1.12,0,0,1,.4.7c0,.4-.4.8-.3.8a1.08,1.08,0,0,1-.4-.8.84.84,0,0,1,.3-.7m1.8-1.8c.3.1.9.5.6,1-.1.3-.5.8-.4,1h0c-.1-.2-.7,0-1,.1-.6.1-.7-.6-.7-.9s.1-.8.1-.8l.7.1h0l.1-.7a2,2,0,0,0,.6.2m.6,0a.62.62,0,0,1,.7-.1c.4.1.6.6.6.6a.83.83,0,0,1-.8.1,1,1,0,0,1-.5-.6m-.9-1.2-.6-.3s.3-.5.4-.7.7-.7,1.1-.3c.2.2.6.8.8.7h0c-.2.1-.2.7-.2,1-.1.6-.8.5-1.1.4s-.7-.3-.7-.3l.3-.5h0m.7-1.9a1,1,0,0,1-.7.4,1,1,0,0,1,.1-.7,1.26,1.26,0,0,1,.7-.4c0-.1.2.3-.1.7m-2.6,1.3a3.81,3.81,0,0,1-.5-.6c-.2-.3-.4-.9.1-1.2.3-.1.9-.3.9-.5h0c0,.2.6.4.9.5.5.3.3.9.1,1.2a3.81,3.81,0,0,1-.5.6l-.5-.5h0c-.1,0-.5.5-.5.5m1.3,1.1a.9.9,0,1,1-.9-.9.9.9,0,0,1,.9.9m-7.1-5.9a7.18,7.18,0,0,1-2.1-.3,4.83,4.83,0,0,1,2.1-.3,8.08,8.08,0,0,1,2.2.3,5.39,5.39,0,0,1-2.2.3m6.2,19.2a7.18,7.18,0,0,1-2.1-.3,4.83,4.83,0,0,1,2.1-.3,8.08,8.08,0,0,1,2.2.3,7.43,7.43,0,0,1-2.2.3m6.3-19.2a7.18,7.18,0,0,1-2.1-.3,4.83,4.83,0,0,1,2.1-.3,8.08,8.08,0,0,1,2.2.3,5.39,5.39,0,0,1-2.2.3m-23.3-25c-.1-.1-.1-.2,0-.2a.35.35,0,0,1,.2-.1c.3-.2.3-.4.7-.5.7-.1,2.4,1.2,2.4,1.2s-.2-.3-.5-.7a3.22,3.22,0,0,1-.1-3.5,2.24,2.24,0,0,1,2.1-1,2.48,2.48,0,0,0-1.7,1.6,3.46,3.46,0,0,0,1.2,3.6,3.9,3.9,0,0,0,1.9.8,3.23,3.23,0,0,0-1.7,2.7,1.07,1.07,0,0,1-.2.6l-.5.5c-.1.1-.1.2-.2.3s-.1.1-.1,0-.2-.3-.3-.4c-.3-.2-.3-.2-.4-.4a.9.9,0,0,1-.1-.5A2.77,2.77,0,0,1,26.4,17h0A2.51,2.51,0,0,0,24,18.4c-.4.7-.6.9-1,1a1.7,1.7,0,0,1-1,0c-.1,0-.3-.1-.4-.1s-.2-.1-.1-.2V19c.1-.4.1-.5.2-.8.3-.7,1-.7,1.7-.9a2.55,2.55,0,0,0,1.1-.4H23.4a2.51,2.51,0,0,1-1-.2,4.23,4.23,0,0,1-.7-.5c.1-.2,0-.3-.1-.3m29-3.8a1.75,1.75,0,0,0-1.2.4,1.24,1.24,0,0,1,1.1-1.3,1.22,1.22,0,0,1,1,.5,3,3,0,0,1,.4,2.6,3.86,3.86,0,0,0-.2-1.1,1.38,1.38,0,0,0-1.1-1.1m-22.7.5a1.23,1.23,0,0,0-1.2-.4,1.62,1.62,0,0,0-1.2,1.1,4.47,4.47,0,0,0-.2,1.1,3,3,0,0,1,.4-2.6,1.22,1.22,0,0,1,1-.5,1.26,1.26,0,0,1,1.2,1.3m1.5,4.3a3.09,3.09,0,0,1,.8-.2,3.06,3.06,0,0,0,1.2-1,2,2,0,0,0,1.5,0,11.28,11.28,0,0,0-2.7,2.5,5.1,5.1,0,0,0-.9-.1s-.4-.1-.5.2a.47.47,0,0,0,.2.5l.6.6a2,2,0,0,1-.9.2A2.44,2.44,0,0,1,27,19c0-.1.1-.3.1-.4a1.47,1.47,0,0,0,1.4-.2,1.51,1.51,0,0,1-1.1-.3,4.94,4.94,0,0,1,2-1.2m1.9-2a.58.58,0,0,1,.2-1,1.56,1.56,0,0,1,1.5.3,1.76,1.76,0,0,0,.5.4,1.62,1.62,0,0,1-2.2.3m1.3-2.5c.1-.3.2-.4.5-.4a31.81,31.81,0,0,1,5.5-.6,30.3,30.3,0,0,1,5.5.6c.3,0,.4.2.5.4a3.54,3.54,0,0,1,.1.6.37.37,0,0,1-.3-.1,1.25,1.25,0,0,0-.9.1,2.11,2.11,0,0,0-1.1-.5,3.22,3.22,0,0,1-.8-.1,2,2,0,0,0-.9.2,1.68,1.68,0,0,0-1.1-.3h-.8a2.37,2.37,0,0,0-1,.3,2.34,2.34,0,0,0-1.1-.2,3.22,3.22,0,0,0-.8.1,1.9,1.9,0,0,0-.9.3,1.35,1.35,0,0,0-.9,0c-.2.1-.2,0-.7.2a1,1,0,0,0-.7.5c-.1,0-.1-.1-.2-.1a2.79,2.79,0,0,1,.1-1m.3-2.4c-.8-.1-1.6.5-2.4-.2a1.48,1.48,0,0,1-.3-.9,1.11,1.11,0,0,0,.9.6c.6,0,.6-.5.6-.7-.1-.4-.3-.6-.8-.8a1.84,1.84,0,0,1-1.2-.8.83.83,0,0,1,.1-1.1,1.75,1.75,0,0,0,.5,1,12.83,12.83,0,0,0,2.8,1,2.93,2.93,0,0,1,1.9,2c.1.6,0,.7-.1.7-.3,0-.3-.6-.6-1a1.64,1.64,0,0,0-1-.7,1.88,1.88,0,0,1,.7.8c.1.3.2.7,0,.8a.37.37,0,0,1-.3-.1c-.2-.4-.3-.6-.8-.6M31.8,6.3a1.28,1.28,0,0,1,0-1.3,1.09,1.09,0,0,0,.4.2c.4.1.7,0,1.2.4.6.6.5,2.1,1.7,2.8a2,2,0,0,0,1.3.1,3.69,3.69,0,0,1-.9-.4,1.38,1.38,0,0,1-.4-.3h0c.2-.9,1-2.8,1.2-3.5a1.24,1.24,0,0,1,.2-.3c0-.1-.1-.2,0-.3.1-.4.5-.9.7-.9h.9l.4.4.2-.4L38,2.1l-.3-.5A4.12,4.12,0,0,1,38,.8c.1-.1.2-.3.3-.2s.8.1.8.1.2,0,.3.3a2.25,2.25,0,0,1,.1.7,6.77,6.77,0,0,0,.9,1.2,15.5,15.5,0,0,0,1.5,1.4c.2.3,1.1,2.3,1.3,2.6a1.38,1.38,0,0,0-.4.3,3.14,3.14,0,0,0-2.2-3.1A2.68,2.68,0,0,1,41,5.9a2.92,2.92,0,0,1-.2.9c0-.2.1-.4,0-.5-.1-1.2-.9-1.6-1.1-2.1a1,1,0,0,1,.3-1,2.48,2.48,0,0,0-2,.9,3.64,3.64,0,0,0-.7,2.1v.5l-.1-.1A4.38,4.38,0,0,0,36,5.8a10.4,10.4,0,0,1,.7,3.6c0,.8-.1,1-.4,1-.5,0-.9-.9-1-1.2a4,4,0,0,0-1.9-1.5,4.28,4.28,0,0,1-1.6-1.4m3-1.2c-.2-.3-.5-.6-.7-.9a1.33,1.33,0,0,1,0-1.6s-.2.4.5,1a1.46,1.46,0,0,1,.6.9l-.4.6h0M42,2.4a1.69,1.69,0,0,0,0-.8s.5.1.4.9a1.88,1.88,0,0,1-.2.8l-.4-.4a.76.76,0,0,1,.2-.5m.8,1.9a2,2,0,0,1,1.2-1c1.2-.3,1.4.2,1.4.2a1.6,1.6,0,0,0-1.1.9,4.21,4.21,0,0,0-.4,1.8c-.1-.2-.2-.5-.4-.9a3.59,3.59,0,0,1-.7-1m.9,2.8c1.8-.5,2.1-.8,2.3-1.1a5.07,5.07,0,0,1,.6-.7.61.61,0,0,1,.6-.2s-.4.6-.7,1.1a3.75,3.75,0,0,1-1.7,1.6c-.9.4-1.8.2-2.5,1.8-.1.3-.4.9-.8.8s-.4-.5-.2-.9c.4-.4.7-1.9,2.4-2.4m.5,1.8a4.5,4.5,0,0,1,1.4-.2,10.53,10.53,0,0,0,1.2-.1A4,4,0,0,0,44.7,10c-.4.6-.5.7-.8.7-.5,0-.2-.7.3-1a1.88,1.88,0,0,0-1.1.8c-.3.4-.5.5-.6.5a.45.45,0,0,1,0-.5,2.37,2.37,0,0,1,1.7-1.6M36.9,7a5.16,5.16,0,0,1,.6,1.8,4.66,4.66,0,0,1,.4-1.5,3.37,3.37,0,0,1,.5-.8,4.46,4.46,0,0,0,0,1.3,6.11,6.11,0,0,0,.3,1.3h0c0,.8-.2,1.5-.6,1.5s-.5,0-.8-1.2a9,9,0,0,0-1-3.1,1.44,1.44,0,0,1,.6.7m4.4-1.1a1.35,1.35,0,0,0-.5-1.2c.7.6,1.5,1.3,1.1,2.6-.2.5-.3.9-.4,1.1-.3.6-.4,1.1-.5,1.3s-.2.9-.5.8-.1-.9,0-1.4a6.71,6.71,0,0,1,.6-1.5,3.13,3.13,0,0,0-1,1.4c-.2.6-.3,1.1-.7,1.1s-.5-.3-.4-1.2a4.91,4.91,0,0,1,.7-2.1,1.21,1.21,0,0,0-.1.5,1.31,1.31,0,0,0,.3.9,3.8,3.8,0,0,0,1.4-2.3M39.4,3.3s-.5.5-.3.9,1.1,1,1.2,2a2.15,2.15,0,0,1-.2,1,2.26,2.26,0,0,1,0-.9,1.94,1.94,0,0,0-1.2,1.2c0-.2,0-.5-.1-.6a5.66,5.66,0,0,1,0-1.5,5.4,5.4,0,0,0-.8.8,1.55,1.55,0,0,1-.2-.8,2.64,2.64,0,0,1,1.6-2.1M46,15.8a5.86,5.86,0,0,0,1.1.9,1.88,1.88,0,0,0,.8.2,3.9,3.9,0,0,1,1.7,1,3.17,3.17,0,0,1-2.4.3,2.92,2.92,0,0,0,2.9.3c.1.1.1.3.2.5a3,3,0,0,1-1.7.6c-1.4,0-2.2-1.5-4.4-1.4a2.41,2.41,0,0,0-1.9.9,3.5,3.5,0,0,1,2-.2,5.76,5.76,0,0,1,2.1.8s1.7,1.1,1.7,2.3a2.9,2.9,0,0,0-.9-1,2.92,2.92,0,0,1,.6,1.8,1,1,0,0,1-.5.4,3.25,3.25,0,0,0-2.9-3s1,1.2.4,1.9a.78.78,0,0,1-.7.3,3.16,3.16,0,0,0-.5-1.6,1.85,1.85,0,0,0-1.7-.6,6.34,6.34,0,0,1,.3,1.7c0,.9-.2,1.5-1.1,1.5a.84.84,0,0,1-.9-.6,4.07,4.07,0,0,1,0-1.6.35.35,0,0,0-.1.2,3.81,3.81,0,0,1-.6.5.58.58,0,0,1-.7,0c-.2-.2-.2-.5.1-.8a4.35,4.35,0,0,0,.6-.7c.1-.1.2-.3.3-.4a3,3,0,0,0,.7.5,1,1,0,0,1,.5.5l.2-.4c.2-.3.9-.5.8-1.5s-1.5-1.6-1.8-2.8a1.74,1.74,0,0,1,.3-1.2h.2a1.55,1.55,0,0,0,1.4-.4,2.28,2.28,0,0,0,1.2.6,1.62,1.62,0,0,0,1.3-.2,3,3,0,0,0,1.1.7H46M49.4,17a3.9,3.9,0,0,0,1.9-.8,3.12,3.12,0,0,0,1.2-3.6A2.79,2.79,0,0,0,50.8,11a2.24,2.24,0,0,1,2.1,1,2.87,2.87,0,0,1-.1,3.5c-.3.4-.5.7-.5.7s1.6-1.3,2.4-1.2c.4.1.4.3.7.5.1,0,.1.1.2.1s.1.1,0,.2l-.3.3a.94.94,0,0,1-.7.5,3.55,3.55,0,0,1-1,.2,2,2,0,0,0-1.1,0h0a3.9,3.9,0,0,0,1.1.4c.7.2,1.4.2,1.7.9.1.3.1.4.2.8V19c0,.1,0,.2-.1.2s-.3,0-.4.1a1.7,1.7,0,0,1-1,0c-.3-.1-.5-.2-1-1a2.45,2.45,0,0,0-2.4-1.4h0a2.77,2.77,0,0,1,2.1,2.9c0,.3,0,.4-.1.5s-.1.2-.4.4a.54.54,0,0,0-.3.4c0,.1-.1,0-.1,0s-.1-.2-.2-.3l-.5-.5a2.07,2.07,0,0,1-.2-.6A2.83,2.83,0,0,0,49.4,17m-1.5,3.3c1.4.7,3.9,2.4,3.7,5.5A1.21,1.21,0,0,1,51,27a.68.68,0,0,0-.3.5.78.78,0,0,0-.3-.6c-.2-.1-.3-.2-.3-1.1.2-2.1-.6-2.4-.6-2.4a2.44,2.44,0,0,1,.1.7,7.14,7.14,0,0,1-.2,2,8.09,8.09,0,0,1-.5,1.5.94.94,0,0,1-.7.5,1,1,0,0,0-.7.6.78.78,0,0,0-.2-.7.72.72,0,0,1,.1-1.1,3.1,3.1,0,0,0,1.1-2.7l-.5,1h0a1.39,1.39,0,0,1-.8.6,1.63,1.63,0,0,1-.7,0,2,2,0,0,0-.5.1,1.38,1.38,0,0,0,.2-.7c0-.4-.1-1.2.6-1.3s1.7-.8,1.8-1.6a2.32,2.32,0,0,0-.7-2M43,22.7a5.59,5.59,0,0,0,1.1,3.2,7.54,7.54,0,0,0-2.2-.1h-.3a2.64,2.64,0,0,1-.5-1.7h0c1.4-.2,1.5-1.1,1.3-2.2a3.58,3.58,0,0,0-.4-1.1c.2,0,.4.1.7.4a3.48,3.48,0,0,1,.3,1.5m1.5,5.9c0,.4-.5.7-1.4.5A3.86,3.86,0,0,1,41,27.8a14.41,14.41,0,0,0,2.3.7c1,.3,1.2-.2,1.2.1m-.8-1.5c-2.5-.5-5.4.9-7.7,2.1a4.82,4.82,0,0,1-2.7.7.37.37,0,0,0,.3-.1c1.9-.5,4.7-3.1,8.2-3.4,2-.2,2.7.3,3,.8a.9.9,0,0,1,.1.5,2.28,2.28,0,0,0-1.2-.6m-7-14.2c.3,0,.8-.1,1.6.8a1.76,1.76,0,0,0,.4.5,1.45,1.45,0,0,1-.7.2,2.26,2.26,0,0,1-1.9-.8,2.65,2.65,0,0,0-.6-.5A.75.75,0,0,1,36,13a1.48,1.48,0,0,1,.7-.1m5.6.1c.3,0,.9.1,1.4,1.1a2.09,2.09,0,0,0,.4.6,2.13,2.13,0,0,1-.8,0c-.3,0-1-.1-1.7-1.2a2.65,2.65,0,0,0-.5-.6,4.33,4.33,0,0,1,.5-.1c.3.1.4.1.7.2M32,29.1a1.46,1.46,0,0,1,.9-1.4v1a1.84,1.84,0,0,0,1.6-1.6c.1-1,0-1.1,0-1.1s1-.1.9-1.6a2,2,0,0,0-1-1.8,1.75,1.75,0,0,1-.1.5.69.69,0,0,1-.3.4,13.23,13.23,0,0,0-.7-1.8,11.71,11.71,0,0,0-.6-1.1,25.68,25.68,0,0,0,3.1.3c1.2.1,3.3-.3,3.3-2.7a11,11,0,0,0-.4-2.9,1.71,1.71,0,0,0-1.3.2,1.39,1.39,0,0,0-.5.7.9.9,0,0,0-.7.5,1,1,0,0,0,0,1,.5.5,0,0,1,.5-.1c.4.1.5.4.4.8s-.9.4-1.4.4c-.3,0-2.7-.3-4.4-.5a8.61,8.61,0,0,1,3.8-3.1h.2a2.14,2.14,0,0,0,1.3-.6,2.77,2.77,0,0,0,1.3.3,1.9,1.9,0,0,0,1.2-.4,2,2,0,0,0,.8.4,2.75,2.75,0,0,0-.3,1.6c.2,1,1.6,1.7,1.7,2.6.1.4-.3.7-.4.9s-.2.4-.2.4a.78.78,0,0,0-.3-.4,1.4,1.4,0,0,1-.4-.4,1.74,1.74,0,0,1-.1-1.2,1.7,1.7,0,0,0-.4.7,9.22,9.22,0,0,1-.5.8c-.3.4-.7.7-.9,1a1.15,1.15,0,0,0,.1,1.7,1,1,0,0,0,1.3-.1v.7a1.25,1.25,0,0,0,1,1A2.75,2.75,0,0,0,41,26c-3.3.5-5,2.4-7.6,3.3-1.2.4-1.4-.2-1.4-.2h0m1-4.6a15.05,15.05,0,0,0-2.8-5.7c1.5.2,5,.6,5.4.6H36c1.1,0,1.4-.5,1.5-.9a1.15,1.15,0,0,0-.1-1,1.28,1.28,0,0,0-.7-.5h-.2c.1-.5.7-.4.7-.4s-.1-.3.3-.7c.2-.1.3-.2.5-.2a11.85,11.85,0,0,1,.3,2.4,1.7,1.7,0,0,1-.4,1.3,2.74,2.74,0,0,1-2,.6h-.2c-1.2-.1-3.2-.3-3.2-.3l-1.1-.2.6.9s.3.6.7,1.3a13.23,13.23,0,0,1,.7,1.8l.2.6.5-.2a.54.54,0,0,0,.4-.3,6.89,6.89,0,0,1,.3.8.71.71,0,0,1-.5.9l-.4.1a7.05,7.05,0,0,1,0,1.5c0,.6-.3.7-.5.9V26.7a17,17,0,0,0-.4-2.2m-2.6-.6c.8.1.6.9.6,1.3a2,2,0,0,0,.2.7,1.21,1.21,0,0,0-.5-.1H30a1.07,1.07,0,0,1-.8-.6h0l-.5-1a3.1,3.1,0,0,0,1.1,2.7c.5.5.3.9.1,1.1a.78.78,0,0,0-.2.7,1.4,1.4,0,0,0-.7-.6,1.28,1.28,0,0,1-.7-.5,8.09,8.09,0,0,1-.5-1.5,7.14,7.14,0,0,1-.2-2,4.18,4.18,0,0,0,.1-.7s-.7.4-.6,2.4c.1.9-.1,1-.3,1.1a.78.78,0,0,0-.3.6.68.68,0,0,0-.3-.5,1.31,1.31,0,0,1-.6-1.2c-.2-3,2.3-4.7,3.6-5.4h0a2.32,2.32,0,0,0-.7,2,2.85,2.85,0,0,0,1.9,1.5m-9.9-8.3a2.13,2.13,0,0,1,.6.8,1.76,1.76,0,0,0,.9.8,1.38,1.38,0,0,0-.4.3,1.87,1.87,0,0,0-.5,1.4,3.68,3.68,0,0,1-.4,1,1.56,1.56,0,0,1,1.3,0c.2,0,.6.1,1,.1a1.14,1.14,0,0,0,.8-.3h0a1.42,1.42,0,0,0,.5,1.4c.2.2.5.4.8.7s.4.4.4.4a5.2,5.2,0,0,1,.3-.5,6,6,0,0,1,.6-.7,1.58,1.58,0,0,0,.6-1.1v-.2a3.15,3.15,0,0,0,1.3.6A5.87,5.87,0,0,0,25.1,26a1.84,1.84,0,0,0,1.1,1.7,3.08,3.08,0,0,1,.6.6,1.08,1.08,0,0,1,.4-.5c.1-.1.3-.2.5-.4a4.67,4.67,0,0,0,.5,1,2.34,2.34,0,0,0,1,.5,2.43,2.43,0,0,1,1,.6s0-.7.3-.9a1.5,1.5,0,0,0,.4-1.1,1.23,1.23,0,0,0-.4-.8l-.2-.2h1.8a3.3,3.3,0,0,1-.2-1.1c0-.7.1-1.8-1.2-2-.2,0-.3-.1-.5-.2a2.29,2.29,0,0,1,1.8.1c.2.4.3.9.5,1.4a13,13,0,0,1,.4,2.1c-.3.2-2.4,1.3-1.5,3,.8,1.5,3.4,1,5.1.1.9-.4,2-1.1,3.3-1.6A9.56,9.56,0,0,0,43.1,30a2.07,2.07,0,0,0,2.2-.7h0a2.18,2.18,0,0,0,.6-1.6,1.61,1.61,0,0,0-.8-1.4,6.29,6.29,0,0,1-1-3.5,4.14,4.14,0,0,0,1-.1c.6-.2.9-.7.5-1.7,0,0,1,.4,1.1,2.3-1.1.3-1,1.3-1,2a4.17,4.17,0,0,1-.2,1.1,3.06,3.06,0,0,1,1,0h.8l-.2.2a1.23,1.23,0,0,0-.4.8,1.5,1.5,0,0,0,.4,1.1c.3.2.3.9.3.9a4.69,4.69,0,0,1,1-.6,3.13,3.13,0,0,0,1-.5,1.91,1.91,0,0,0,.5-1c.1.2.4.3.5.4a1.08,1.08,0,0,1,.4.5,1.49,1.49,0,0,1,.6-.6,1.84,1.84,0,0,0,1.1-1.7,5.67,5.67,0,0,0-3.2-5.7,3.93,3.93,0,0,0,1.3-.6v.2a1.29,1.29,0,0,0,.6,1.1,2.26,2.26,0,0,1,.6.7,5.2,5.2,0,0,1,.3.5s0-.1.4-.4.6-.5.8-.7a1.42,1.42,0,0,0,.5-1.4h0a1.14,1.14,0,0,0,.8.3c.3,0,.8-.1,1-.1a1.56,1.56,0,0,1,1.3,0,1.91,1.91,0,0,1-.4-1,3.36,3.36,0,0,0-.5-1.4c-.1-.1-.3-.2-.4-.3a1.76,1.76,0,0,0,.9-.8,2.13,2.13,0,0,1,.6-.8,2.53,2.53,0,0,1-1-.7,1.66,1.66,0,0,0-1.3-.5c-.2,0-.3.1-.5.1a3.27,3.27,0,0,0-.4-2.8,3.22,3.22,0,0,0-3.1-1.2c-1,.2-2.2.9-1.9,2.4A1.49,1.49,0,0,0,51,14a1.11,1.11,0,0,0,.5-.4,1.43,1.43,0,0,1-.3,2,3.38,3.38,0,0,1-3.5.3c-.4-.3-.6-.6-.8-.7a1.18,1.18,0,0,0-.3-1.6,2.18,2.18,0,0,0-.8-.5,4.25,4.25,0,0,1-.2-1.1.86.86,0,0,0-.8-.7,2,2,0,0,1,.9-1.3c1-.5,1.7-.6,2.2-1.3a1.65,1.65,0,0,0,.4-1.6,1.75,1.75,0,0,1-.9.8,12.08,12.08,0,0,1-1.4.3H45c.5-.3,1-.5,1.3-.7.9-.5.9-1.4,1.3-2.1a1,1,0,0,1,1-.6,1.63,1.63,0,0,0-1.7-.1c-.8.4-.7.8-1.5,1.3a3,3,0,0,1-1,.4,4.1,4.1,0,0,1,.2-1.8A1.3,1.3,0,0,1,46,3.8s-.4-1.2-2.2-.8a1.84,1.84,0,0,0-1.3.8h0a12.75,12.75,0,0,1,.4-1.4c0-1.3-1.7-1.5-1.7-1.5a1.68,1.68,0,0,1,.5,1.4c-.1.1-.1.3-.2.3l-.2-.2c-.7-.8-1-.9-1-.9a6.89,6.89,0,0,0-.1-.7,1.63,1.63,0,0,0-.3-.6.37.37,0,0,0-.3-.1h-.3s-.7-.1-1-.1a1,1,0,0,0-.7.2c-.1.1-.3.8-.5,1.1s-.4.5-.4.7v.5a2.19,2.19,0,0,0-.6.7,7.23,7.23,0,0,1-.4.7l-.1.1c-.2-.5-.5-.6-.7-.8a1.18,1.18,0,0,1-.3-1.4,2.1,2.1,0,0,0-.9,2.5c.3.8.7.9.8,1.6l-.2.5a4.61,4.61,0,0,0-.5-1c-.6-.6-1-.4-1.6-.6a1,1,0,0,1-.7-.5,3.82,3.82,0,0,0-.2,2.2,4.05,4.05,0,0,0,.5.9c-1.3-.2-1.5-.7-1.6-1a.78.78,0,0,1,0-.5s-.6,0-.8.4c-.4.5-.2,1,.1,1.5a2.47,2.47,0,0,0,1.5.8.47.47,0,0,1,.3.5c0,.1-.3.1-.6-.1a1.13,1.13,0,0,1-.4-.6,1.28,1.28,0,0,0-.5,1.2,1.61,1.61,0,0,0,1.4,1.2c.7.1,1.2-.1,1.6,0a.6.6,0,0,1,.3.6c-.7.1-.9.3-1.1.8-.1.2-.2.9-.3,1.2-.2,0-.3.1-.4.1a1.14,1.14,0,0,0-.5,1.8,2.48,2.48,0,0,1-.9.9,3.38,3.38,0,0,1-3.5-.3,1.43,1.43,0,0,1-.3-2,.69.69,0,0,0,.5.4,1.51,1.51,0,0,0,2.1-1.2,2,2,0,0,0-1.9-2.4,3.22,3.22,0,0,0-3.1,1.2,3.27,3.27,0,0,0-.4,2.8.75.75,0,0,0-.5-.1,1.66,1.66,0,0,0-1.3.5,2.15,2.15,0,0,1-1,.5M15.1,31.2l.4,1.2c.1.2.1.6-.1.7a.37.37,0,0,1-.4-.4,6.25,6.25,0,0,1,0-1.4c-.1-.3.1-.2.1-.1m-.4-5.4c-.2,0-.3-.1-.2-.3a10.8,10.8,0,0,0,.4-1.7c0-.1.3-.2.3.1s-.2,1.5-.2,1.6a.45.45,0,0,1-.3.3m-2.2,5.6c0,.2.1.1.1,0a2,2,0,0,1,.6-1.2,2.26,2.26,0,0,1,1.9-.7,6.35,6.35,0,0,1,2.5,1.2c.1.1.2.1.2,0a5.5,5.5,0,0,0-2.6-1.9,2.39,2.39,0,0,0-2.3.5c-.7.7-.4,1.9-.4,2.1m17.1-8.5a2.19,2.19,0,0,1-.3-.5,2.39,2.39,0,0,1,1.3-.4,1.55,1.55,0,0,0-1.3-.2,2.69,2.69,0,0,1,1.1-1.7,11.36,11.36,0,0,1,1.3,2.5A2.53,2.53,0,0,0,29.6,22.9Z"/><path class="cls-1" d="M.2,88.7H.9v4.7H.2Zm3.1,1.2v3.5H2.6V88.7h.5l2.8,3.5V88.7h.7v4.7H6.1Zm5,3.5V88.7H9.7a3.1,3.1,0,0,1,1.6.4,2.2,2.2,0,0,1,.9,1.9,2.48,2.48,0,0,1-.9,1.9,2.54,2.54,0,0,1-1.6.4H8.3Zm2.8-3.7a1.81,1.81,0,0,0-1.4-.4H9v3.4h.7a1.81,1.81,0,0,0,1.4-.4,1.61,1.61,0,0,0,.6-1.3A2.62,2.62,0,0,0,11.1,89.7Zm4.8.8v.6H14.3v1.6h2.1v.6H13.7V88.7h2.7v.6h-2v1.2Zm2.6.8v2.1h-.7V88.7h1.8a1.33,1.33,0,0,1,1,.3,1.25,1.25,0,0,1,0,2,1.33,1.33,0,0,1-1,.3Zm1.1-.6a.85.85,0,0,0,.6-.2.76.76,0,0,0,.2-.5c0-.2-.1-.3-.2-.5a.85.85,0,0,0-.6-.2H18.5v1.4Zm4.9-.2v.6H22.9v1.6H25v.6H22.2V88.7h2.7v.6h-2v1.2Zm2.6-.6v3.5h-.7V88.7h.5l2.8,3.5V88.7h.7v4.7h-.5Zm5,3.5V88.7h1.4a3.1,3.1,0,0,1,1.6.4A2.2,2.2,0,0,1,36,91a2.48,2.48,0,0,1-.9,1.9,2.54,2.54,0,0,1-1.6.4H32.1Zm2.7-3.7a1.81,1.81,0,0,0-1.4-.4h-.7v3.4h.7a1.81,1.81,0,0,0,1.4-.4,1.71,1.71,0,0,0,0-2.6Zm4.9.8v.6H38.1v1.6h2.1v.6H37.4V88.7h2.7v.6h-2v1.2Zm2.5-.6v3.5h-.7V88.7H42l2.8,3.5V88.7h.7v4.7H45Zm4.5-1.2h3.2v.6H48.7v4.1H48V89.3H46.7Zm9.2,1.8v.6H54.3v2.2h-.7V88.7h2.7v.6h-2v1.2Zm3.9,1.7h-2l-.5,1.2h-.7l2-4.7h.5l2,4.7h-.7Zm-1.7-.6h1.5l-.7-1.8Zm6.6.8h-.5l-1.4-2.2v3.2h-.7V88.7h.5l1.8,2.9,1.8-2.9h.5v4.7H66V90.2Zm3.8-3.7h.7v4.7h-.7Zm3,4.1h2.1v.6H70.8V88.7h.7v4.1Zm4.6-1.5v2.2h-.7V91.3l-1.6-2.6h.8l1.2,1.9L77,88.7h.8ZM0,103.3V98.6H1.4A3.1,3.1,0,0,1,3,99a2.2,2.2,0,0,1,.9,1.9,2.48,2.48,0,0,1-.9,1.9,2.54,2.54,0,0,1-1.6.4H0Zm2.8-3.7a1.81,1.81,0,0,0-1.4-.4H.7v3.4h.7a1.81,1.81,0,0,0,1.4-.4,1.61,1.61,0,0,0,.6-1.3A2,2,0,0,0,2.8,99.6Zm2.5-1H6v4.7H5.3Zm2.4,3.5a1.74,1.74,0,0,0,1.2.6.77.77,0,0,0,.8-.7c0-.7-1-.8-1.6-1.2a1.17,1.17,0,0,1-.6-1,1.35,1.35,0,0,1,1.4-1.3,2.23,2.23,0,0,1,1.3.5l-.4.5a1.33,1.33,0,0,0-.8-.3c-.4,0-.8.2-.8.6,0,.6,1,.7,1.6,1.1a1.22,1.22,0,0,1,.6,1.1,1.39,1.39,0,0,1-1.5,1.4,2.46,2.46,0,0,1-1.7-.8Zm3.5-3.5h3.2v.6H13.1v4.1h-.7V99.2H11.1v-.6Zm4.4,0h.7v4.7h-.7Zm3,4.1h2.1v.6H17.9V98.6h.7Zm3.9,0h2.1v.6H21.8V98.6h.7Zm5.5-2.3v.6H26.4v1.6h2.1v.6H25.7V98.5h2.7v.6h-2v1.2H28Zm2.5.7v2.2h-.7V98.6h1.7a1.35,1.35,0,0,1,1.4,1.3,1.39,1.39,0,0,1-.5,1,.85.85,0,0,1-.6.2l1.7,2.3h-.8L31,101.2h-.5Zm.9-.7a.85.85,0,0,0,.6-.2.5.5,0,0,0,0-.8.85.85,0,0,0-.6-.2h-.9v1.2Zm3.2,1.7a1.74,1.74,0,0,0,1.2.6.77.77,0,0,0,.8-.7c0-.7-1-.8-1.6-1.2a1.17,1.17,0,0,1-.6-1,1.35,1.35,0,0,1,1.4-1.3,2.23,2.23,0,0,1,1.3.5l-.4.5a1.33,1.33,0,0,0-.8-.3c-.4,0-.8.2-.8.6,0,.6,1,.7,1.6,1.1a1.22,1.22,0,0,1,.6,1.1,1.39,1.39,0,0,1-1.5,1.4,2.46,2.46,0,0,1-1.7-.8Zm6,0a1.74,1.74,0,0,0,1.2.6.77.77,0,0,0,.8-.7c0-.7-1-.8-1.6-1.2a1.17,1.17,0,0,1-.6-1,1.35,1.35,0,0,1,1.4-1.3,2.23,2.23,0,0,1,1.3.5l-.4.5a1.33,1.33,0,0,0-.8-.3c-.4,0-.8.2-.8.6,0,.6,1,.7,1.6,1.1a1.22,1.22,0,0,1,.6,1.1,1.39,1.39,0,0,1-1.5,1.4,2.46,2.46,0,0,1-1.7-.8Zm4-3.5h.7v4.7h-.7Zm3,1.2v3.5h-.7V98.6h.5l2.8,3.5V98.6h.7v4.7h-.5Zm7-1.3a2.41,2.41,0,0,1,1.7.7l-.5.4a1.9,1.9,0,0,0-1.3-.5,1.71,1.71,0,0,0-1.7,1.8,1.73,1.73,0,0,0,1.8,1.8A2.1,2.1,0,0,0,56,102l.5.4a2.43,2.43,0,0,1-1.8.9,2.39,2.39,0,0,1-2.5-2.4A2.37,2.37,0,0,1,54.6,98.5Zm5.3,1.9v.6H58.3v1.6h2.1v.6H57.6V98.5h2.7v.6h-2v1.2h1.6Zm3.4-.5v-.7l1.1-.6h.5v4.7h-.7V99.4Zm2.9,2a1.3,1.3,0,0,1,.8-1.2,1,1,0,0,1-.4-.9,1.3,1.3,0,0,1,2.6,0,1.49,1.49,0,0,1-.4.9,1.48,1.48,0,0,1,.8,1.2,1.56,1.56,0,0,1-1.6,1.5A1.69,1.69,0,0,1,66.2,101.9Zm.7,0a.9.9,0,1,0,.9-.9A.9.9,0,0,0,66.9,101.9Zm.3-2.2a.65.65,0,0,0,.6.6.58.58,0,0,0,.6-.6.6.6,0,0,0-1.2,0Zm3.3,2.2a1.3,1.3,0,0,1,.8-1.2,1,1,0,0,1-.4-.9,1.3,1.3,0,0,1,2.6,0,1.49,1.49,0,0,1-.4.9,1.48,1.48,0,0,1,.8,1.2,1.56,1.56,0,0,1-1.6,1.5A1.62,1.62,0,0,1,70.5,101.9Zm.7,0a.9.9,0,1,0,.9-.9A.9.9,0,0,0,71.2,101.9Zm.3-2.2a.6.6,0,1,0,.6-.6A.65.65,0,0,0,71.5,99.7Zm3.4,3.6,2-4.1H74.7v-.6h3V99l-2.1,4.3Z"/></g></g></svg>