<svg xmlns="http://www.w3.org/2000/svg" xmlns:xlink="http://www.w3.org/1999/xlink" xmlns:inkscape="http://www.inkscape.org/namespaces/inkscape" version="1.1" width="2976.378" height="720" viewBox="0 0 2976.378 720">
<g inkscape:groupmode="layer" inkscape:label="Layer 1">
<path transform="matrix(1,0,0,-1,0,720)" d="M491.0519 222.4831V232.2791L524.522 234.4314V520.8922L491.0519 523.0446V532.8405H696.4722L698.6242 444.2306H686.4534C685.4145 456.4015 683.7075 466.7913 681.2586 475.4741 678.7352 484.0829 675.0247 492.0236 670.0527 499.1479 665.0062 506.3465 658.1786 511.7641 649.4958 515.4007 640.8128 519.0369 630.2747 520.818 617.8071 520.818 601.109 520.818 588.5671 520.0758 580.1811 518.6659V384.5636C583.8177 384.4151 585.8955 384.3411 586.4893 384.3411 596.8049 384.3411 604.9681 384.8604 610.9053 385.9736 616.8421 387.0867 622.2597 389.3873 627.0834 392.9496 631.8332 396.5119 635.1727 401.781 637.1022 408.757 638.9575 415.7328 639.9224 425.0837 639.9224 436.661H651.8704V319.7758H639.9224C639.9224 339.6648 636.6569 353.4684 630.1261 361.1866 623.5954 368.9048 612.6863 372.7638 597.3985 372.7638L580.1811 372.541V234.4314L622.334 232.2791V222.4831ZM720.4428 423.3027V432.2081L765.8612 437.0321 796.5108 445.121 799.5535 438.8131V401.4842H800.4441C803.3383 407.2728 806.9006 412.9129 811.1307 418.4045 815.2866 423.9706 819.8875 428.7943 824.934 433.0987 829.9063 437.4031 835.2496 440.8169 840.964 443.4143 846.6041 446.0117 852.3184 447.3476 858.1813 447.3476 869.4615 447.3476 878.2189 444.3789 884.3783 438.3677 890.538 432.3566 893.6549 424.3416 893.6549 414.3229 893.6549 410.167 892.9871 406.2336 891.7254 402.7456 890.3897 399.1836 888.5344 396.0666 886.1596 393.4692 883.7847 390.8716 880.8905 388.7938 877.4768 387.3095 874.0627 385.7511 870.3522 385.0089 866.2706 385.0089 861.8919 385.0089 858.0328 385.7511 854.545 387.161 851.057 388.6452 848.0883 390.5748 845.7137 393.0239 843.3388 395.4728 841.4836 398.3672 840.1476 401.6324 838.8859 404.898 838.218 408.386 838.218 412.1708 838.218 419.8147 839.7765 425.4548 842.9678 429.0911V430.4271C837.7727 429.2396 832.6522 426.4937 827.6057 422.1153 822.5592 417.8109 818.0323 411.8737 813.9509 404.3784 809.869 396.9573 806.6038 387.9774 804.1547 377.4393 801.6316 366.9009 800.4441 355.1012 800.4441 341.8914V233.5408L822.856 231.3887V222.4831H724.7472V231.3887L747.1593 233.5408V423.3027ZM912.2822 269.6083C912.2822 276.7326 913.3954 283.6344 915.6217 290.2394 917.9223 296.8441 921.5589 303.2266 926.6054 309.312 931.7259 315.3974 937.8856 320.7407 945.307 325.1934 952.7281 329.7203 961.8562 333.2826 972.7654 336.0285 983.7488 338.7002 995.8456 340.0359 1009.2039 340.0359 1016.2539 340.0359 1023.0075 339.7391 1029.3897 339.1455V369.2758C1029.3897 378.8493 1029.2411 386.6414 1028.8701 392.5786 1028.499 398.5897 1027.6084 404.7494 1026.1242 411.0576 1024.7142 417.3656 1022.6361 422.2636 1019.9645 425.6773 1017.2928 429.0911 1013.508 431.9113 1008.61 434.1376 1003.7863 436.4382 997.9234 437.5514 990.9473 437.5514 969.7969 437.5514 954.3609 429.1654 944.6391 412.4676V411.5769C947.1623 412.0223 949.3886 412.2451 951.3924 412.2451 958.9618 412.2451 964.8989 409.8702 969.2031 405.269 973.5817 400.5935 975.7338 393.9143 975.7338 385.1572 975.7338 377.5876 973.1364 371.2054 967.9416 366.0103 962.6723 360.8898 956.2161 358.2924 948.3497 358.2924 939.8151 358.2924 933.0619 361.1866 928.1639 366.9752 923.1917 372.7638 920.7425 379.5914 920.7425 387.3838 920.7425 404.4526 928.6092 418.7755 944.3421 430.2045 960.0749 441.6333 978.1087 447.3476 998.5173 447.3476 1013.063 447.3476 1025.382 445.7891 1035.6237 442.7464 1045.7907 439.7037 1053.9541 435.6961 1060.0396 430.7238 1066.125 425.6773 1070.8744 418.9241 1074.2882 410.2413 1077.702 401.6324 1079.9286 392.8011 1081.0418 383.8215 1082.0806 374.8416 1082.6742 363.8582 1082.6742 350.7968V233.5408L1105.0863 231.3887V222.4831H1035.9204L1029.835 256.7693H1029.3897C1022.2651 242.9657 1013.7308 232.7244 1003.6378 225.9711 993.545 219.2179 981.3739 215.8038 967.051 215.8038 949.3886 215.8038 935.8078 221.0732 926.3826 231.6855 916.9577 242.2979 912.2822 254.9883 912.2822 269.6083ZM964.8989 274.0609C964.8989 262.4097 967.051 252.9845 971.4294 245.7859 975.7338 238.5873 982.1163 234.9507 990.5023 234.9507 1000.3725 234.9507 1009.2779 241.1104 1017.3671 253.5041 1025.382 265.8974 1029.3897 281.037 1029.3897 298.9964V329.1267C1023.601 329.8689 1018.9256 330.2399 1015.2893 330.2399 1007.7197 330.2399 1001.0404 329.201 995.1775 327.1972 989.3149 325.1191 984.6394 322.3735 981.2256 318.8854 977.7376 315.3974 974.8434 311.6869 972.4686 307.8278 970.168 303.9687 968.5352 299.7386 967.4963 295.0631 966.4571 290.3876 965.7893 286.5285 965.4182 283.4858 965.0472 280.4431 964.8989 277.2522 964.8989 274.0609ZM1127.2017 432.2081 1172.6198 437.0321 1203.2697 445.121 1207.2028 438.8131 1206.3124 409.4991H1207.2028C1224.4944 434.7315 1246.8322 447.3476 1274.2166 447.3476 1279.4856 447.3476 1284.4579 446.9023 1289.2816 446.0117 1294.0313 445.1953 1299.3746 443.1917 1305.1633 440.1488 1310.9519 437.106 1315.9984 433.173 1320.1543 428.2007 1324.3844 423.3027 1327.9465 416.2524 1330.841 407.1243 1333.7351 397.9962 1335.2194 387.3095 1335.2194 375.1387V233.5408L1357.4089 231.3887V222.4831H1259.4484V231.3887L1281.712 233.5408V381.4466C1281.712 412.3191 1271.7675 427.7554 1251.8786 427.7554 1238.8175 427.7554 1228.0567 421.8182 1219.7446 409.9445 1211.3587 398.0704 1207.2028 382.4855 1207.2028 363.1904V233.5408L1229.6151 231.3887V222.4831H1131.5059V231.3887L1153.9182 233.5408V423.7478L1127.6467 423.3027ZM1377.1497 524.3803 1422.5675 529.204 1453.2174 537.2932 1457.1505 530.9853V233.5408L1479.5629 231.3887V222.4831H1381.4539V231.3887L1403.8659 233.5408V515.92L1377.595 515.4746ZM1457.1505 335.9543V341.3718L1541.6785 429.3882 1517.3372 431.7627V440.6683H1582.347V431.7627L1557.7826 429.3882 1495.37 363.1161 1582.7924 233.5408 1605.4271 231.3887V222.4831H1505.8341V231.3887L1523.4225 233.5408ZM1603.8689 330.2399C1603.8689 352.207 1608.0988 372.0217 1616.559 389.9069 1625.0193 407.7179 1636.9677 421.7443 1652.1812 431.9855 1667.469 442.2268 1684.7603 447.3476 1704.0556 447.3476 1719.9371 447.3476 1734.3344 444.0821 1747.1734 437.4771 1760.0119 430.8724 1770.2532 422.041 1778.0457 410.9834 1785.7638 400 1791.7007 387.6806 1795.8566 374.0995 1799.9385 360.5187 1802.0164 346.3441 1802.0164 331.5759 1802.0164 310.2766 1797.9347 290.8329 1789.8455 273.2445 1781.7562 255.7304 1770.105 241.7043 1754.9655 231.3887 1739.826 220.9989 1722.6831 215.8038 1703.6104 215.8038 1686.6156 215.8038 1671.6989 218.8468 1658.7119 224.858 1645.799 230.8691 1635.335 239.1809 1627.4684 249.8675 1619.5277 260.5541 1613.6649 272.5767 1609.7315 286.0835 1605.7984 299.59 1603.8689 314.2843 1603.8689 330.2399ZM1659.5283 332.9116C1659.5283 316.8074 1660.3447 302.4102 1661.9031 289.7198 1663.5357 276.9551 1665.9848 265.7492 1669.3244 255.9529 1672.6637 246.1569 1677.1165 238.6616 1682.7565 233.4665 1688.3966 228.1975 1695.0759 225.6001 1702.7199 225.6001 1731.8112 225.6001 1746.3569 260.4801 1746.3569 330.2399 1746.3569 347.8283 1745.689 362.8936 1744.2788 375.5098 1742.9431 388.1259 1740.5684 399.2576 1737.377 408.9053 1734.1118 418.553 1729.585 425.7516 1723.7962 430.5013 1718.0076 435.1768 1710.9573 437.5514 1702.7199 437.5514 1695.0759 437.5514 1688.3966 434.954 1682.7565 429.6849 1677.1165 424.4899 1672.6637 417.0688 1669.3244 407.4953 1665.9848 397.9219 1663.5357 387.0128 1661.9031 374.6934 1660.3447 362.2997 1659.5283 348.4219 1659.5283 332.9116ZM1788.8067 197.8444C1788.8067 206.6017 1791.7007 214.0971 1797.4894 220.4793 1803.278 226.8618 1810.7734 230.0528 1819.9013 230.0528 1829.6232 230.0528 1837.1187 227.1586 1842.5361 221.37 1847.8794 215.5813 1850.5512 208.5313 1850.5512 200.2935 1850.5512 195.5438 1849.0669 190.349 1846.0984 184.8572 1843.13 179.3656 1839.1224 175.2837 1834.002 172.6863L1834.6697 171.87C1836.5993 169.1243 1840.8294 167.7141 1847.5827 167.7141 1849.8832 167.7141 1851.8871 167.8626 1853.5195 168.1594 1855.2266 168.4562 1857.3786 169.1243 1859.9763 170.0889 1862.5737 171.1278 1864.8 172.8349 1866.6553 175.358 1868.4363 177.8071 1870.2177 180.9984 1871.9987 185.0057 1873.7056 189.0133 1875.0413 194.2824 1876.0062 200.9614 1876.9708 207.6406 1877.4163 215.4328 1877.4163 224.2641V520.8922L1835.2633 523.0446V532.8405H1966.5454V523.0446L1933.0756 520.8922V270.4986C1933.0756 251.1292 1930.8493 234.1346 1926.4708 219.5147 1922.018 204.969 1916.6004 193.7628 1910.2182 185.8963 1903.8359 178.1039 1896.3403 171.7217 1887.7317 166.8977 1879.049 162.074 1871.405 158.957 1864.6515 157.6213 1857.8982 156.3596 1851.0707 155.6918 1844.0946 155.6918 1828.5844 155.6918 1815.4485 159.4023 1804.8366 166.7494 1794.1499 174.1706 1788.8067 184.5604 1788.8067 197.8444ZM1982.3526 423.3027V432.2081L2027.7706 437.0321 2058.4205 445.121 2062.5765 438.8131V281.5563C2062.5765 273.022 2063.467 265.6749 2065.248 259.5895 2067.1033 253.5041 2069.1072 248.9771 2071.3336 245.9344 2073.56 242.9657 2076.38 240.6651 2079.7938 239.0326 2083.2076 237.3256 2085.8792 236.361 2087.7344 236.1382 2089.59 235.9157 2091.742 235.8414 2094.0426 235.8414 2104.1356 235.8414 2113.486 242.2979 2121.9464 255.1368 2130.4066 267.9755 2134.6368 283.7086 2134.6368 302.4845V423.3027H2107.9202V432.2081L2153.3385 437.0321 2183.9884 445.121 2187.9215 438.8131V233.5408L2210.3338 231.3887V222.4831H2142.0579L2135.527 255.8047H2134.6368C2130.8519 250.3128 2127.2896 245.6374 2124.0245 241.7786 2120.6846 237.9934 2116.4547 233.8376 2111.4083 229.3849 2106.2874 225.0062 2100.4989 221.5925 2093.894 219.2919 2087.2894 216.9913 2080.239 215.8038 2072.7437 215.8038 2067.4744 215.8038 2062.428 216.2492 2057.5299 217.1398 2052.5579 217.9562 2047.066 219.8857 2040.9063 222.8542 2034.7466 225.8226 2029.4776 229.8302 2025.0249 234.8025 2020.6463 239.849 2016.8615 246.8991 2013.7445 255.9529 2010.6275 265.0071 2009.069 275.6194 2009.069 287.7902V423.3027ZM2232.0037 515.4746V524.3803L2277.4215 529.204 2308.0714 537.2932 2312.0045 530.9853V233.5408L2334.417 231.3887V222.4831H2236.3079V231.3887L2258.72 233.5408V515.4746ZM2359.946 423.3027V432.2081L2405.364 437.0321 2436.0137 445.121 2439.947 438.8131V233.5408L2462.3592 231.3887V222.4831H2364.2506V231.3887L2386.662 233.5408V423.3027ZM2383.5455 522.0797C2383.5455 526.0873 2384.2877 529.8721 2385.8463 533.2859 2387.3304 536.7739 2389.4083 539.8166 2392.0057 542.414 2394.6033 545.0114 2397.646 547.0152 2401.134 548.4994 2404.5477 549.9094 2408.2584 550.6515 2412.1917 550.6515 2416.0509 550.6515 2419.7613 549.9094 2423.2493 548.3509 2426.663 546.8666 2429.78 544.7889 2432.4517 542.1915 2435.1234 539.5938 2437.2012 536.5511 2438.6854 533.0631 2440.244 529.6493 2440.986 525.9387 2440.986 522.0797 2440.986 518.1463 2440.244 514.4357 2438.6854 510.9477 2437.2012 507.534 2435.1234 504.417 2432.5257 501.7453 2429.9283 499.0737 2426.8856 496.9959 2423.3975 495.5117 2419.984 493.9532 2416.199 493.2111 2412.1917 493.2111 2408.1097 493.2111 2404.325 493.9532 2400.9112 495.5117 2397.423 496.9959 2394.3804 499.0737 2391.783 501.6713 2389.1856 504.2687 2387.182 507.3114 2385.6976 510.7995 2384.2877 514.2132 2383.5455 517.998 2383.5455 522.0797ZM2490.486 269.6083C2490.486 276.7326 2491.599 283.6344 2493.8255 290.2394 2496.126 296.8441 2499.7628 303.2266 2504.809 309.312 2509.9298 315.3974 2516.0894 320.7407 2523.5108 325.1934 2530.9315 329.7203 2540.0599 333.2826 2550.969 336.0285 2561.9525 338.7002 2574.0494 340.0359 2587.4078 340.0359 2594.4576 340.0359 2601.2113 339.7391 2607.5936 339.1455V369.2758C2607.5936 378.8493 2607.4449 386.6414 2607.0738 392.5786 2606.7027 398.5897 2605.812 404.7494 2604.328 411.0576 2602.918 417.3656 2600.8399 422.2636 2598.1683 425.6773 2595.4967 429.0911 2591.7117 431.9113 2586.8138 434.1376 2581.99 436.4382 2576.1273 437.5514 2569.1512 437.5514 2548.0006 437.5514 2532.5643 429.1654 2522.843 412.4676V411.5769C2525.3658 412.0223 2527.592 412.2451 2529.5958 412.2451 2537.1656 412.2451 2543.1026 409.8702 2547.4068 405.269 2551.7855 400.5935 2553.9376 393.9143 2553.9376 385.1572 2553.9376 377.5876 2551.34 371.2054 2546.1456 366.0103 2540.876 360.8898 2534.4197 358.2924 2526.553 358.2924 2518.0189 358.2924 2511.2657 361.1866 2506.3677 366.9752 2501.3956 372.7638 2498.9464 379.5914 2498.9464 387.3838 2498.9464 404.4526 2506.813 418.7755 2522.546 430.2045 2538.2786 441.6333 2556.3126 447.3476 2576.721 447.3476 2591.2667 447.3476 2603.5858 445.7891 2613.8275 442.7464 2623.9945 439.7037 2632.158 435.6961 2638.2435 430.7238 2644.3287 425.6773 2649.0782 418.9241 2652.492 410.2413 2655.9058 401.6324 2658.1324 392.8011 2659.2454 383.8215 2660.2843 374.8416 2660.878 363.8582 2660.878 350.7968V233.5408L2683.29 231.3887V222.4831H2614.124L2608.0389 256.7693H2607.5936C2600.4688 242.9657 2591.9346 232.7244 2581.8416 225.9711 2571.7489 219.2179 2559.5777 215.8038 2545.2547 215.8038 2527.592 215.8038 2514.0115 221.0732 2504.5863 231.6855 2495.1614 242.2979 2490.486 254.9883 2490.486 269.6083ZM2543.1026 274.0609C2543.1026 262.4097 2545.2547 252.9845 2549.633 245.7859 2553.9376 238.5873 2560.32 234.9507 2568.706 234.9507 2578.5765 234.9507 2587.4818 241.1104 2595.5709 253.5041 2603.5858 265.8974 2607.5936 281.037 2607.5936 298.9964V329.1267C2601.8048 329.8689 2597.1295 330.2399 2593.493 330.2399 2585.9234 330.2399 2579.2442 329.201 2573.381 327.1972 2567.5186 325.1191 2562.843 322.3735 2559.4295 318.8854 2555.9415 315.3974 2553.047 311.6869 2550.6724 307.8278 2548.3717 303.9687 2546.739 299.7386 2545.7 295.0631 2544.661 290.3876 2543.993 286.5285 2543.622 283.4858 2543.251 280.4431 2543.1026 277.2522 2543.1026 274.0609" fill="#1a5e5f"/>
<path transform="matrix(1,0,0,-1,0,720)" d="M297.6395 503.121C297.6395 503.121 333.9077 504.6199 333.9077 503.121 333.9077 501.62 331.8049 619.4214 213.1078 616.4215 213.1078 616.4215 136.9247 614.5744 120.189 532.4936V212.3722H159.1489V357.7411H285.6764V394.5348H156.9339C156.9339 436.195 156.9339 477.8552 156.9339 519.5137 149.8229 586.5395 295.8506 617.828 297.6395 503.121" fill="#1a5e5f" fill-rule="evenodd"/>
<path transform="matrix(1,0,0,-1,0,720)" d="M120.189 203.2894C131.6755 203.2894 143.1635 203.2894 154.65 203.2894 158.4437 149.5355 197.911 126.0553 230.7804 129.2511 251.2627 126.9507 291.8282 149.2347 297.6231 186.2022V491.9335H335.0837C335.0837 385.2269 335.0837 278.5187 335.0837 171.8121 330.5869 141.2376 297.3132 90.2823 227.1716 89.9813 196.905 87.8842 123.4789 113.6645 120.189 203.2894" fill="#707275" fill-rule="evenodd"/>
<path transform="matrix(1,0,0,-1,0,720)" d="M2755.0924 525.0986V590.5593H2784.1046C2789.9405 590.5593 2794.3748 589.9649 2797.407 588.7916 2800.4393 587.6184 2802.8619 585.546 2804.6754 582.5747 2806.4886 579.6034 2807.3875 576.3121 2807.3875 572.7161 2807.3875 568.0687 2805.8792 564.1526 2802.8773 560.9679 2799.8753 557.7831 2795.2432 555.7717 2788.9654 554.9031 2791.266 553.8061 2793.0035 552.7091 2794.192 551.6425 2796.7213 549.3263 2799.1138 546.4159 2801.3533 542.9265L2812.6749 525.0986H2801.8563L2793.2015 538.721C2790.687 542.6674 2788.5997 545.6693 2786.9693 547.7567 2785.3236 549.8444 2783.8607 551.2921 2782.5657 552.13 2781.2855 552.9529 2779.96 553.532 2778.619 553.8671 2777.6439 554.0652 2776.044 554.1718 2773.804 554.1718H2763.7777V525.0986ZM2763.7777 561.6689H2782.3675C2786.329 561.6689 2789.4073 562.0802 2791.6319 562.9031 2793.8565 563.7107 2795.548 565.0211 2796.6907 566.8342 2797.8489 568.6325 2798.428 570.5827 2798.428 572.7008 2798.428 575.7939 2797.3155 578.3539 2795.0755 580.35 2792.8358 582.3462 2789.3004 583.3366 2784.4703 583.3366H2763.7777Z" fill="#1a5e5f"/>
<path transform="matrix(1,0,0,-1,0,720)" d="M2783.8834 630.1344C2803.849 630.1344 2821.926 622.0409 2835.0108 608.9562 2848.0955 595.8714 2856.189 577.7949 2856.189 557.8288 2856.189 537.863 2848.0955 519.7864 2835.0108 506.7017 2821.926 493.617 2803.849 485.5232 2783.8834 485.5232 2763.9173 485.5232 2745.8409 493.617 2732.756 506.7017 2719.6715 519.7864 2711.578 537.863 2711.578 557.8288 2711.578 577.7949 2719.6715 595.8714 2732.756 608.9562 2745.8409 622.0409 2763.9173 630.1344 2783.8834 630.1344ZM2825.8489 599.7943C2815.1097 610.5336 2800.2723 617.1766 2783.8834 617.1766 2767.4947 617.1766 2752.6573 610.5336 2741.918 599.7943 2731.1788 589.055 2724.536 574.2176 2724.536 557.8288 2724.536 541.4403 2731.1788 526.6026 2741.918 515.8633 2752.6573 505.1239 2767.4947 498.4812 2783.8834 498.4812 2800.2723 498.4812 2815.1097 505.1239 2825.8489 515.8633 2836.5885 526.6026 2843.231 541.4403 2843.231 557.8288 2843.231 574.2176 2836.5885 589.055 2825.8489 599.7943" fill="#1a5e5f"/>
</g>
</svg>
